<svg id="圖層_1" data-name="圖層 1" xmlns="http://www.w3.org/2000/svg" viewBox="0 0 437.59 271.7"><defs><style>.cls-1{fill:none;stroke:#fff;stroke-miterlimit:10;stroke-width:10px;}.cls-2{fill:aqua;isolation:isolate;opacity:0.5;}</style></defs><polygon class="cls-1" points="120.9 72.19 9.93 136.53 188.65 241.38 211.8 227.08 274.78 265.89 321.75 239.34 363.63 263.51 427.63 226.4 341.5 176.36 364.99 163.76 321.75 138.23 253.33 176.36 233.41 163.42 320.39 111 274.1 85.47 321.75 58.91 230.86 5.81 142.35 58.57 186.61 84.78 120.22 124.95 96.39 109.98 144.05 84.78 120.9 72.19"/><line class="cls-1" x1="211.8" y1="227.08" x2="276.43" y2="188.01"/><polyline class="cls-1" points="276.44 32.19 186.61 84.78 231.88 111.68 274.1 85.47 186.61 32.19"/><polyline class="cls-1" points="141.45 213.69 101.16 239.34 57.58 211.42 119.54 175.34 164.14 200.87 190.65 186.23 212.82 201.55 255.16 175.34 298.61 201.21 341.5 176.36"/><line class="cls-1" x1="258.14" y1="148.52" x2="276.43" y2="161.38"/><polygon class="cls-2" points="34.01 136.74 99.72 175.09 122.48 162.55 169.82 191.21 193.36 177.72 212.38 189.13 232.42 178.63 213.02 163.98 298.65 113.14 280.41 99.01 234.13 125.72 189.87 99.01 121.19 139.6 74.88 112.88 34.01 136.74"/></svg>