<svg xmlns="http://www.w3.org/2000/svg" viewBox="0 0 119.88 74.11"><defs><style>.cls-1{fill:#4c7f75;stroke:#000;stroke-width:2px;}.cls-1,.cls-2{stroke-miterlimit:10;}.cls-2{fill:none;stroke:#466c66;stroke-width:3px;}.cls-3{fill:#466c66;}.cls-4{fill:#fff;}</style></defs><g id="Layer_2" data-name="Layer 2"><g id="Layer_2-2" data-name="Layer 2"><rect class="cls-1" x="1" y="1" width="117.88" height="72.11"/><rect class="cls-2" x="7.8" y="6.07" width="103.82" height="62.88"/><path class="cls-3" d="M1.69,58.25h0A14.33,14.33,0,0,1,16,72.58v0a0,0,0,0,1,0,0H1.69a0,0,0,0,1,0,0V58.25A0,0,0,0,1,1.69,58.25Z"/><path class="cls-3" d="M103.78,58.25h14.33a0,0,0,0,1,0,0v0a14.33,14.33,0,0,1-14.33,14.33h0a0,0,0,0,1,0,0V58.25A0,0,0,0,1,103.78,58.25Z" transform="translate(221.89 130.82) rotate(-180)"/><path class="cls-3" d="M2.23,2.23H16.56a0,0,0,0,1,0,0v0A14.33,14.33,0,0,1,2.23,16.56h0a0,0,0,0,1,0,0V2.23A0,0,0,0,1,2.23,2.23Z"/><path class="cls-3" d="M103.78,2.23h0a14.33,14.33,0,0,1,14.33,14.33v0a0,0,0,0,1,0,0H103.78a0,0,0,0,1,0,0V2.23A0,0,0,0,1,103.78,2.23Z" transform="translate(221.89 18.79) rotate(180)"/><path class="cls-4" d="M26.76,35.86V33.52h2.62V29.39h2.25v4.13h2.54v2.34H31.63v4L34,39.42a15.21,15.21,0,0,0,0,2.35l-2.35.56v6.38c.07,1.81-.71,2.71-2.34,2.71a19.19,19.19,0,0,1-2.25.1c-.06-.5-.16-1.16-.28-2a3,3,0,0,1-.09-.47h1.59c.81.06,1.19-.28,1.12-1V43l-2.81.75-.19-2.63c.94-.19,1.94-.4,3-.65v-4.6ZM48,51.52A27.19,27.19,0,0,1,41.1,48.8a23.77,23.77,0,0,1-6.93,2.91l-.57-1.13c-.31-.5-.53-.88-.65-1.12a20,20,0,0,0,6.28-2.25,15.12,15.12,0,0,1-3.56-5.16l1-.56H35.1V39.33H47.38v2.25a16,16,0,0,1-4.21,5.72,18.33,18.33,0,0,0,6.09,2c-.25.37-.63,1-1.13,1.87A1,1,0,0,1,48,51.52Zm-13-12.85c-.44-.68-.88-1.34-1.32-2a4,4,0,0,0,2.91-4.41V30.24h8.34V34c-.06.87.28,1.28,1,1.22h.38c.5.06.78-.25.84-.94V34a5.3,5.3,0,0,0,.19-1.5l.84.28a6.08,6.08,0,0,0,1.13.47c-.06.62-.16,1.31-.28,2.06-.31,1.5-1.1,2.25-2.35,2.25h-1.5q-2.43,0-2.43-2.91V32.49h-4A5.73,5.73,0,0,1,34.92,38.67Zm9.75,2.82H37.92a14.43,14.43,0,0,0,3.28,4.4A12.78,12.78,0,0,0,44.67,41.49Z"/><path class="cls-4" d="M52,38.67,50.67,36.8l3.46-2.16c.69-.43,1.22-.78,1.6-1a20.72,20.72,0,0,0,1.4,1.6ZM51.51,51.8c-.06-.19-.19-.5-.38-.94a4.31,4.31,0,0,1-.46-1c1.43-.25,3.53-.59,6.28-1,1-.19,1.75-.31,2.25-.38L60,50C56.92,50.71,54.07,51.3,51.51,51.8Zm-.19-19.5V30.42h6.1V32.3Zm2,15.75V38.58H70.45v9.47Zm2.44-8V41.3H68V40.08Zm0,2.63v1.21H68V42.71Zm0,2.62v1.31H68V45.33Zm3.19-10.41c-.19-.12-.5-.34-.94-.65s-.75-.44-.94-.56a11.14,11.14,0,0,0,3.47-4.6l2.34.28-.65,1.32h10v1.68l-1.41,2.35-2.25-.57,1.13-1.78H66l-.09.66c.75,1.69,3.06,2.84,6.93,3.47-.37.69-.71,1.31-1,1.87-3.62-.68-5.9-1.78-6.84-3.28q-1.32,2.16-6.84,3.28L57,36.61q6-1,6.47-3.28a2.15,2.15,0,0,0,.19-.94H61.17A21,21,0,0,1,58.92,34.92ZM72.13,51.71C69.7,51.2,66.85,50.64,63.6,50l.75-1.6c.5.07,1.28.19,2.35.38a61.07,61.07,0,0,1,6.09,1Z"/><path class="cls-4" d="M74.57,40.46V38H83.1V29.21h2.72v3.18H95.2v2.35H85.82V38H97.07v2.44ZM83.1,51.71V41.11h2.72v10.6Zm11.07-2.82q-5.25-3.09-8.35-4.68l1.41-2.07,4.22,2.16,4.22,2.25Z"/></g></g></svg>