<svg xmlns="http://www.w3.org/2000/svg" viewBox="0 0 119.88 74.11"><defs><style>.cls-1{fill:#afced3;stroke:#000;stroke-width:2px;}.cls-1,.cls-2{stroke-miterlimit:10;}.cls-2{fill:none;stroke:#91bcbd;stroke-width:3px;}.cls-3{fill:#91bcbd;}.cls-4{fill:#fff;}</style></defs><g id="Layer_2" data-name="Layer 2"><g id="Layer_2-2" data-name="Layer 2"><rect class="cls-1" x="1" y="1" width="117.88" height="72.11"/><rect class="cls-2" x="7.8" y="6.07" width="103.82" height="62.88"/><path class="cls-3" d="M1.69,58.25h0A14.33,14.33,0,0,1,16,72.58v0a0,0,0,0,1,0,0H1.69a0,0,0,0,1,0,0V58.25A0,0,0,0,1,1.69,58.25Z"/><path class="cls-3" d="M103.78,58.25h14.33a0,0,0,0,1,0,0v0a14.33,14.33,0,0,1-14.33,14.33h0a0,0,0,0,1,0,0V58.25A0,0,0,0,1,103.78,58.25Z" transform="translate(221.89 130.82) rotate(-180)"/><path class="cls-3" d="M2.23,2.23H16.56a0,0,0,0,1,0,0v0A14.33,14.33,0,0,1,2.23,16.56h0a0,0,0,0,1,0,0V2.23A0,0,0,0,1,2.23,2.23Z"/><path class="cls-3" d="M103.78,2.23h0a14.33,14.33,0,0,1,14.33,14.33v0a0,0,0,0,1,0,0H103.78a0,0,0,0,1,0,0V2.23A0,0,0,0,1,103.78,2.23Z" transform="translate(221.89 18.79) rotate(180)"/><path class="cls-4" d="M32,47.36a18.59,18.59,0,0,1-2.44-2.06,23.43,23.43,0,0,1-4.5,4.22c-.62-.75-1.19-1.38-1.69-1.88a16.46,16.46,0,0,0,4.41-3.93L25.92,42l-.29.94-2.15-.85c.81-2.62,1.5-5.22,2.06-7.78H23.67V32H26c.25-1.63.47-3.22.66-4.78l2.53.18c-.25,1.44-.53,3-.85,4.6H33v2.15a29,29,0,0,1-2.07,9c.94.75,1.85,1.54,2.72,2.35Zm-1.5-13H27.88c-.12.5-.31,1.25-.56,2.25-.31,1.5-.56,2.56-.75,3.19a8.85,8.85,0,0,1,.75.56A13.52,13.52,0,0,0,29,41.64,21.52,21.52,0,0,0,30.51,34.33Zm2.72,5.53V37.42h5.44V34.61l3.75-3.75H34.07V28.52H45.51v2.53l-4.22,4.31v2.06h4.88v2.44H41.29v6.47q.09,3-3.19,3-1.22.09-3.09.09a.78.78,0,0,0-.09-.28A12.54,12.54,0,0,0,34.54,47h2.63q1.59,0,1.5-1.41V39.86Z"/><path class="cls-4" d="M51.13,36.86a48.38,48.38,0,0,0-3.84-3.28l1.5-1.69a33.4,33.4,0,0,1,3.94,3.19ZM48.42,49.52l-1-2.53c.94-.88,1.82-1.66,2.63-2.35V39.77H47.57V37.61h4.78v7Q54,47,57.7,47q5.89.09,12.56,0a5.78,5.78,0,0,0-.28.75,6,6,0,0,0-.47,1.4H62.2c-1.88,0-3.53,0-5-.09-2.69-.06-4.69-.88-6-2.44A35.21,35.21,0,0,0,48.42,49.52Zm3.46-17.35C50.57,31,49.26,29.89,48,28.89l1.5-1.59a33.59,33.59,0,0,1,2.9,2.25l1.13.84ZM54,32.08V28.24H69.23v3.84H67.54V33.3H62.76v1.41h5.62v7.12H62.76v1.5H69.6V45H62.76v2H60.42V45H53.67V43.33h6.75v-1.5H54.79V34.71h5.63V33.3H55.63V32.08Zm2.25-2v1.6h4.22v-1.6Zm.93,6v1.5h3.29v-1.5Zm0,2.81v1.5h3.29v-1.5ZM67,30.11H62.76v1.6H67Zm-.85,6H62.76v1.5h3.37Zm-3.37,2.81v1.5h3.37v-1.5Z"/><path class="cls-4" d="M71.57,38.46V36H80.1V27.21h2.72v3.18H92.2v2.35H82.82V36H94.07v2.44ZM80.1,49.71V39.11h2.72v10.6Zm11.07-2.82q-5.25-3.09-8.35-4.68l1.41-2.07,4.22,2.16,4.22,2.25Z"/></g></g></svg>