<svg xmlns="http://www.w3.org/2000/svg" viewBox="0 0 119.88 74.11"><defs><style>.cls-1{fill:#6ec1b5;stroke:#000;stroke-width:2px;}.cls-1,.cls-2{stroke-miterlimit:10;}.cls-2{fill:none;stroke:#5fab9f;stroke-width:3px;}.cls-3{fill:#5fab9f;}.cls-4{fill:#fff;}</style></defs><g id="Layer_2" data-name="Layer 2"><g id="Layer_2-2" data-name="Layer 2"><rect class="cls-1" x="1" y="1" width="117.88" height="72.11"/><rect class="cls-2" x="7.8" y="6.07" width="103.82" height="62.88"/><path class="cls-3" d="M1.69,58.25h0A14.33,14.33,0,0,1,16,72.58v0a0,0,0,0,1,0,0H1.69a0,0,0,0,1,0,0V58.25A0,0,0,0,1,1.69,58.25Z"/><path class="cls-3" d="M103.78,58.25h14.33a0,0,0,0,1,0,0v0a14.33,14.33,0,0,1-14.33,14.33h0a0,0,0,0,1,0,0V58.25A0,0,0,0,1,103.78,58.25Z" transform="translate(221.89 130.82) rotate(-180)"/><path class="cls-3" d="M2.23,2.23H16.56a0,0,0,0,1,0,0v0A14.33,14.33,0,0,1,2.23,16.56h0a0,0,0,0,1,0,0V2.23A0,0,0,0,1,2.23,2.23Z"/><path class="cls-3" d="M103.78,2.23h0a14.33,14.33,0,0,1,14.33,14.33v0a0,0,0,0,1,0,0H103.78a0,0,0,0,1,0,0V2.23A0,0,0,0,1,103.78,2.23Z" transform="translate(221.89 18.79) rotate(180)"/><path class="cls-4" d="M23.37,46v-2H34.06v-.28L37.34,42H28.15V40.2H41.09V42l-4,2.06h9v2H36.59v1.31c.06,1.81-.85,2.69-2.72,2.62-.69.07-2.1.1-4.22.1A8.43,8.43,0,0,0,29.18,48c.56.06,1.72.09,3.47.09,1,0,1.47-.38,1.41-1.13V46ZM38.65,32.8V31.49H42V30.08H38.37V28.39h5.9V37h1.32v4.4H43.24V38.7H26.18v2.72H23.93V37h1.22V28.86c2.12-.37,3.81-.72,5.06-1L31,29.61c-.56.13-1.47.28-2.72.47a4,4,0,0,1-.84.19v1.22h3.47V32.8H27.4v1.4h3.47v1.41H27.4V37H42V35.61H38.56V34.2H42V32.8Zm-7.41-1.6c.75-.37,1.47-.75,2.16-1.12a21.68,21.68,0,0,0-2-1.22l.94-1.12c.25.12.62.34,1.12.65a12.11,12.11,0,0,0,1.22.75,14.65,14.65,0,0,0,2-1.5l1.13,1-.85.57c-.44.37-.75.62-.94.75.25.12.6.31,1,.56l.93.65-.93,1.13.65.56A14,14,0,0,1,36,34.2c.19.13.44.29.75.47a5.49,5.49,0,0,0,1.22.75l-1.12,1.32c-.75-.57-1.44-1.1-2.06-1.6-.88.56-1.79,1.1-2.72,1.6a7.13,7.13,0,0,0-.85-1.32A22.69,22.69,0,0,0,33.4,34.2c-.56-.37-1.16-.78-1.78-1.21l.65-.66-.09.09C31.87,32,31.55,31.58,31.24,31.2Zm3.47-.28a18.15,18.15,0,0,1-2,1.13l.85.56a10.18,10.18,0,0,0,1.22.75c.49-.37,1-.81,1.59-1.31Z"/><path class="cls-4" d="M48.77,38.61,48,36.55a25.89,25.89,0,0,0,7.32-3.19V32.14a32.15,32.15,0,0,1-7,3.1l-.75-1.88a25.44,25.44,0,0,0,6.65-2.53H47.84v-2h9.84V37H55.34v-1.6A26.37,26.37,0,0,1,48.77,38.61ZM50,50.24v-11h5.25c.25-.63.47-1.25.66-1.88l2.44.28-.57,1.6h9.47v11H64.81V49.11H52.52v1.13Zm2.53-9.1v2.25H64.81V41.14Zm0,4v2.16H64.81V45.17Zm7.22-6.93-.65-2.07a23,23,0,0,0,7.12-3.09V31.86a26.6,26.6,0,0,1-7,3.28l-.75-2a24.8,24.8,0,0,0,6.19-2.34H58.81v-2h9.75v8.91H66.21V35.14A33,33,0,0,1,59.74,38.24Z"/><path class="cls-4" d="M71.46,39V36.55H80V27.74h2.72v3.18h9.38v2.35H82.71v3.28H94V39ZM80,50.24V39.64h2.72v10.6Zm11.07-2.82q-5.27-3.09-8.35-4.68l1.41-2.07,4.22,2.16,4.22,2.25Z"/></g></g></svg>