<svg xmlns="http://www.w3.org/2000/svg" viewBox="0 0 119.69 74"><defs><style>.cls-1{fill:#f3dc7d;stroke:#000;stroke-width:2px;}.cls-1,.cls-2{stroke-miterlimit:10;}.cls-2{fill:none;stroke:#e0c570;stroke-width:3px;}.cls-3{fill:#e0c570;}.cls-4{fill:#fff;}</style></defs><g id="Layer_2" data-name="Layer 2"><g id="Layer_2-2" data-name="Layer 2"><rect class="cls-1" x="1" y="1" width="117.69" height="72"/><rect class="cls-2" x="8.76" y="6.78" width="101.27" height="61.34"/><path class="cls-3" d="M2.8,57.64h0a14,14,0,0,1,14,14v0a0,0,0,0,1,0,0H2.8a0,0,0,0,1,0,0v-14A0,0,0,0,1,2.8,57.64Z"/><path class="cls-3" d="M103.36,57.64h14a0,0,0,0,1,0,0v0a14,14,0,0,1-14,14h0a0,0,0,0,1,0,0v-14A0,0,0,0,1,103.36,57.64Z" transform="translate(220.7 129.27) rotate(-180)"/><path class="cls-3" d="M2.35,2.05h14a0,0,0,0,1,0,0v0a14,14,0,0,1-14,14h0a0,0,0,0,1,0,0v-14A0,0,0,0,1,2.35,2.05Z"/><path class="cls-3" d="M103.36,2.05h0a14,14,0,0,1,14,14v0a0,0,0,0,1,0,0h-14a0,0,0,0,1,0,0v-14A0,0,0,0,1,103.36,2.05Z" transform="translate(220.7 18.08) rotate(180)"/><path class="cls-4" d="M26.07,44.5a21.45,21.45,0,0,0-2.63-1,58,58,0,0,0,4.32-11.25l2.72.75Q28.61,38.69,26.07,44.5Zm3.37,4.6a8,8,0,0,0-.56-2.54c.75.07,1.75.1,3,.1s2-.5,1.88-1.88V27.35h2.72V45.63Q36.66,49.1,33,49.1ZM43.6,44.22Q41.73,39.17,39,33.06l2.53-.84,4,9.38a17,17,0,0,1,.75,1.68Z"/><path class="cls-4" d="M69,49.47Q60.19,48,58.88,43.28q-1.31,4.41-10.12,6.38c-.38-.75-.75-1.53-1.13-2.35q7.59-1.31,9.1-4.59l-1.32,1.59c-.25-.24-.65-.62-1.22-1.12l-1.31-1a29.49,29.49,0,0,1-3.09,2.15,11.11,11.11,0,0,0-1.22-1.59A26,26,0,0,0,51.38,41L49,39.25,50.35,38l2.44,1.78a15.74,15.74,0,0,0,2.06-2.06L56.35,39l-.66.66a12.32,12.32,0,0,1-1.31,1.31c.25.19.66.47,1.22.84s.88.75,1.13.94a9.3,9.3,0,0,0,.84-4.31V31.56H48.29V29.5h9.28V27.16H60.1V29.5h9.47v2.06H60.1v7.69a8.22,8.22,0,0,0,.84,3.28,23.33,23.33,0,0,0,2.44-1.59l-1.12-.84c-.57-.38-1-.66-1.22-.85l1.22-1.31-.1.09a.28.28,0,0,0-.18.1,17.21,17.21,0,0,0-1.32-1.6A19.23,19.23,0,0,0,63,35.22a.91.91,0,0,0,.28-.19L61,33.44l1.22-1.22,1.5.94a11,11,0,0,1,1.22.75A28.73,28.73,0,0,0,67.23,32l1.4,1.22A17.93,17.93,0,0,1,66.57,35l2.34,1.5-1.31,1.6c-.94-.69-1.81-1.35-2.62-2a28.76,28.76,0,0,1-2.63,1.78l2.53,1.78a12,12,0,0,0,2.06-2L68.44,39a14.74,14.74,0,0,1-2.06,1.88l2.44,1.78L67.6,44.22c-.37-.31-.91-.72-1.59-1.22l-1.13-.84a13.54,13.54,0,0,1-2.81,2q2.43,2.43,8.06,3c-.06.12-.15.31-.28.56A12.2,12.2,0,0,0,69,49.47ZM55.51,38.13c-.88-.69-1.75-1.32-2.63-1.88-.37.25-1,.63-1.78,1.13a11,11,0,0,0-1.22.75,16.06,16.06,0,0,0-1.22-1.6A16.46,16.46,0,0,0,51.29,35c-.81-.56-1.6-1.06-2.35-1.5l1.22-1.31c.32.19.82.5,1.5.94a10.15,10.15,0,0,1,1.22.75A28.73,28.73,0,0,0,55.13,32l1.41,1.22A18.82,18.82,0,0,1,54.48,35l2.34,1.5Z"/><path class="cls-4" d="M71.63,38.31V35.88h8.53V27.06h2.72v3.19h9.38V32.6H82.88v3.28H94.13v2.43Zm8.53,11.25V39h2.72V49.56Zm11.07-2.81Q86,43.66,82.88,42.06L84.29,40l4.22,2.16,4.22,2.25Z"/></g></g></svg>