<svg xmlns="http://www.w3.org/2000/svg" viewBox="0 0 119.88 74.11"><defs><style>.cls-1{fill:#db645c;stroke:#000;stroke-width:2px;}.cls-1,.cls-2{stroke-miterlimit:10;}.cls-2{fill:none;stroke:#c15c55;stroke-width:3px;}.cls-3{fill:#c15c55;}.cls-4{fill:#fff;}</style></defs><g id="Layer_2" data-name="Layer 2"><g id="Layer_2-2" data-name="Layer 2"><rect class="cls-1" x="1" y="1" width="117.88" height="72.11"/><rect class="cls-2" x="7.8" y="6.07" width="103.82" height="62.88"/><path class="cls-3" d="M1.69,58.25h0A14.33,14.33,0,0,1,16,72.58v0a0,0,0,0,1,0,0H1.69a0,0,0,0,1,0,0V58.25A0,0,0,0,1,1.69,58.25Z"/><path class="cls-3" d="M103.78,58.25h14.33a0,0,0,0,1,0,0v0a14.33,14.33,0,0,1-14.33,14.33h0a0,0,0,0,1,0,0V58.25A0,0,0,0,1,103.78,58.25Z" transform="translate(221.89 130.82) rotate(-180)"/><path class="cls-3" d="M2.23,2.23H16.56a0,0,0,0,1,0,0v0A14.33,14.33,0,0,1,2.23,16.56h0a0,0,0,0,1,0,0V2.23A0,0,0,0,1,2.23,2.23Z"/><path class="cls-3" d="M103.78,2.23h0a14.33,14.33,0,0,1,14.33,14.33v0a0,0,0,0,1,0,0H103.78a0,0,0,0,1,0,0V2.23A0,0,0,0,1,103.78,2.23Z" transform="translate(221.89 18.79) rotate(180)"/><path class="cls-4" d="M26,30.71V28.17H45.57v2.54H37.23V44.77h9.65v2.34H24.76V44.77h9.66V30.71Z"/><path class="cls-4" d="M49.13,40.08c-.12-.56-.31-1.37-.56-2.44a2.39,2.39,0,0,0-.19-.56,41,41,0,0,0,4.88-10.87l2.44.65c-.5,1.63-1.1,3.25-1.78,4.88V48.61H51.48V36.52C50.73,37.77,50,39,49.13,40.08Zm7.41-2.72c-.56-.56-1.16-1.18-1.78-1.87a27.31,27.31,0,0,0,4.59-9.28l2.63.46c-.19.44-.44,1.1-.75,2-.19.5-.35.88-.47,1.13H71.17v2.34H63.38v3.47h6.47v2.34H63.38v3.57h7.13v2.25H63.38v4.87H61V32.11H59.73A30.67,30.67,0,0,1,56.54,37.36Z"/><path class="cls-4" d="M72.57,37.46V35H81.1V26.21h2.72v3.18H93.2v2.35H83.82V35H95.07v2.44ZM81.1,48.71V38.11h2.72v10.6Zm11.07-2.82q-5.25-3.09-8.35-4.68l1.41-2.07,4.22,2.16,4.22,2.25Z"/></g></g></svg>