<svg xmlns="http://www.w3.org/2000/svg" viewBox="0 0 119.88 74.11"><defs><style>.cls-1{fill:#27272b;stroke:#000;stroke-width:2px;}.cls-1,.cls-2{stroke-miterlimit:10;}.cls-2{fill:none;stroke:#48484e;stroke-width:3px;}.cls-3{fill:#48484e;}.cls-4{fill:#fff;}</style></defs><g id="Layer_2" data-name="Layer 2"><g id="Layer_2-2" data-name="Layer 2"><rect class="cls-1" x="1" y="1" width="117.88" height="72.11"/><rect class="cls-2" x="7.8" y="6.07" width="103.82" height="62.88"/><path class="cls-3" d="M1.69,58.25h0A14.33,14.33,0,0,1,16,72.58v0a0,0,0,0,1,0,0H1.69a0,0,0,0,1,0,0V58.25A0,0,0,0,1,1.69,58.25Z"/><path class="cls-3" d="M103.78,58.25h14.33a0,0,0,0,1,0,0v0a14.33,14.33,0,0,1-14.33,14.33h0a0,0,0,0,1,0,0V58.25A0,0,0,0,1,103.78,58.25Z" transform="translate(221.89 130.82) rotate(-180)"/><path class="cls-3" d="M2.23,2.23H16.56a0,0,0,0,1,0,0v0A14.33,14.33,0,0,1,2.23,16.56h0a0,0,0,0,1,0,0V2.23A0,0,0,0,1,2.23,2.23Z"/><path class="cls-3" d="M103.78,2.23h0a14.33,14.33,0,0,1,14.33,14.33v0a0,0,0,0,1,0,0H103.78a0,0,0,0,1,0,0V2.23A0,0,0,0,1,103.78,2.23Z" transform="translate(221.89 18.79) rotate(180)"/><path class="cls-4" d="M26.26,38.24V29.33H45.38v8.91H37V40h8.72v1.87H37v1.88h10v1.87H24.48V43.77h10V41.89H26V40h8.53V38.24Zm1,12.56a1.39,1.39,0,0,1-.56-.19c-.88-.19-1.5-.31-1.88-.37q1.32-2.16,2.25-3.94l2.44.37C28.6,48.49,27.85,49.86,27.29,50.8ZM28.6,31.3v5.06h5.91V31.3Zm3.19,4.41a16.58,16.58,0,0,0-2.16-2.82l1.6-1.12c.31.37.81.94,1.5,1.69a10,10,0,0,0,.84,1Zm.47,14.71c-.31-1.31-.63-2.49-.94-3.56l2.35-.28A7.7,7.7,0,0,0,34,47.8a22.55,22.55,0,0,1,.66,2.34Zm6-.09a3.75,3.75,0,0,0-.38-.75c-.5-1.19-.9-2.12-1.21-2.81L39,46.39l.56,1.13c.5,1,.88,1.81,1.13,2.44ZM43,31.3H37v5.06h6Zm-3.56,4.41L38,34.49l.09-.1a32.82,32.82,0,0,0,2.16-2.62L41.92,33c-.32.37-.85,1-1.6,1.78C40,35.21,39.67,35.52,39.48,35.71Zm5,14.71c-.13-.25-.35-.62-.66-1.12-.62-1.13-1.16-2-1.59-2.63l2.34-.37a8.47,8.47,0,0,0,.66,1A16.74,16.74,0,0,1,46.79,50Z"/><path class="cls-4" d="M49.42,49.21v-19h6.65V48.64H54v-1H51.57v1.6Zm2.15-16.88v5.53H54V32.33Zm0,7.59v5.63H54V39.92Zm5.16-2V35.89h3.94a5.25,5.25,0,0,0-.38-.75,18.69,18.69,0,0,0-1.31-2l2.25-.37a27.87,27.87,0,0,1,1.69,2.81l-1.79.28H64.7l1.5-2.53c.12-.25.22-.43.28-.56l2.34.37a18.39,18.39,0,0,1-1.69,2.72h3.94V38Zm.65-5.35v-2h5.16V28.3h2.53v2.34h5.25v2ZM58,50.71V39.83H69.67V50.71H67.42V49.58H60.2v1.13Zm2.25-9V44h7.22V41.71Zm0,3.93v2.25h7.22V45.64Z"/><path class="cls-4" d="M72.57,39.46V37H81.1V28.21h2.72v3.18H93.2v2.35H83.82V37H95.07v2.44ZM81.1,50.71V40.11h2.72v10.6Zm11.07-2.82q-5.25-3.09-8.35-4.68l1.41-2.07,4.22,2.16,4.22,2.25Z"/></g></g></svg>