<svg xmlns="http://www.w3.org/2000/svg" viewBox="0 0 119.88 74.11"><defs><style>.cls-1{fill:#4961dd;stroke:#000;stroke-width:2px;}.cls-1,.cls-2{stroke-miterlimit:10;}.cls-2{fill:none;stroke:#4356be;stroke-width:3px;}.cls-3{fill:#4356be;}.cls-4{fill:#f1f1f1;}</style></defs><g id="Layer_2" data-name="Layer 2"><g id="Layer_2-2" data-name="Layer 2"><rect class="cls-1" x="1" y="1" width="117.88" height="72.11"/><rect class="cls-2" x="7.8" y="6.07" width="103.82" height="62.88"/><path class="cls-3" d="M1.69,58.25h0A14.33,14.33,0,0,1,16,72.58v0a0,0,0,0,1,0,0H1.69a0,0,0,0,1,0,0V58.25A0,0,0,0,1,1.69,58.25Z"/><path class="cls-3" d="M103.78,58.25h14.33a0,0,0,0,1,0,0v0a14.33,14.33,0,0,1-14.33,14.33h0a0,0,0,0,1,0,0V58.25A0,0,0,0,1,103.78,58.25Z" transform="translate(221.89 130.82) rotate(-180)"/><path class="cls-3" d="M2.23,2.23H16.56a0,0,0,0,1,0,0v0A14.33,14.33,0,0,1,2.23,16.56h0a0,0,0,0,1,0,0V2.23A0,0,0,0,1,2.23,2.23Z"/><path class="cls-3" d="M103.78,2.23h0a14.33,14.33,0,0,1,14.33,14.33v0a0,0,0,0,1,0,0H103.78a0,0,0,0,1,0,0V2.23A0,0,0,0,1,103.78,2.23Z" transform="translate(221.89 18.79) rotate(180)"/><path class="cls-4" d="M27.52,35.74V33.21H37q.09-2.05.09-5.91H39.9l-.19,5.91h9.47v2.53H39.8Q41,43.81,49.65,46.9a11.56,11.56,0,0,0-1.78,2.34q-7.78-3.37-9.47-9.94-1.5,6.38-9.47,10.22l-1-1.4a9.69,9.69,0,0,1-.75-.94q9-3.75,9.56-11.44Z"/><path class="cls-4" d="M72.52,49.52Q63.72,48,62.4,43.33q-1.32,4.41-10.13,6.38c-.37-.75-.75-1.53-1.12-2.34q7.59-1.32,9.09-4.6l-1.31,1.6c-.25-.25-.66-.63-1.22-1.13l-1.31-1a30.16,30.16,0,0,1-3.1,2.16,11.17,11.17,0,0,0-1.22-1.6,26.25,26.25,0,0,0,2.82-1.69L52.55,39.3l1.32-1.22,2.43,1.79a15.9,15.9,0,0,0,2.07-2.07L59.87,39l-.66.66A13.34,13.34,0,0,1,57.9,41c.25.19.65.47,1.22.84s.87.75,1.12.94a9.3,9.3,0,0,0,.84-4.31V31.62H51.8V29.55h9.28V27.21h2.54v2.34h9.46v2.07H63.62V39.3a8.22,8.22,0,0,0,.84,3.28A24.43,24.43,0,0,0,66.9,41l-1.13-.84c-.56-.38-1-.66-1.22-.85L65.77,38l-.09.09a.3.3,0,0,0-.19.1,17.49,17.49,0,0,0-1.31-1.6,18.65,18.65,0,0,0,2.34-1.31.8.8,0,0,0,.28-.19l-2.25-1.59,1.22-1.22,1.5.94a11,11,0,0,1,1.22.75,28.73,28.73,0,0,0,2.25-1.88l1.41,1.22a18.94,18.94,0,0,1-2.07,1.78l2.35,1.5-1.31,1.6c-.94-.69-1.82-1.35-2.63-2A28.58,28.58,0,0,1,65.87,38l2.53,1.78a12.34,12.34,0,0,0,2.06-2L72,39A15.33,15.33,0,0,1,69.9,40.9l2.43,1.78-1.21,1.59c-.38-.31-.91-.72-1.6-1.22l-1.12-.84a13.25,13.25,0,0,1-2.82,2q2.44,2.43,8.07,3c-.07.12-.16.31-.28.56A13.82,13.82,0,0,0,72.52,49.52ZM59,38.18c-.87-.69-1.75-1.31-2.62-1.88-.38.25-1,.63-1.78,1.13a10.15,10.15,0,0,0-1.22.75,17.9,17.9,0,0,0-1.22-1.6,16.36,16.36,0,0,0,2.62-1.5q-1.21-.84-2.34-1.5l1.22-1.31,1.5.94A11,11,0,0,1,56.4,34a28.73,28.73,0,0,0,2.25-1.88l1.4,1.22A17.93,17.93,0,0,1,58,35.08l2.34,1.5Z"/><path class="cls-4" d="M75.15,38.37V35.93h8.53V27.12H86.4V30.3h9.37v2.35H86.4v3.28H97.65v2.44Zm8.53,11.25V39H86.4v10.6ZM94.74,46.8q-5.25-3.09-8.34-4.68l1.4-2.07c.88.44,2.28,1.16,4.22,2.16l4.22,2.25Z"/></g></g></svg>