<svg xmlns="http://www.w3.org/2000/svg" viewBox="0 0 125.53 125.53"><defs><style>.cls-1,.cls-4{fill:#4a5054;stroke:#000;stroke-miterlimit:10;stroke-width:2px;}.cls-1,.cls-2{opacity:0.8;}.cls-3{fill:#ccc;}</style></defs><g id="Layer_2" data-name="Layer 2"><g id="Layer_2-2" data-name="Layer 2"><circle class="cls-1" cx="63.14" cy="62.95" r="43.81"/><g class="cls-2"><path class="cls-3" d="M68.08,96.35c1.35,2.09,3,3.51,2.69,4.42-.34,1.23-2.1,2.07-3.25,3.09-.91-1.12-2.51-2.21-2.55-3.35S66.54,98.29,68.08,96.35Z"/><path class="cls-3" d="M84.61,97.7c-2.41,1.49-3.84,3.07-4.93,2.86s-2.65-2-2.83-3.29c-.12-.8,1.89-2.68,3-2.68C81,94.58,82.28,96.1,84.61,97.7Z"/><path class="cls-3" d="M76.26,92.68c-2,1.49-3.23,3.06-4.29,3s-2.12-1.77-3.16-2.76c1-1,1.87-2.78,3-2.94S74.14,91.3,76.26,92.68Z"/><path class="cls-3" d="M84.8,94.34c-1.62-2.25-3.28-3.55-3.16-4.65a4.57,4.57,0,0,1,3.06-3c.8-.16,2.81,1.69,2.88,2.73C87.66,90.62,86.23,92,84.8,94.34Z"/><path class="cls-3" d="M88.67,86.23c-1.51-2.18-3-3.42-3-4.65,0-1,1.8-2,2.81-3.07,1.09,1.07,2.78,2,3.07,3.25C91.74,82.7,90.14,84.06,88.67,86.23Z"/><path class="cls-3" d="M102.26,62.93c-1.49-2-3.06-3.21-3-4.27s1.76-2.1,2.74-3.15c1,1,2.77,1.86,2.93,3S103.63,60.82,102.26,62.93Z"/><path class="cls-3" d="M93.64,78.14c-1.59-2-3.34-3.19-3.18-4.13.21-1.27,1.87-2.31,2.91-3.44,1,1,2.75,1.91,2.92,3S95,76,93.64,78.14Z"/><path class="cls-3" d="M98.35,62.11c1.35,2.08,2.94,3.5,2.69,4.4-.35,1.24-2.1,2.07-3.24,3.08-.92-1.11-2.51-2.2-2.55-3.33S96.82,64.05,98.35,62.11Z"/><path class="cls-3" d="M96.7,81.73c1.44,2.1,3.09,3.54,2.82,4.31-.49,1.43-2.12,2.46-3.27,3.65-1-1.16-2.69-2.28-2.76-3.49S95.1,83.83,96.7,81.73Z"/><path class="cls-3" d="M100,82c-.63-1.25-2-2.74-1.72-3.71.38-1.23,2.11-2.06,3.26-3.06.73.84,2.16,1.82,2,2.51-.27,1.52-1.33,2.9-2.07,4.35Z"/><path class="cls-3" d="M81.24,82c-1.34-2.19-2.8-3.54-2.6-4.55s1.93-2.41,3.13-2.57c.74-.1,2.46,1.81,2.43,2.78C84.17,78.85,82.73,80,81.24,82Z"/><path class="cls-3" d="M85.63,65.57c1.22,2,2.55,3.24,2.48,4.38-.07.94-2.06,2.65-2.72,2.45a4.54,4.54,0,0,1-2.7-3C82.55,68.55,84.14,67.41,85.63,65.57Z"/><path class="cls-3" d="M90.21,57.75c1.3,1.81,2.82,3,2.62,3.86-.29,1.16-1.86,2-2.87,3-.87-1-2.36-1.93-2.43-3S88.89,59.53,90.21,57.75Z"/><path class="cls-3" d="M76.73,80.42c1.39,2.19,2.89,3.52,2.71,4.55a4.39,4.39,0,0,1-3.1,2.66c-.74.12-2.52-1.78-2.52-2.76C73.84,83.69,75.26,82.54,76.73,80.42Z"/><path class="cls-3" d="M90.93,53.59c2-1.23,3.18-2.56,4.13-2.4s1.78,1.75,2.65,2.71c-1,.87-1.88,2.37-2.89,2.44S92.78,55,90.93,53.59Z"/><path class="cls-3" d="M55.91,96c1.82-1.3,3.07-2.83,3.88-2.62,1.15.29,2,1.85,3,2.87-1,.87-1.94,2.36-3,2.43S57.7,97.28,55.91,96Z"/><path class="cls-3" d="M60,103.21c-1.77,1.12-2.91,2.38-3.65,2.18-1.22-.33-2.18-1.6-3.25-2.48,1-.87,2-2.38,3-2.44S58.15,101.85,60,103.21Z"/><path class="cls-3" d="M63.64,92c-1.19-2-2.47-3.22-2.3-4.15s1.81-2.44,2.71-2.38,2.33,1.7,2.39,2.71S65.06,90.19,63.64,92Z"/><path class="cls-3" d="M68.86,68.36c-1.68,1-2.71,2-3.67,2-.75,0-2.12-1.79-1.93-2.27a3.92,3.92,0,0,1,2.56-2.18C66.5,65.77,67.41,67.12,68.86,68.36Z"/><path class="cls-3" d="M77.24,73c-1.83,1.16-2.9,2.36-3.93,2.32-.84,0-2.44-1.76-2.28-2.32a4.16,4.16,0,0,1,2.6-2.53C74.37,70.3,75.46,71.67,77.24,73Z"/><path class="cls-3" d="M57.17,75.82c1.81-1,2.95-2.2,3.77-2a3.63,3.63,0,0,1,2,2.65c.07.56-1.55,1.93-2.31,1.87C59.68,78.26,58.81,77.08,57.17,75.82Z"/><path class="cls-3" d="M81,65.18c-1.67,1-2.87,2.33-3.56,2.1-1-.34-1.68-1.77-2.49-2.73.93-.72,1.86-2,2.79-2S79.46,63.9,81,65.18Z"/><path class="cls-3" d="M70.15,63.46c-1-1.61-2.1-2.58-2.08-3.53,0-.73,1.68-2.15,2.16-2a3.83,3.83,0,0,1,2.23,2.44C72.59,61.05,71.31,62,70.15,63.46Z"/><path class="cls-3" d="M68.65,76.82c1.31,2,2.64,3.18,2.49,4.09a3.92,3.92,0,0,1-2.69,2.41c-.63.12-2.23-1.5-2.26-2.36C66.17,79.93,67.36,78.86,68.65,76.82Z"/><path class="cls-3" d="M82.11,53.37c1.22,1.66,2.5,2.64,2.42,3.5a3.34,3.34,0,0,1-2.25,2.39A3.33,3.33,0,0,1,79.89,57C79.77,56.14,81,55.09,82.11,53.37Z"/><path class="cls-3" d="M56.81,87.59c-1.2-1.65-2.46-2.62-2.39-3.47s1.44-1.7,2.24-2.54c.84.8,2.23,1.52,2.36,2.42S57.93,85.89,56.81,87.59Z"/><path class="cls-3" d="M47.19,87.11c-1.39,1.11-2.37,2.43-3,2.28-1-.23-1.69-1.47-2.52-2.29.78-.73,1.51-2,2.35-2S45.75,86.11,47.19,87.11Z"/><path class="cls-3" d="M77.46,53c-1.43,1-2.47,2.3-3.1,2.13-1-.28-1.63-1.54-2.43-2.39.81-.7,1.6-1.91,2.45-1.94S76.06,51.94,77.46,53Z"/><path class="cls-3" d="M55.45,92.26c-1.65,1-2.84,2.31-3.53,2.08-1-.33-1.66-1.75-2.47-2.7.92-.71,1.84-2,2.77-2S54,91,55.45,92.26Z"/><path class="cls-3" d="M87.08,45.47c1.11,1.68,2.31,2.71,2.2,3.56a3.28,3.28,0,0,1-2.35,2.22,3.27,3.27,0,0,1-2.22-2.34C84.64,48.06,85.89,47.09,87.08,45.47Z"/><path class="cls-3" d="M40.54,98.52c-1-1.65-2-2.67-2-3.62.05-.74,1.78-2.11,2.26-1.92A3.88,3.88,0,0,1,43,95.52C43.11,96.2,41.77,97.1,40.54,98.52Z"/><path class="cls-3" d="M102.75,46.06c-1.88,1.09-3,2.27-4,2.19-.85-.06-2.4-1.88-2.21-2.44a4.19,4.19,0,0,1,2.72-2.46C100,43.22,101,44.66,102.75,46.06Z"/><path class="cls-3" d="M48.11,102.72c-1.24-1.55-2.66-2.6-2.51-3.31.23-1,1.58-1.85,2.45-2.76.81.84,2.17,1.62,2.27,2.54S49.2,101.08,48.11,102.72Z"/><path class="cls-3" d="M91.14,38.3c1.07,1.77,2.26,2.88,2.08,3.7a3.58,3.58,0,0,1-2.59,2.07c-.55.09-2-1.49-1.92-2.26C88.77,40.85,89.92,40,91.14,38.3Z"/><path class="cls-3" d="M106.27,67.57c-.37,2-.75,3.93-1.12,5.9l-1,.46c-.69-1.27-2-2.62-1.89-3.78s1.77-2.21,2.75-3.3Z"/><path class="cls-3" d="M89.29,96.29c.32-1.43.21-3.31,1.1-4.17s2.74-.67,4.17-.93L95,92.42l-4.6,4Z"/></g><g class="cls-2"><path class="cls-4" d="M107.26,104.63a58.94,58.94,0,0,0,0-83.36l-8.33,8.34a47.17,47.17,0,0,1,0,66.69Z"/></g><g class="cls-2"><path class="cls-4" d="M96.49,98.93a47.18,47.18,0,0,1-66.7,0l-8.33,8.33a58.94,58.94,0,0,0,83.36,0Z"/></g><g class="cls-2"><path class="cls-4" d="M29.79,26.6a47.18,47.18,0,0,1,66.7,0l8.33-8.33a58.92,58.92,0,0,0-83.36,0Z"/></g><g class="cls-2"><path class="cls-4" d="M18.27,21.27a58.92,58.92,0,0,0,0,83.36L26.6,96.3a47.17,47.17,0,0,1,0-66.69Z"/></g></g></g></svg>