<svg xmlns="http://www.w3.org/2000/svg" viewBox="0 0 185.09 78.34"><defs><style>.cls-1{fill:#b7b7b7;stroke:#000;stroke-miterlimit:10;stroke-width:2px;}.cls-2{fill:#221835;}</style></defs><g id="Layer_2" data-name="Layer 2"><g id="Layer_2-2" data-name="Layer 2"><path d="M7.91,78.19c1.24.33,177.18,0,177.18,0L164.68,4.25H2.63Z"/><path class="cls-1" d="M6.19,72.2c1.2.31,171.74,0,171.74,0L158.14,1H1.07Z"/><path class="cls-2" d="M167.8,70a2,2,0,1,1,2.09-1.93A2,2,0,0,1,167.8,70Z"/><path class="cls-2" d="M161.23,71.48c-1.39,0-2.08-.59-2-1.78a2,2,0,0,1,4,.08C163.2,70.92,162.56,71.47,161.23,71.48Z"/><path class="cls-2" d="M168.07,61.09a1.95,1.95,0,1,1-1.91-2A2,2,0,0,1,168.07,61.09Z"/><path class="cls-2" d="M161.12,63.11a1.95,1.95,0,1,1-1.91-2A2,2,0,0,1,161.12,63.11Z"/><path class="cls-2" d="M172.18,63.72a2.06,2.06,0,0,1-2.1,1.93,2,2,0,0,1-1.88-2.13,2,2,0,0,1,2-1.85A2,2,0,0,1,172.18,63.72Z"/><path class="cls-2" d="M152.48,62.87a1.95,1.95,0,1,1-1.91,2A2,2,0,0,1,152.48,62.87Z"/><path class="cls-2" d="M163.57,63.4a2.06,2.06,0,0,1,1.94,2.09,2,2,0,0,1-2.11,1.89,1.93,1.93,0,0,1-1.86-2A2,2,0,0,1,163.57,63.4Z"/><path class="cls-2" d="M145.81,68.49a1.94,1.94,0,1,1,2-1.9A2,2,0,0,1,145.81,68.49Z"/><path class="cls-2" d="M156.91,65.14a2.05,2.05,0,0,1,1.94,2.08,2,2,0,0,1-2.12,1.89,1.94,1.94,0,0,1-1.86-2A2,2,0,0,1,156.91,65.14Z"/><path class="cls-2" d="M139.15,70.23a1.94,1.94,0,1,1,2-1.9A2,2,0,0,1,139.15,70.23Z"/><path class="cls-2" d="M150.21,70.86a2,2,0,1,1,2-1.93A2.06,2.06,0,0,1,150.21,70.86Z"/><path class="cls-2" d="M170.32,56.91a1.86,1.86,0,0,1-1.92,2A1.78,1.78,0,0,1,166.58,57a1.87,1.87,0,0,1,3.74-.11Z"/><path class="cls-2" d="M172.21,71.49c-.83-.15-2.09.49-2.06-1.18a2.06,2.06,0,0,1,4.12,0C174.3,72,173,71.35,172.21,71.49Z"/><path class="cls-2" d="M157,60.45a1.8,1.8,0,0,1-1.77,1.88A1.86,1.86,0,1,1,157,60.45Z"/><path class="cls-2" d="M163.65,58.72a1.85,1.85,0,0,1-2,1.87,1.76,1.76,0,0,1-1.71-1.93,1.86,1.86,0,0,1,3.72.06Z"/><path class="cls-2" d="M132.48,71.45c-1.18.24-1.86-.23-1.88-1.46a1.93,1.93,0,0,1,3.85.07C134.39,71.34,133.62,71.67,132.48,71.45Z"/><path class="cls-2" d="M148.47,60.35a1.86,1.86,0,1,1-.11,3.71,1.73,1.73,0,0,1-1.74-1.91A1.75,1.75,0,0,1,148.47,60.35Z"/><path class="cls-2" d="M141.54,65.81A1.8,1.8,0,0,1,139.66,64a1.78,1.78,0,0,1,1.88-1.91,1.71,1.71,0,0,1,1.8,1.83A1.76,1.76,0,0,1,141.54,65.81Z"/><path class="cls-2" d="M136.71,66a1.76,1.76,0,0,1-1.81,1.85,1.71,1.71,0,0,1-1.9-1.74,1.77,1.77,0,0,1,1.86-1.94A1.8,1.8,0,0,1,136.71,66Z"/><path class="cls-2" d="M130,67.82a1.79,1.79,0,0,1-1.94,1.73,1.77,1.77,0,0,1-1.75-2,1.7,1.7,0,0,1,2-1.63A1.75,1.75,0,0,1,130,67.82Z"/><path class="cls-2" d="M123.36,69.53a1.74,1.74,0,0,1-1.77,1.76,1.78,1.78,0,0,1-1.91-1.87,1.72,1.72,0,0,1,1.83-1.8A1.8,1.8,0,0,1,123.36,69.53Z"/><path class="cls-2" d="M119.79,64.56A1.72,1.72,0,0,1,118,62.83a1.68,1.68,0,0,1,1.81-1.78,1.61,1.61,0,0,1,1.66,1.77A1.68,1.68,0,0,1,119.79,64.56Z"/><path class="cls-2" d="M114.59,64.49a1.72,1.72,0,0,1-1.69,1.78,1.69,1.69,0,0,1-1.81-1.78,1.61,1.61,0,0,1,1.74-1.69C113.91,62.79,114.45,63.45,114.59,64.49Z"/><path class="cls-2" d="M167,48.59a1.66,1.66,0,0,1,1.47,1.82,1.7,1.7,0,0,1-1.94,1.66A1.64,1.64,0,0,1,165,50.18,1.76,1.76,0,0,1,167,48.59Z"/><path class="cls-2" d="M161.82,52.14A1.71,1.71,0,0,1,160,53.82,1.69,1.69,0,0,1,158.3,52a1.62,1.62,0,0,1,1.83-1.62A1.69,1.69,0,0,1,161.82,52.14Z"/><path class="cls-2" d="M125.64,65.16a1.7,1.7,0,0,1-1.89,1.72,1.78,1.78,0,0,1,.1-3.55A1.71,1.71,0,0,1,125.64,65.16Z"/><path class="cls-2" d="M132.6,63.27c-.11,1.21-.69,1.89-1.84,1.87a1.78,1.78,0,0,1,0-3.55A1.72,1.72,0,0,1,132.6,63.27Z"/><path class="cls-2" d="M153.2,55.56a1.64,1.64,0,0,1-1.57-1.72,1.7,1.7,0,0,1,1.83-1.78,1.65,1.65,0,0,1,1.67,1.79A1.76,1.76,0,0,1,153.2,55.56Z"/><path class="cls-2" d="M110.56,70.67c-1.13-.08-1.82-.64-1.82-1.79a1.62,1.62,0,0,1,1.8-1.78,1.6,1.6,0,0,1,1.74,1.69A1.7,1.7,0,0,1,110.56,70.67Z"/><path class="cls-2" d="M165.89,54.38a1.79,1.79,0,1,1-3.58-.06,1.67,1.67,0,0,1,1.75-1.72A1.71,1.71,0,0,1,165.89,54.38Z"/><path class="cls-2" d="M139.26,61.56c-.08,1.14-.63,1.84-1.79,1.85a1.78,1.78,0,0,1-.11-3.56A1.7,1.7,0,0,1,139.26,61.56Z"/><path class="cls-2" d="M146.5,53.78a1.76,1.76,0,1,1-.19,3.51,1.63,1.63,0,0,1-1.62-1.83A1.69,1.69,0,0,1,146.5,53.78Z"/><path class="cls-2" d="M106,68a1.65,1.65,0,0,1-1.54-1.73,1.69,1.69,0,0,1,1.82-1.75,1.64,1.64,0,0,1,1.65,1.79A1.75,1.75,0,0,1,106,68Z"/><path class="cls-2" d="M159.23,56.16a1.79,1.79,0,1,1-3.58-.14,1.67,1.67,0,0,1,1.79-1.68A1.72,1.72,0,0,1,159.23,56.16Z"/><path class="cls-2" d="M139.8,59.05a1.76,1.76,0,1,1,0-3.51,1.62,1.62,0,0,1,1.69,1.75C141.51,58.38,140.84,58.92,139.8,59.05Z"/><path class="cls-2" d="M126.48,62.82a1.71,1.71,0,0,1-1.78-1.7,1.68,1.68,0,0,1,1.78-1.81,1.62,1.62,0,0,1,1.7,1.75A1.69,1.69,0,0,1,126.48,62.82Z"/><path class="cls-2" d="M117.15,65.33c1.12.1,1.81.66,1.8,1.82a1.63,1.63,0,0,1-1.83,1.76,1.61,1.61,0,0,1-1.72-1.72A1.7,1.7,0,0,1,117.15,65.33Z"/><path class="cls-2" d="M150.77,56.36a1.75,1.75,0,0,1,1.8,1.82,1.73,1.73,0,0,1-1.86,1.76A1.65,1.65,0,0,1,149,58.2,1.72,1.72,0,0,1,150.77,56.36Z"/><path class="cls-2" d="M92.89,71c-1.07-.09-1.75-.62-1.77-1.71a1.72,1.72,0,1,1,3.44-.08A1.66,1.66,0,0,1,92.89,71Z"/><path class="cls-2" d="M133.23,57.27A1.66,1.66,0,0,1,134.85,59a1.69,1.69,0,0,1-1.78,1.81A1.64,1.64,0,0,1,131.36,59,1.76,1.76,0,0,1,133.23,57.27Z"/><path class="cls-2" d="M101.27,68a1.72,1.72,0,0,1-1.76,1.71,1.68,1.68,0,0,1-1.74-1.83,1.63,1.63,0,0,1,1.79-1.64A1.7,1.7,0,0,1,101.27,68Z"/><path class="cls-2" d="M145.92,59.83c-.08,1.14-.64,1.84-1.79,1.84a1.78,1.78,0,0,1-.1-3.56A1.71,1.71,0,0,1,145.92,59.83Z"/><path class="cls-2" d="M115.88,62c-1.49-.22-2.17-.78-2.14-1.87a1.57,1.57,0,0,1,1.69-1.62c1.08,0,1.83.71,1.65,1.75C117,60.93,116.22,61.51,115.88,62Z"/><path class="cls-2" d="M104.05,61.49c-.42-.64-1.12-1.25-1.21-1.93a1.59,1.59,0,1,1,3.18.07c-.12.68-.84,1.25-1.3,1.87Z"/><path class="cls-2" d="M164.1,47.7c-.12,1-.67,1.74-1.75,1.73a1.71,1.71,0,0,1,0-3.41A1.69,1.69,0,0,1,164.1,47.7Z"/><path class="cls-2" d="M126.59,54.47c-.64.43-1.24,1.13-1.93,1.23a1.6,1.6,0,1,1,.07-3.2c.68.12,1.26.85,1.88,1.31Z"/><path class="cls-2" d="M151.65,45.23c.46.62,1.19,1.2,1.31,1.89a1.61,1.61,0,1,1-3.21.07c.09-.69.79-1.3,1.23-1.95Z"/><path class="cls-2" d="M146.6,49.18c-.62.46-1.2,1.18-1.88,1.31a1.61,1.61,0,1,1-.07-3.21c.69.09,1.29.8,1.94,1.23Z"/><path class="cls-2" d="M101.64,62.16c1.5.2,2.19.75,2.16,1.84a1.57,1.57,0,0,1-1.67,1.64,1.5,1.5,0,0,1-1.67-1.73C100.57,63.22,101.3,62.63,101.64,62.16Z"/><path class="cls-2" d="M122.14,60.19c-1.1-.17-1.78-.73-1.74-1.8a1.7,1.7,0,0,1,3.39,0A1.7,1.7,0,0,1,122.14,60.19Z"/><path class="cls-2" d="M137.45,54.92c-.12,1-.65,1.74-1.73,1.74a1.7,1.7,0,0,1-.09-3.39C136.71,53.22,137.27,53.89,137.45,54.92Z"/><path class="cls-2" d="M90.27,66.93c-.17,1.49-.72,2.18-1.8,2.18a1.56,1.56,0,0,1-1.66-1.64c0-1.07.66-1.84,1.7-1.69C89.2,65.88,89.79,66.6,90.27,66.93Z"/><path class="cls-2" d="M158.68,43.5a7.31,7.31,0,0,1,1.25,1.93c.22.85-.85,1.77-1.74,1.64s-1.69-.78-1.5-1.73c.14-.68.87-1.24,1.34-1.85Z"/><path class="cls-2" d="M155.71,47.72c1,.16,1.73.71,1.69,1.79a1.58,1.58,0,0,1-1.79,1.65A1.56,1.56,0,0,1,154,49.49C154,48.41,154.67,47.86,155.71,47.72Z"/><path class="cls-2" d="M111.38,56c.46.63,1.18,1.2,1.3,1.88a1.59,1.59,0,1,1-3.18.07c.09-.69.79-1.29,1.22-1.93Z"/><path class="cls-2" d="M97,65.28c-.25,1.48-.82,2.15-1.9,2.09a1.57,1.57,0,0,1-1.59-1.71c0-1.07.75-1.82,1.78-1.62C95.93,64.17,96.5,64.92,97,65.28Z"/><path class="cls-2" d="M82.33,70.93c-1.49-.17-2.18-.71-2.18-1.78a1.58,1.58,0,0,1,1.63-1.67,1.49,1.49,0,0,1,1.69,1.69C83.37,69.85,82.66,70.45,82.33,70.93Z"/><path class="cls-2" d="M142.51,55c-1.12-.1-1.82-.63-1.84-1.71a1.71,1.71,0,0,1,3.41-.13A1.71,1.71,0,0,1,142.51,55Z"/><path class="cls-2" d="M137.73,52.53c-.46-.62-1.18-1.2-1.3-1.89a1.6,1.6,0,1,1,3.2-.06c-.09.69-.8,1.3-1.23,1.94Z"/><path class="cls-2" d="M150.78,51.07c-.11,1.11-.64,1.81-1.71,1.83a1.7,1.7,0,0,1-.14-3.4A1.72,1.72,0,0,1,150.78,51.07Z"/><path class="cls-2" d="M166.88,43.73A7.35,7.35,0,0,1,165,45c-.84.22-1.78-.84-1.67-1.72s.77-1.71,1.72-1.52c.68.13,1.25.85,1.87,1.31Z"/><path class="cls-2" d="M108.79,63.94c-1-.13-1.72-.67-1.71-1.74a1.69,1.69,0,0,1,3.38-.05C110.5,63.22,109.83,63.78,108.79,63.94Z"/><path class="cls-2" d="M128.82,55c1,.19,1.7.76,1.63,1.83a1.7,1.7,0,0,1-3.39-.12A1.7,1.7,0,0,1,128.82,55Z"/><path class="cls-2" d="M119.66,56.42c-.62.46-1.2,1.18-1.88,1.3a1.6,1.6,0,1,1-.07-3.19c.68.09,1.29.79,1.93,1.22Z"/><path class="cls-2" d="M131.07,54.27c-.45-.62-1.18-1.2-1.3-1.88a1.6,1.6,0,1,1,3.19-.07c-.09.68-.79,1.29-1.22,1.94Z"/><path class="cls-2" d="M103.92,70.93c-.9,0-1.88.23-1.85-1.15A1.72,1.72,0,0,1,103.9,68a1.65,1.65,0,0,1,1.72,1.73C105.7,71.1,104.75,71,103.92,70.93Z"/><path class="cls-2" d="M99.66,61.63c-.62.46-1.19,1.18-1.87,1.3a1.59,1.59,0,1,1-.07-3.18c.68.09,1.29.79,1.93,1.22Z"/><path class="cls-2" d="M145.91,71.4h-4.67c.48-.85.69-1.7,1.23-2.07a2.17,2.17,0,0,1,1.95-.09C145,69.61,145.31,70.47,145.91,71.4Z"/><path class="cls-2" d="M175.43,67.71c-1.49.44-2.51,0-2.86-1.16s.33-2.14,1.81-2.55Z"/><path class="cls-2" d="M91.37,61.18c.46.62,1.2,1.2,1.31,1.88a1.34,1.34,0,0,1-1.57,1.59,2.28,2.28,0,0,1-1.55-1.48c0-.62.72-1.3,1.13-2Z"/><path class="cls-2" d="M155.78,43.12c-.59.42-1.14,1.11-1.79,1.21-1,.16-1.63-.57-1.6-1.6A1.36,1.36,0,0,1,154,41.27c.65.12,1.2.78,1.8,1.21Z"/><path class="cls-2" d="M72.7,68.93c-.64.43-1.24,1.14-1.92,1.23a1.34,1.34,0,0,1-1.52-1.64A2.27,2.27,0,0,1,70.8,67c.62,0,1.27.77,1.91,1.2Z"/><path class="cls-2" d="M86.32,65.48c-.64.43-1.24,1.12-1.93,1.21a1.59,1.59,0,1,1,.07-3.17c.68.12,1.26.84,1.87,1.29Z"/><path class="cls-2" d="M122.16,52.12c-.59.41-1.15,1.08-1.79,1.18-1,.15-1.61-.58-1.57-1.6a1.35,1.35,0,0,1,1.6-1.44c.64.13,1.18.79,1.77,1.21Z"/><path class="cls-2" d="M77.77,65c.46.63,1.19,1.21,1.3,1.89a1.35,1.35,0,0,1-1.59,1.58A2.26,2.26,0,0,1,76,66.92c0-.61.72-1.29,1.14-2Z"/><path class="cls-2" d="M162.45,41.44c-.64.41-1.3,1.17-1.91,1.12A2.24,2.24,0,0,1,159.1,41a1.3,1.3,0,0,1,1.6-1.51c.64.12,1.17.81,1.75,1.24Z"/><path class="cls-2" d="M146.94,46.35c-.41-.6-1.08-1.17-1.17-1.81-.14-1,.61-1.62,1.63-1.57a1.36,1.36,0,0,1,1.43,1.62c-.13.65-.81,1.19-1.25,1.78Z"/><path class="cls-2" d="M126.71,51.85c-.42-.59-1.1-1.13-1.2-1.77-.17-1,.54-1.62,1.57-1.59s1.63.65,1.46,1.57c-.12.64-.77,1.19-1.18,1.79Z"/><path class="cls-2" d="M142.44,46.65c-.6.4-1.17,1.07-1.82,1.15-1,.13-1.61-.61-1.55-1.63a1.36,1.36,0,0,1,1.63-1.42c.65.14,1.18.82,1.76,1.25Z"/><path class="cls-2" d="M134,46.5c.41.6,1.08,1.16,1.17,1.81.14,1-.61,1.61-1.63,1.56a1.35,1.35,0,0,1-1.42-1.62c.13-.65.81-1.18,1.24-1.77Z"/><path class="cls-2" d="M64.16,70.93a1.31,1.31,0,0,1-1.61-1.4,1.61,1.61,0,1,1,3.22,0A1.31,1.31,0,0,1,64.16,70.93Z"/><path class="cls-2" d="M158,38.78c-.58.39-1.13,1-1.76,1.12a1.18,1.18,0,0,1-1.42-1.47,2.09,2.09,0,0,1,1.38-1.38c.57,0,1.19.64,1.79,1Z"/><path class="cls-2" d="M70.79,62.32c-.56.36-1.09.94-1.7,1a1.18,1.18,0,0,1-1.42-1.47,2.07,2.07,0,0,1,1.41-1.35c.56,0,1.15.7,1.74,1.1Z"/><path class="cls-2" d="M123.08,45.72c.36.57,1,1.1,1,1.71.14,1-.52,1.52-1.5,1.49s-1.59-.67-1.38-1.6c.13-.6.76-1.09,1.17-1.63Z"/><path class="cls-2" d="M93.05,60.8c-.39-.6-1-1.16-1.13-1.81-.14-.93.55-1.52,1.52-1.5s1.64.62,1.47,1.54c-.11.65-.77,1.19-1.18,1.78Z"/><path class="cls-2" d="M94.3,54.32c.56-.38,1.08-1,1.68-1.08.94-.16,1.53.47,1.52,1.45S96.88,56.3,96,56.11c-.6-.11-1.1-.72-1.65-1.11Z"/><path class="cls-2" d="M73,66c-.38-.6-1-1.18-1.08-1.82-.13-.94.57-1.5,1.53-1.47s1.62.65,1.43,1.57c-.12.63-.78,1.16-1.2,1.74Z"/><path class="cls-2" d="M172.63,57.53l.89,3.44c-1.3.44-2.22,0-2.57-1.13S171.19,57.85,172.63,57.53Z"/><path class="cls-2" d="M56.16,63.7c.36.57.93,1.1,1,1.72.14.88-.49,1.43-1.4,1.44s-1.63-.59-1.45-1.54c.12-.6.74-1.1,1.14-1.65Z"/><path class="cls-2" d="M106.76,57.06c-.43-.58-1.11-1.11-1.23-1.74-.18-1,.51-1.61,1.53-1.61s1.63.62,1.48,1.53c-.11.65-.73,1.2-1.13,1.8Z"/><path class="cls-2" d="M150,38.75c.38.59,1,1.16,1.07,1.79a1.18,1.18,0,0,1-1.51,1.38,2.06,2.06,0,0,1-1.34-1.42c0-.56.68-1.17,1.06-1.76Z"/><path class="cls-2" d="M114.1,51.74c.39.6,1,1.18,1.1,1.82.12,1-.63,1.57-1.64,1.5a1.33,1.33,0,0,1-1.37-1.63c.15-.63.82-1.15,1.26-1.72Z"/><path class="cls-2" d="M75.34,61.89c-.35-.57-.93-1.1-1-1.71a1.18,1.18,0,0,1,1.47-1.41,2.06,2.06,0,0,1,1.34,1.4c0,.57-.69,1.16-1.09,1.74Z"/><path class="cls-2" d="M80.71,57.75c.56-.36,1.1-.94,1.7-1,1-.13,1.51.53,1.47,1.5s-.67,1.57-1.59,1.36c-.6-.13-1.08-.76-1.61-1.17Z"/><path class="cls-2" d="M101,52.59c.56-.38,1.07-1,1.67-1.09,1-.17,1.54.46,1.54,1.45s-.61,1.61-1.55,1.43c-.6-.12-1.11-.72-1.66-1.11Z"/><path class="cls-2" d="M116.36,50.9c-1.31-.3-2-.85-1.77-1.77A2.23,2.23,0,0,1,116,47.75a1.19,1.19,0,0,1,1.43,1.48C117.34,49.83,116.74,50.35,116.36,50.9Z"/><path class="cls-2" d="M43.86,69.52c-.57.37-1.09,1-1.7,1.07-.87.16-1.45-.45-1.47-1.37s.54-1.64,1.5-1.48c.6.1,1.12.71,1.67,1.09Z"/><path class="cls-2" d="M129.33,47.44c-.4-.58-1-1.12-1.14-1.76-.18-.87.46-1.44,1.38-1.47s1.65.53,1.5,1.49c-.09.61-.67,1.15-1,1.72Z"/><path class="cls-2" d="M163.6,35c.38.6,1,1.16,1.08,1.79a1.19,1.19,0,0,1-1.52,1.39,2.1,2.1,0,0,1-1.34-1.42c0-.57.68-1.18,1.07-1.77Z"/><path class="cls-2" d="M61.6,68.31c-.59.41-1.12,1-1.76,1.18-.93.17-1.53-.49-1.55-1.46s.55-1.65,1.49-1.51c.64.09,1.2.71,1.8,1.1Z"/><path class="cls-2" d="M142.58,44c-.38-.6-1-1.16-1.07-1.79A1.18,1.18,0,0,1,143,40.79a2.09,2.09,0,0,1,1.34,1.41c0,.57-.68,1.17-1.07,1.76Z"/><path class="cls-2" d="M53.57,68c.37.61,1,1.2,1.06,1.84a1.22,1.22,0,0,1-1.58,1.37,2.14,2.14,0,0,1-1.33-1.47c0-.58.73-1.18,1.14-1.76Z"/><path class="cls-2" d="M66.85,64.5c.39.59,1,1.15,1.11,1.8.15.93-.54,1.5-1.5,1.49s-1.63-.61-1.46-1.54c.11-.64.76-1.18,1.16-1.76Z"/><path class="cls-2" d="M89.69,54.69c.38.59,1.09,1.19,1.06,1.76a2.09,2.09,0,0,1-1.36,1.39,1.19,1.19,0,0,1-1.46-1.45c.1-.6.69-1.13,1-1.69Z"/><path class="cls-2" d="M50.51,67.53a5.54,5.54,0,0,1-1.72,1c-.88.14-1.44-.49-1.44-1.4s.59-1.63,1.53-1.45c.6.12,1.1.74,1.65,1.14Z"/><path class="cls-2" d="M79.84,64.29c-.43-.57-1.1-1.1-1.24-1.73C78.41,61.64,79.06,61,80,61s1.67.51,1.56,1.45c-.09.65-.7,1.23-1.07,1.85Z"/><path class="cls-2" d="M87,59c.42.58,1.08,1.11,1.21,1.75.19.93-.47,1.55-1.44,1.58s-1.68-.54-1.55-1.48c.09-.65.71-1.23,1.09-1.83Z"/><path class="cls-2" d="M111.08,50.85c-.3,1.31-.85,2-1.77,1.78a2.23,2.23,0,0,1-1.38-1.43,1.19,1.19,0,0,1,1.47-1.44C110,49.87,110.52,50.47,111.08,50.85Z"/><path class="cls-2" d="M101.86,57.67c-.59.39-1.16,1-1.8,1.12-1,.13-1.58-.61-1.52-1.62a1.32,1.32,0,0,1,1.61-1.39c.64.14,1.16.8,1.73,1.23Z"/><path class="cls-2" d="M138,44.38c-.57.36-1.11.94-1.72,1-1,.14-1.52-.53-1.48-1.51s.68-1.59,1.61-1.38c.6.13,1.08.77,1.62,1.18Z"/><path class="cls-2" d="M64.12,64.08a5.7,5.7,0,0,1-1.73,1c-.89.13-1.44-.51-1.43-1.42s.61-1.63,1.55-1.44c.6.12,1.1.76,1.64,1.16Z"/><path class="cls-2" d="M77.64,70.85H74.41a1.64,1.64,0,0,1,1.44-2.19C76.89,68.48,77.56,69.28,77.64,70.85Z"/><path class="cls-2" d="M32.77,68.71c-.59.33-1.22,1-1.76.92s-1.3-1-1.2-1.38A2.11,2.11,0,0,1,31.29,67c.45,0,1,.73,1.5,1.14Z"/><path class="cls-2" d="M127,43.78c-.57.35-1.21,1-1.71,1a2,2,0,0,1-1.3-1.41A2,2,0,0,1,125.35,42c.51,0,1.09.7,1.63,1.09Z"/><path class="cls-2" d="M98.64,48.66c.38.55,1.12,1.16,1,1.66a2.06,2.06,0,0,1-1.4,1.36c-.38.06-1.26-.79-1.3-1.28s.62-1.15,1-1.73Z"/><path class="cls-2" d="M46.41,65.14c-.56.37-1.17,1.09-1.67,1a2,2,0,0,1-1.32-1.42c-.06-.38.8-1.24,1.29-1.27s1.13.64,1.7,1Z"/><path class="cls-2" d="M160.58,34.71c-.55.38-1.07,1-1.68,1.1-.87.16-1.44-.47-1.46-1.38s.53-1.56,1.41-1.44c.61.09,1.15.67,1.72,1Z"/><path class="cls-2" d="M120.28,45.51c-.57.35-1.2,1.05-1.7,1s-.94-.9-1.41-1.41c.5-.46,1-1.25,1.51-1.3s1.08.7,1.63,1.09Z"/><path class="cls-2" d="M73.07,57.85c-.55.39-1.14,1.13-1.64,1.07a2,2,0,0,1-1.36-1.39c-.07-.38.77-1.26,1.26-1.3s1.14.61,1.72,1Z"/><path class="cls-2" d="M39.74,66.91c-.58.36-1.19,1-1.73,1s-1.33-1-1.25-1.33a2.1,2.1,0,0,1,1.44-1.34c.44-.07,1,.69,1.53,1.08Z"/><path class="cls-2" d="M153.9,36.51c-.57.36-1.19,1.07-1.69,1s-1-.9-1.44-1.39c.49-.48.95-1.27,1.49-1.33s1.1.67,1.65,1Z"/><path class="cls-2" d="M93.34,52.74c-.57.35-1.21,1.06-1.71,1a2.07,2.07,0,0,1-1.29-1.47c0-.38.85-1.22,1.34-1.23s1.12.67,1.68,1Z"/><path class="cls-2" d="M131.67,43c-.39-.54-1.12-1.12-1.08-1.62s.84-1,1.3-1.52c.5.47,1.32.88,1.41,1.41s-.61,1.13-1,1.71Z"/><path class="cls-2" d="M78.74,54.18c.35.58,1.05,1.22,1,1.72a2.05,2.05,0,0,1-1.47,1.28c-.38,0-1.21-.86-1.22-1.35s.67-1.12,1.06-1.67Z"/><path class="cls-2" d="M57.74,63c-.37-.57-1.08-1.19-1-1.69A2,2,0,0,1,58.17,60c.38,0,1.23.82,1.26,1.31s-.65,1.13-1,1.69Z"/><path class="cls-2" d="M105.4,46.94c.35.57,1,1.2,1,1.7a2,2,0,0,1-1.41,1.3,2,2,0,0,1-1.3-1.41c0-.51.7-1.08,1.09-1.62Z"/><path class="cls-2" d="M113.64,47.16c-.55.38-1.14,1.11-1.64,1.05s-1.38-.85-1.38-1.33a2,2,0,0,1,1.32-1.38c.51-.07,1.13.63,1.69,1Z"/><path class="cls-2" d="M147.26,38.15c-.55.4-1.13,1.13-1.64,1.09a2,2,0,0,1-1.41-1.31,1.94,1.94,0,0,1,1.31-1.41c.5-.09,1.14.61,1.71,1Z"/><path class="cls-2" d="M140.28,40c-.58.36-1.21,1.05-1.71,1s-.95-.91-1.42-1.41c.51-.47,1-1.26,1.52-1.3s1.09.69,1.63,1.08Z"/><path class="cls-2" d="M51.09,64.74c-.37-.56-1.09-1.17-1-1.67a2.06,2.06,0,0,1,1.42-1.33c.38-.06,1.25.81,1.27,1.3s-.63,1.13-1,1.7Z"/><path class="cls-2" d="M66.39,59.7c-.58.35-1.22,1-1.71.95a2,2,0,0,1-1.27-1.47c0-.38.86-1.2,1.35-1.21s1.1.68,1.65,1.06Z"/><path class="cls-2" d="M85.43,52.45c.34.58,1,1.24.94,1.73a2.07,2.07,0,0,1-1.5,1.26c-.38,0-1.2-.88-1.2-1.37s.69-1.1,1.09-1.65Z"/><path class="cls-2" d="M156.3,71.42h-4a1.83,1.83,0,0,1,1.87-1.93C155.38,69.42,156,70.17,156.3,71.42Z"/><path class="cls-2" d="M33.69,62.25c.68.92,1.38,1.46,1.34,1.94a1.82,1.82,0,0,1-1.25,1.32,1.84,1.84,0,0,1-1.32-1.25C32.39,63.79,33.07,63.2,33.69,62.25Z"/><path class="cls-2" d="M136.55,37.37c-.94.62-1.56,1.35-2,1.24s-.95-.93-1.41-1.44c.5-.42,1-1.17,1.49-1.19S135.66,36.68,136.55,37.37Z"/><path class="cls-2" d="M94.25,50c-.63-.92-1.32-1.48-1.27-2s.81-.94,1.27-1.41c.48.48,1.24.92,1.34,1.48S94.91,49.11,94.25,50Z"/><path class="cls-2" d="M127.66,41c-.68-.89-1.45-1.47-1.37-1.9s.86-1,1.34-1.5c.46.47,1.23.9,1.29,1.41S128.28,40.1,127.66,41Z"/><path class="cls-2" d="M76,53.18c-.92.68-1.47,1.39-2,1.35s-1-.82-1.43-1.27c.45-.47.86-1.26,1.37-1.33S75.06,52.55,76,53.18Z"/><path class="cls-2" d="M122.92,40.88c-.93.6-1.57,1.32-2,1.21s-.94-.94-1.39-1.46c.5-.42,1-1.15,1.51-1.17S122.05,40.18,122.92,40.88Z"/><path class="cls-2" d="M100.91,48.26c-.63-.92-1.32-1.48-1.27-2s.82-.94,1.27-1.41c.48.49,1.24.92,1.35,1.48S101.58,47.37,100.91,48.26Z"/><path class="cls-2" d="M67.3,53.26c.67.92,1.39,1.47,1.35,2s-.81,1-1.27,1.44c-.47-.45-1.26-.86-1.33-1.37S66.67,54.21,67.3,53.26Z"/><path class="cls-2" d="M49.06,60.42c-.92.67-1.46,1.38-1.94,1.34s-.95-.81-1.42-1.25c.44-.47.84-1.25,1.35-1.32S48.11,59.79,49.06,60.42Z"/><path class="cls-2" d="M143.22,35.5c-.9.69-1.48,1.46-1.91,1.38s-1-.87-1.51-1.35c.47-.46.91-1.24,1.42-1.29S142.29,34.87,143.22,35.5Z"/><path class="cls-2" d="M62.68,57.05c-1,.62-1.54,1.31-2,1.24s-.91-.86-1.36-1.33c.47-.45.92-1.21,1.43-1.26S61.76,56.37,62.68,57.05Z"/><path class="cls-2" d="M116.26,42.49c-.9.66-1.49,1.41-1.92,1.33s-1-.88-1.46-1.36c.47-.45.91-1.21,1.42-1.26S115.35,41.85,116.26,42.49Z"/><path class="cls-2" d="M149.87,33.43c-.87.7-1.44,1.48-1.87,1.42s-1-.85-1.53-1.32c.46-.47.87-1.25,1.38-1.32S148.93,32.82,149.87,33.43Z"/><path class="cls-2" d="M89.35,49.7c-.93.68-1.49,1.4-2,1.36s-1-.82-1.44-1.27c.45-.48.87-1.27,1.38-1.34S88.39,49.07,89.35,49.7Z"/><path class="cls-2" d="M80.72,53.49c-.67-.92-1.39-1.47-1.34-2s.81-1,1.26-1.43c.47.45,1.26.86,1.33,1.37S81.35,52.54,80.72,53.49Z"/><path class="cls-2" d="M163.21,30c-.91.67-1.51,1.43-2,1.34s-1-.9-1.47-1.39c.48-.45.93-1.22,1.45-1.26S162.29,29.39,163.21,30Z"/><path class="cls-2" d="M156.54,31.71c-.88.7-1.46,1.47-1.89,1.4s-1-.86-1.52-1.33c.46-.47.89-1.25,1.4-1.31S155.61,31.09,156.54,31.71Z"/><path class="cls-2" d="M109.59,44.26c-.9.64-1.5,1.38-1.93,1.3s-1-.89-1.45-1.39c.48-.44.94-1.19,1.45-1.23S108.69,43.6,109.59,44.26Z"/><path class="cls-2" d="M55.72,58.79c-.95.62-1.53,1.3-2,1.23s-.91-.85-1.35-1.32c.47-.45.91-1.21,1.42-1.25S54.8,58.11,55.72,58.79Z"/><path class="cls-2" d="M24.75,68.38c.38.55,1.08,1.12,1.06,1.67S25,71,24.53,71.46C24,71,23.26,70.55,23.14,70s.64-1,1-1.58Z"/><path class="cls-2" d="M113,71.42c.06-1.41.69-2.08,1.89-2s1.73.8,1.74,2Z"/><path class="cls-2" d="M36.32,70.67l-1.47-1.51c.51-.47,1-1.3,1.51-1.29s1,.84,1.35,1.42C37.78,69.41,37,70,36.32,70.67Z"/><path class="cls-2" d="M168.9,44.26c.32,1.1.61,2.12.92,3.21a1.59,1.59,0,0,1-2.36-.81C167,45.68,167.45,44.87,168.9,44.26Z"/><path class="cls-2" d="M143.61,33.05c-.63-.77-1.37-1.28-1.32-1.69s.76-1,1.18-1.48c.47.45,1.2.84,1.31,1.36S144.18,32.22,143.61,33.05Z"/><path class="cls-2" d="M98.44,43.59c-.81.64-1.28,1.31-1.74,1.3s-.92-.7-1.39-1.09c.43-.48.78-1.21,1.3-1.34S97.58,43,98.44,43.59Z"/><path class="cls-2" d="M21.69,68c-.54.35-1.14,1-1.61.95a2,2,0,0,1-1.22-1.39c0-.36.81-1.16,1.27-1.16s1.05.64,1.57,1Z"/><path class="cls-2" d="M15,69.75c-.53.36-1.12,1-1.59,1a1.92,1.92,0,0,1-1.23-1.36c-.06-.35.77-1.17,1.23-1.18s1.06.62,1.59,1Z"/><path class="cls-2" d="M138.79,33c-.93.59-1.48,1.21-2,1.17s-1.24-.89-1.17-1.22A2,2,0,0,1,137,31.71C137.36,31.64,137.9,32.35,138.79,33Z"/><path class="cls-2" d="M152.41,29.61c-.95.55-1.52,1.16-2,1.11s-1.23-.94-1.14-1.26a2,2,0,0,1,1.37-1.23C151,28.18,151.54,28.91,152.41,29.61Z"/><path class="cls-2" d="M91.78,45.51c-.87.55-1.46,1.21-1.85,1.11s-.86-.87-1.27-1.35c.46-.39.92-1.06,1.39-1.07S91,44.86,91.78,45.51Z"/><path class="cls-2" d="M103.28,40.09c.6.84,1.3,1.4,1.21,1.79s-.84.92-1.3,1.36c-.41-.45-1.11-.88-1.15-1.36S102.67,40.92,103.28,40.09Z"/><path class="cls-2" d="M130.17,32.87c.61.78,1.33,1.3,1.27,1.71s-.77,1-1.2,1.43c-.45-.45-1.16-.86-1.27-1.38S129.58,33.68,130.17,32.87Z"/><path class="cls-2" d="M78.16,49.27c-.87.56-1.46,1.21-1.84,1.11s-.86-.87-1.27-1.35c.46-.38.91-1.05,1.39-1.06S77.36,48.63,78.16,49.27Z"/><path class="cls-2" d="M170.67,50.79c.37,1.22.7,2.32,1.05,3.52-1.18.3-2,0-2.34-1S169.4,51.44,170.67,50.79Z"/><path class="cls-2" d="M123.64,34.59c.56.86,1.24,1.46,1.13,1.85s-.88.87-1.37,1.29c-.39-.47-1.07-.93-1.08-1.41S123,35.38,123.64,34.59Z"/><path class="cls-2" d="M28.66,66.25c-.53.36-1.1,1.07-1.58,1a2,2,0,0,1-1.27-1.35c-.06-.36.76-1.19,1.22-1.22s1.08.61,1.62,1Z"/><path class="cls-2" d="M157.08,29.37c-.59-.92-1.22-1.48-1.18-2s.9-1.25,1.23-1.17a2,2,0,0,1,1.26,1.33C158.46,28,157.75,28.48,157.08,29.37Z"/><path class="cls-2" d="M42,62.55c-.55.34-1.11,1-1.64.94s-1.27-.87-1.21-1.23a1.94,1.94,0,0,1,1.29-1.33c.48-.06,1,.65,1.57,1Z"/><path class="cls-2" d="M118.79,38.59c-.94.55-1.51,1.15-2,1.1s-1.21-.93-1.13-1.25A2,2,0,0,1,117,37.23C117.42,37.17,117.93,37.89,118.79,38.59Z"/><path class="cls-2" d="M83.19,49.27c-.56-.87-1.22-1.45-1.12-1.84s.87-.86,1.34-1.28c.39.46,1.07.91,1.08,1.39S83.84,48.46,83.19,49.27Z"/><path class="cls-2" d="M108.08,40.18c.84-.6,1.41-1.3,1.8-1.21s.92.84,1.37,1.3c-.46.42-.89,1.12-1.37,1.16S108.92,40.8,108.08,40.18Z"/><path class="cls-2" d="M99.17,41.07c-.55-.83-1.13-1.31-1.08-1.73s.69-.81,1.08-1.22c.42.43,1.07.8,1.17,1.29S99.76,40.28,99.17,41.07Z"/><path class="cls-2" d="M154.6,25.15c-.86.59-1.38,1.21-1.75,1.13s-.86-.77-1.27-1.19c.4-.4.79-1.09,1.2-1.11S153.74,24.56,154.6,25.15Z"/><path class="cls-2" d="M31.27,61.57c-.9.63-1.42,1.28-1.85,1.23a1.79,1.79,0,0,1-1.18-1.22c-.06-.32.67-1.09,1.09-1.12S30.33,61,31.27,61.57Z"/><path class="cls-2" d="M147.94,26.9c-.86.58-1.39,1.2-1.76,1.11s-.85-.77-1.26-1.19c.4-.39.79-1.08,1.2-1.09S147.08,26.31,147.94,26.9Z"/><path class="cls-2" d="M58.19,54.37c-.87.61-1.38,1.25-1.82,1.2s-1.2-.74-1.2-1.17.7-1.13,1.17-1.2S57.3,53.77,58.19,54.37Z"/><path class="cls-2" d="M141.27,28.64c-.86.57-1.39,1.19-1.75,1.1s-.84-.76-1.26-1.18c.4-.39.79-1.08,1.2-1.09S140.41,28.05,141.27,28.64Z"/><path class="cls-2" d="M17.93,65.14c-.92.58-1.47,1.2-1.89,1.13A1.8,1.8,0,0,1,14.92,65c-.05-.32.73-1,1.14-1.06S17,64.52,17.93,65.14Z"/><path class="cls-2" d="M63.08,50.8c.57.91,1.18,1.45,1.11,1.89s-.8.82-1.24,1.23c-.4-.44-1.09-.86-1.13-1.33S62.44,51.66,63.08,50.8Z"/><path class="cls-2" d="M107.62,37.65c-.83.54-1.32,1.11-1.74,1.06s-.81-.7-1.21-1.09c.43-.41.81-1.06,1.3-1.16S106.83,37.05,107.62,37.65Z"/><path class="cls-2" d="M159.46,21.59c.6.86,1.23,1.37,1.15,1.75a1.87,1.87,0,0,1-1.2,1.19c-.29.07-1.08-.69-1.09-1.1S158.89,22.46,159.46,21.59Z"/><path class="cls-2" d="M37.94,59.89c-.93.61-1.46,1.24-1.9,1.17a1.8,1.8,0,0,1-1.14-1.25c-.06-.32.71-1.08,1.13-1.09S37,59.28,37.94,59.89Z"/><path class="cls-2" d="M134.26,30.72c-.81.53-1.34,1.14-1.7,1.05s-.84-.77-1.25-1.19c.45-.39.86-1,1.35-1.08S133.51,30.11,134.26,30.72Z"/><path class="cls-2" d="M112.6,34.1c.54.83,1.12,1.33,1.06,1.75s-.7.8-1.09,1.2c-.41-.42-1.07-.81-1.16-1.29S112,34.89,112.6,34.1Z"/><path class="cls-2" d="M94,41.33c-.81.58-1.32,1.22-1.68,1.15s-.85-.76-1.27-1.18c.41-.38.79-1,1.23-1.07S93.19,40.77,94,41.33Z"/><path class="cls-2" d="M24.6,63.37c-.92.6-1.45,1.23-1.88,1.16a1.8,1.8,0,0,1-1.14-1.25c0-.32.71-1.07,1.13-1.08S23.68,62.76,24.6,63.37Z"/><path class="cls-2" d="M42.93,60c-.56-.91-1.16-1.45-1.09-1.89A1.67,1.67,0,0,1,43.07,57c.42,0,1.09.76,1.13,1.23S43.57,59.15,42.93,60Z"/><path class="cls-2" d="M119.12,35.84c-.53-.8-1.14-1.33-1.05-1.7s.77-.83,1.19-1.24c.38.45,1,.86,1.07,1.35S119.72,35.09,119.12,35.84Z"/><path class="cls-2" d="M49.76,54.57c.56.9,1.17,1.45,1.1,1.89a1.68,1.68,0,0,1-1.23,1.13,1.71,1.71,0,0,1-1.14-1.24C48.46,55.91,49.12,55.42,49.76,54.57Z"/><path class="cls-2" d="M71.52,51c-.91.57-1.46,1.18-1.9,1.11a1.72,1.72,0,0,1-1.13-1.24,1.7,1.7,0,0,1,1.24-1.13C70.17,49.69,70.66,50.35,71.52,51Z"/><path class="cls-2" d="M11.28,67.15c-.93.59-1.47,1.22-1.9,1.15A1.82,1.82,0,0,1,8.25,67C8.2,66.72,9,66,9.39,66S10.36,66.54,11.28,67.15Z"/><path class="cls-2" d="M125.82,34.16c-.55-.88-1.12-1.39-1.09-1.85s.82-1.14,1.11-1.07A1.88,1.88,0,0,1,127,32.46C127.06,32.83,126.43,33.33,125.82,34.16Z"/><path class="cls-2" d="M167.14,37.93c.18.64.37,1.26.52,1.9a7.14,7.14,0,0,1,.08.92c-.37,0-.88.18-1.07,0-.41-.4-.94-1-.91-1.46s.61-1.07,1-1.61Z"/><path class="cls-2" d="M167,71.4H163.5l-.2-.39c.61-.33,1.21-.91,1.82-.92a6.1,6.1,0,0,1,2.08.78Z"/><path class="cls-2" d="M48,70.85h-3c-.13-1.09.37-1.65,1.33-1.72S48,69.63,48,70.85Z"/><path class="cls-2" d="M108.27,35.24c-.59-.81-1.2-1.28-1.15-1.68a1.62,1.62,0,0,1,1.11-1.1c.29-.06,1,.61,1,1S108.78,34.38,108.27,35.24Z"/><path class="cls-2" d="M31.92,59c-.53-.87-1.09-1.39-1-1.79s.76-.76,1.17-1.13c.37.41,1,.8,1,1.24S32.53,58.22,31.92,59Z"/><path class="cls-2" d="M42.63,51.54c-.8.51-1.28,1-1.72,1s-1-.79-1-1a1.74,1.74,0,0,1,1.16-1.07C41.43,50.37,41.89,51,42.63,51.54Z"/><path class="cls-2" d="M74.66,40.85c.5.82,1,1.31,1,1.75s-.81,1.06-1.07,1a1.75,1.75,0,0,1-1.07-1.18C73.46,42.06,74.08,41.6,74.66,40.85Z"/><path class="cls-2" d="M144.45,21.79c-.54-.73-1.11-1.16-1.08-1.54s.64-.76,1-1.14c.38.35,1,.67,1.07,1.07S145,21,144.45,21.79Z"/><path class="cls-2" d="M87.34,43c-.78.61-1.27,1.27-1.63,1.21s-.88-.73-1.31-1.13c.39-.39.74-1,1.18-1.11S86.5,42.47,87.34,43Z"/><path class="cls-2" d="M159.32,16.78c-.77.5-1.24,1-1.62,1s-.72-.69-1.08-1.07c.38-.35.74-1,1.15-1S158.59,16.24,159.32,16.78Z"/><path class="cls-2" d="M155.22,19.05c.51.89,1.07,1.43,1,1.82a1.65,1.65,0,0,1-1.23,1c-.29,0-.95-.72-.94-1.1S154.61,19.87,155.22,19.05Z"/><path class="cls-2" d="M21.07,58.31c-.56-.71-1.18-1.17-1.12-1.5S20.64,56,21,55.58c.37.37,1,.71,1,1.12S21.57,57.55,21.07,58.31Z"/><path class="cls-2" d="M53.72,52c-.77.61-1.26,1.26-1.61,1.2s-.87-.72-1.3-1.12c.39-.39.74-1,1.17-1.1S52.89,51.46,53.72,52Z"/><path class="cls-2" d="M15.94,58.48c-.74.51-1.19,1.06-1.58,1s-.77-.65-1.15-1c.4-.39.75-1,1.21-1.1S15.22,57.94,15.94,58.48Z"/><path class="cls-2" d="M5,66.26c-.52-.86-1.08-1.38-1-1.78s.75-.75,1.16-1.13c.37.42,1,.81,1,1.24S5.58,65.46,5,66.26Z"/><path class="cls-2" d="M116.56,31.51c-.84.55-1.33,1.13-1.73,1.07a1.68,1.68,0,0,1-1-1.16c0-.29.66-1,1-1S115.73,31,116.56,31.51Z"/><path class="cls-2" d="M103.21,35.37c-.85.49-1.35,1-1.79,1s-1-.83-1-1.09a1.75,1.75,0,0,1,1.2-1C102,34.15,102.46,34.77,103.21,35.37Z"/><path class="cls-2" d="M60.39,50.25c-.78.61-1.27,1.26-1.63,1.19s-.86-.72-1.29-1.13c.39-.39.75-1,1.18-1.09S59.56,49.73,60.39,50.25Z"/><path class="cls-2" d="M151,16.88c.55.73,1.12,1.16,1.08,1.55a1.46,1.46,0,0,1-1,1.06,1.47,1.47,0,0,1-1.07-1C150,18.11,150.52,17.64,151,16.88Z"/><path class="cls-2" d="M69.59,44.23c-.79.54-1.25,1.1-1.69,1.09s-.74-.66-1.11-1c.39-.4.73-1,1.19-1.11S68.81,43.69,69.59,44.23Z"/><path class="cls-2" d="M25.1,61.06c-.59-.83-1.19-1.3-1.15-1.71s.69-.81,1.08-1.22c.4.39,1.07.73,1.13,1.17S25.65,60.2,25.1,61.06Z"/><path class="cls-2" d="M79,46.56c-.62-.77-1.28-1.25-1.22-1.61s.72-.88,1.12-1.31c.4.38,1,.73,1.11,1.17S79.55,45.73,79,46.56Z"/><path class="cls-2" d="M123.52,29.85c-.87.51-1.4,1.08-1.79,1a1.64,1.64,0,0,1-1-1.21c0-.29.71-.95,1.09-.95S122.71,29.25,123.52,29.85Z"/><path class="cls-2" d="M95,35.34c.47.85,1,1.35.93,1.8s-.84,1-1.1.94a1.78,1.78,0,0,1-1-1.22C93.76,36.51,94.39,36.07,95,35.34Z"/><path class="cls-2" d="M40.42,55.64c-.87.52-1.39,1.09-1.8,1a1.58,1.58,0,0,1-1-1.16,1.59,1.59,0,0,1,1.16-1.05C39.15,54.41,39.61,55,40.42,55.64Z"/><path class="cls-2" d="M49.56,49.56c-.77.49-1.3,1.06-1.63,1s-.75-.78-1.12-1.21c.41-.33.82-.91,1.24-.92S48.85,49,49.56,49.56Z"/><path class="cls-2" d="M7.48,61.77c-.56-.69-1.19-1.14-1.14-1.47s.67-.83,1-1.24c.37.36,1,.69,1,1.1S8,61,7.48,61.77Z"/><path class="cls-2" d="M61.24,47.63c-.52-.79-1.06-1.26-1-1.71s.78-1.06,1-1a1.74,1.74,0,0,1,1.09,1.14C62.4,46.41,61.8,46.88,61.24,47.63Z"/><path class="cls-2" d="M29.27,55c-.75.5-1.26,1.09-1.59,1s-.77-.75-1.15-1.16c.4-.34.79-.93,1.21-1S28.56,54.47,29.27,55Z"/><path class="cls-2" d="M34.38,54.84c-.55-.72-1.17-1.18-1.11-1.52s.7-.82,1.09-1.22c.36.37,1,.72,1,1.13S34.88,54.09,34.38,54.84Z"/><path class="cls-2" d="M130.19,28c-.84.57-1.33,1.16-1.73,1.11A1.65,1.65,0,0,1,127.39,28c0-.29.65-1,1-1S129.34,27.46,130.19,28Z"/><path class="cls-2" d="M74,46.48c-.78.61-1.27,1.26-1.63,1.2s-.87-.72-1.3-1.12c.39-.4.74-1.05,1.18-1.11S73.17,46,74,46.48Z"/><path class="cls-2" d="M18.48,62.79c-.6-.81-1.21-1.26-1.19-1.67s.67-.83,1-1.25c.42.38,1.09.7,1.16,1.13S19,61.92,18.48,62.79Z"/><path class="cls-2" d="M11.67,61.05c.59.82,1.19,1.28,1.16,1.69a1.61,1.61,0,0,1-1.06,1.14,1.6,1.6,0,0,1-1.14-1.06C10.57,62.41,11.14,61.9,11.67,61.05Z"/><path class="cls-2" d="M148.39,20.79c.59.83,1.19,1.31,1.15,1.71a1.7,1.7,0,0,1-1.12,1.11c-.3.06-1-.62-1-1S147.86,21.67,148.39,20.79Z"/><path class="cls-2" d="M88.09,40.41c-.48-.84-1-1.34-1-1.79s.83-1,1.1-.94a1.75,1.75,0,0,1,1,1.2C89.32,39.23,88.7,39.67,88.09,40.41Z"/><path class="cls-2" d="M136.86,26.27c-.84.57-1.34,1.16-1.74,1.1a1.69,1.69,0,0,1-1.07-1.15c-.05-.29.65-1,1-1S136,25.72,136.86,26.27Z"/><path class="cls-2" d="M81.14,42.14c-.48-.83-1-1.33-1-1.78s.83-1,1.09-.94a1.74,1.74,0,0,1,1,1.2C82.36,41,81.74,41.41,81.14,42.14Z"/><path class="cls-2" d="M47.08,53.72c-.81.61-1.27,1.22-1.68,1.19s-.83-.67-1.25-1c.38-.41.7-1.09,1.14-1.17S46.21,53.19,47.08,53.72Z"/><path class="cls-2" d="M65.53,46.58c.6.78,1.26,1.26,1.19,1.62s-.72.87-1.13,1.29c-.39-.39-1-.74-1.09-1.18S65,47.41,65.53,46.58Z"/><path class="cls-2" d="M141.89,22.82c.52.89,1.07,1.42,1,1.82a1.69,1.69,0,0,1-1.23,1c-.29,0-1-.72-.94-1.11S141.28,23.64,141.89,22.82Z"/><path class="cls-2" d="M56.25,47.67c-.77.56-1.21,1.12-1.65,1.12s-.76-.64-1.13-1c.38-.4.7-1,1.16-1.13S55.46,47.15,56.25,47.67Z"/><path class="cls-2" d="M3.29,56.39c.5.69,1,1.09,1,1.44a1.37,1.37,0,0,1-.92,1,1.34,1.34,0,0,1-1-.92C2.34,57.53,2.83,57.1,3.29,56.39Z"/><path class="cls-2" d="M9.9,57.6C9.47,56.87,9,56.42,9,56.07s.66-.64,1-1c.32.36.86.71.88,1.08S10.43,56.93,9.9,57.6Z"/><path class="cls-2" d="M18.1,54.31c-.62.51-1,1-1.35,1s-.74-.54-1.11-.84c.33-.38.61-1,1-1.08S17.42,53.87,18.1,54.31Z"/><path class="cls-2" d="M124.14,71.39c1.13-1.64,2.39-1.62,3.4,0Z"/><path class="cls-2" d="M23.41,53.83c-.52-.66-1.06-1-1-1.4s.57-.73.89-1.09c.36.32.94.6,1,1S23.85,53.11,23.41,53.83Z"/><path class="cls-2" d="M8.11,71.42H5.59l-.28-.35c.46-.4.87-1,1.39-1.15C7.56,69.75,8.1,70.33,8.11,71.42Z"/><path class="cls-2" d="M29.9,49.18c.51.62,1.05,1,1,1.35s-.53.74-.83,1.11c-.39-.33-1-.61-1.09-1S29.46,49.85,29.9,49.18Z"/><path class="cls-2" d="M135.84,22c.75-.57,1.16-1.1,1.58-1.12s1.07.6,1,.88a1.58,1.58,0,0,1-.92,1.16C137.16,23,136.66,22.52,135.84,22Z"/><path class="cls-2" d="M37,47.43c.47.66,1,1.11.95,1.41s-.68.73-1,1.08c-.32-.36-.86-.71-.89-1.08S36.46,48.08,37,47.43Z"/><path class="cls-2" d="M132.39,23.69c-.79.52-1.26,1.07-1.63,1a1.59,1.59,0,0,1-1-1.11c-.05-.27.63-.92,1-.93S131.61,23.17,132.39,23.69Z"/><path class="cls-2" d="M45.05,47.11c-.64.5-1,1-1.39,1s-.74-.56-1.1-.88c.35-.38.64-1,1.07-1.07S44.39,46.65,45.05,47.11Z"/><path class="cls-2" d="M124,24.1c.57.75,1.1,1.16,1.12,1.58s-.61,1.07-.88,1a1.58,1.58,0,0,1-1.16-.92C123,25.42,123.55,24.92,124,24.1Z"/><path class="cls-2" d="M51.76,45.48c-.73.45-1.17.93-1.58.91s-1-.74-.9-1a1.64,1.64,0,0,1,1.08-1C50.67,44.37,51.08,44.94,51.76,45.48Z"/><path class="cls-2" d="M117.47,25.85c.52.78,1.07,1.25,1,1.63a1.58,1.58,0,0,1-1.11,1c-.27.05-.92-.62-.93-1S117,26.63,117.47,25.85Z"/><path class="cls-2" d="M56.84,41.93c.52.62,1.06,1,1,1.36s-.54.75-.84,1.12c-.39-.34-1-.61-1.1-1S56.4,42.6,56.84,41.93Z"/><path class="cls-2" d="M112.39,29.12c-.75.55-1.19,1.12-1.57,1.08a1.55,1.55,0,0,1-1-1.05c-.06-.27.57-1,.93-1S111.59,28.63,112.39,29.12Z"/><path class="cls-2" d="M105.43,31c-.78.5-1.25,1-1.62,1a1.57,1.57,0,0,1-1-1.1c0-.27.64-.91,1-.91S104.67,30.42,105.43,31Z"/><path class="cls-2" d="M62.15,41.68c.6-.49,1-1.07,1.32-1s.78.61,1.16,1c-.36.36-.68.92-1.1,1S62.78,42.14,62.15,41.68Z"/><path class="cls-2" d="M98.76,32.72c-.79.48-1.27,1-1.64.94a1.55,1.55,0,0,1-.93-1.12c0-.26.65-.89,1-.88S98,32.18,98.76,32.72Z"/><path class="cls-2" d="M92,34.31c-.6.52-1,1.12-1.31,1.08s-.81-.59-1.22-.92c.36-.38.67-1,1.09-1.07S91.32,33.87,92,34.31Z"/><path class="cls-2" d="M70.68,38.39c.42.76.88,1.23.83,1.64s-.67.63-1,.93c-.33-.4-.86-.77-.91-1.2S70.11,39.05,70.68,38.39Z"/><path class="cls-2" d="M83.87,34.9c.49.72,1,1.15,1,1.57s-.71,1-1,1a1.66,1.66,0,0,1-1-1.05C82.79,36.06,83.36,35.61,83.87,34.9Z"/><path class="cls-2" d="M78.64,38.11c-.6.5-1,1.09-1.32,1s-.79-.6-1.18-.94c.36-.37.68-.94,1.1-1S78,37.66,78.64,38.11Z"/><path class="cls-2" d="M165.25,31l.65,2.73-.42.28c-.45-.4-1.15-.74-1.27-1.22s.26-1.21.43-1.83Z"/><path class="cls-2" d="M2.24,70V67.73l.33-.25c.38.42,1.05.83,1.06,1.27s-.55,1-.86,1.54Z"/><path class="cls-2" d="M55.94,70.52c.51-.29,1-.8,1.52-.81s1.07.49,1.6.76l-.15.38H56.12Z"/><path class="cls-2" d="M163.4,24.57l.71,2.29-.31.31c-.41-.34-1-.62-1.17-1.05s.16-1.06.27-1.6Z"/><path class="cls-2" d="M63,35.07c-.54.34-.95.78-1.18.7s-.55-.6-.82-.92c.31-.24.63-.66.93-.66S62.52,34.65,63,35.07Z"/><path class="cls-2" d="M43,40.43c-.52.41-.84.85-1.13.83a1.09,1.09,0,0,1-.81-.74c0-.28.44-.77.74-.81S42.47,40.07,43,40.43Z"/><path class="cls-2" d="M80.8,33.92c-.6.38-1,.85-1.3.76s-.61-.65-.9-1c.34-.26.68-.72,1-.72S80.26,33.45,80.8,33.92Z"/><path class="cls-2" d="M69.68,33.14c-.49.43-.82.93-1.06.89s-.64-.51-1-.79c.27-.28.52-.75.82-.79S69.13,32.8,69.68,33.14Z"/><path class="cls-2" d="M52.56,39.78c.43.57.93,1,.87,1.22s-.59.65-.91,1c-.29-.31-.77-.6-.8-.93S52.14,40.36,52.56,39.78Z"/><path class="cls-2" d="M86.23,33.38c-.45-.56-1-1-.92-1.21s.58-.68.9-1c.3.31.8.59.83.93S86.63,32.78,86.23,33.38Z"/><path class="cls-2" d="M72.8,34.28c.45.56,1,.94.9,1.2s-.57.66-.88,1c-.3-.3-.79-.59-.82-.92S72.41,34.87,72.8,34.28Z"/><path class="cls-2" d="M76.65,31.56c-.55.37-.94.81-1.17.74s-.59-.59-.87-.91c.31-.24.61-.68.92-.68S76.14,31.15,76.65,31.56Z"/><path class="cls-2" d="M34.85,41.05c.41.52.85.84.83,1.13a1.09,1.09,0,0,1-.74.81c-.28,0-.77-.44-.81-.74S34.49,41.61,34.85,41.05Z"/><path class="cls-2" d="M94.5,30.38c-.67.42-1,.85-1.42.84s-.88-.64-.82-.84a1.5,1.5,0,0,1,.93-.91C93.46,29.41,93.85,29.91,94.5,30.38Z"/><path class="cls-2" d="M82.18,28.56c.36.59.75,1,.74,1.3s-.62.77-.8.71a1.43,1.43,0,0,1-.8-.9C81.28,29.42,81.75,29.08,82.18,28.56Z"/><path class="cls-2" d="M47.22,42.77c-.61.44-1,.9-1.28.88s-.62-.53-.93-.83c.29-.3.56-.82.89-.86S46.59,42.36,47.22,42.77Z"/><path class="cls-2" d="M101.07,28.69c-.57.38-1,.86-1.25.8s-.65-.61-1-.94c.36-.29.69-.76,1.08-.82S100.55,28.23,101.07,28.69Z"/><path class="cls-2" d="M90,27.7c-.52.41-.88.89-1.11.83s-.62-.54-.92-.84c.28-.26.55-.72.86-.75S89.43,27.33,90,27.7Z"/><path class="cls-2" d="M40.54,44.64c-.64.38-1,.8-1.35.74s-.56-.59-.84-.91c.33-.28.64-.76,1-.77S40,44.17,40.54,44.64Z"/><path class="cls-2" d="M106.43,25.3c.43.54.95.91.9,1.18s-.55.69-.86,1c-.32-.33-.81-.62-.89-1S106,25.86,106.43,25.3Z"/><path class="cls-2" d="M95.47,24.79c.38.58.78.93.78,1.27s-.6.8-.78.74a1.39,1.39,0,0,1-.82-.87C94.59,25.68,95.05,25.33,95.47,24.79Z"/><path class="cls-2" d="M59.57,38c.4.59.88,1,.81,1.26s-.62.63-1,.94c-.27-.33-.74-.65-.75-1S59.13,38.61,59.57,38Z"/><path class="cls-2" d="M56.36,36.67c-.53.41-.85.84-1.14.83s-.58-.48-.87-.75c.27-.29.5-.76.81-.81S55.8,36.31,56.36,36.67Z"/><path class="cls-2" d="M48.57,39.63c-.41-.53-.85-.85-.83-1.14s.48-.58.75-.87c.29.27.76.51.81.81S48.93,39.07,48.57,39.63Z"/><path class="cls-2" d="M114.48,24.94c-.67.39-1.08.81-1.45.78s-.86-.68-.79-.88a1.47,1.47,0,0,1,1-.87C113.49,23.92,113.86,24.43,114.48,24.94Z"/><path class="cls-2" d="M102,25.47c-.35-.6-.73-1-.71-1.31s.64-.77.82-.7a1.45,1.45,0,0,1,.78.92C103,24.63,102.46,25,102,25.47Z"/><path class="cls-2" d="M27.22,48.34c-.62.41-1,.85-1.31.8s-.59-.55-.88-.86c.31-.29.59-.78.92-.81S26.62,47.9,27.22,48.34Z"/><path class="cls-2" d="M119.7,24.39c-.39-.57-.87-1-.8-1.25s.6-.66.93-1c.3.36.77.69.83,1.08S120.16,23.87,119.7,24.39Z"/><path class="cls-2" d="M108.88,21.31c.34.61.72,1,.69,1.33s-.66.76-.83.69a1.42,1.42,0,0,1-.77-.94C107.93,22.14,108.43,21.82,108.88,21.31Z"/><path class="cls-2" d="M20.56,50c-.6.44-1,.9-1.27.87a1.21,1.21,0,0,1-.86-.82c0-.29.49-.81.82-.86S19.94,49.6,20.56,50Z"/><path class="cls-2" d="M128.12,21.46c-.69.4-1.1.83-1.48.8s-.87-.69-.8-.89a1.53,1.53,0,0,1,1-.9C127.11,20.42,127.49,21,128.12,21.46Z"/><path class="cls-2" d="M117,20.87c-.62.36-1,.75-1.34.73s-.77-.65-.71-.82a1.45,1.45,0,0,1,.93-.8C116.09,19.94,116.42,20.42,117,20.87Z"/><path class="cls-2" d="M133.25,21c-.37-.7-.79-1.12-.75-1.5s.72-.85.92-.78a1.54,1.54,0,0,1,.87,1C134.33,20,133.78,20.4,133.25,21Z"/><path class="cls-2" d="M123.61,18.84c-.6.36-1,.75-1.32.73s-.78-.65-.71-.82a1.41,1.41,0,0,1,.92-.8C122.75,17.91,123.08,18.39,123.61,18.84Z"/><path class="cls-2" d="M140.05,16.2c.45.66.9,1,.9,1.42s-.54.62-.84.93c-.34-.32-.85-.6-1-1S139.59,16.88,140.05,16.2Z"/><path class="cls-2" d="M130.28,17.08c-.61.37-1,.76-1.32.75s-.79-.63-.72-.81a1.43,1.43,0,0,1,.91-.81C129.4,16.17,129.74,16.64,130.28,17.08Z"/><path class="cls-2" d="M146.64,17.16c-.39-.57-.89-1-.82-1.27s.62-.66,1-1c.3.37.79.7.84,1.1S147.11,16.64,146.64,17.16Z"/><path class="cls-2" d="M135.66,14.09c.42.5.9.83.86,1.08s-.5.66-.78,1c-.3-.3-.76-.57-.84-.92S135.29,14.61,135.66,14.09Z"/><path class="cls-2" d="M154.78,14.11c-.66.45-1,.91-1.42.91s-.62-.54-.94-.84c.33-.34.61-.86,1-.95S154.11,13.65,154.78,14.11Z"/><path class="cls-2" d="M12.21,53.06c-.37-.63-.79-1-.73-1.34s.58-.56.9-.83c.28.32.75.63.76,1S12.68,52.49,12.21,53.06Z"/><path class="cls-2" d="M142.36,14.81c-.4-.62-.85-1-.8-1.3a1.32,1.32,0,0,1,.9-.78c.2,0,.74.51.73.79S142.78,14.2,142.36,14.81Z"/><path class="cls-2" d="M149.42,10.53c.37.65.79,1.07.72,1.36a1.29,1.29,0,0,1-1,.73c-.2,0-.7-.56-.68-.84S149,11.12,149.42,10.53Z"/><path class="cls-2" d="M5.55,54.79c-.37-.63-.79-1-.73-1.33s.58-.55.9-.83c.27.32.75.63.76,1S6,54.23,5.55,54.79Z"/><path class="cls-2" d="M155.93,11.06c-.39-.64-.82-1.05-.76-1.35a1.33,1.33,0,0,1,.94-.75c.2,0,.72.54.7.82S156.37,10.46,155.93,11.06Z"/><path class="cls-2" d="M66.29,36.3c.38.61.85,1.05.76,1.3s-.65.61-1,.9c-.26-.34-.73-.68-.72-1S65.82,36.84,66.29,36.3Z"/><path class="cls-2" d="M32.62,45.26c.41.63.86,1,.81,1.32s-.56.6-.87.89c-.29-.31-.79-.6-.82-.93S32.18,45.87,32.62,45.26Z"/></g></g></svg>