<svg xmlns="http://www.w3.org/2000/svg" xmlns:xlink="http://www.w3.org/1999/xlink" viewBox="0 0 69.54 62.47"><defs><style>.cls-1{fill:none;}.cls-2{fill:#d6bcae;}.cls-3{fill:#6380c0;}.cls-4{fill:#8faddb;}.cls-5{fill:#e3d3cb;}.cls-6{fill:#fff9e8;}.cls-7{fill:#c5adae;}.cls-8{fill:#5e546d;}.cls-9{fill:#9db9e1;}.cls-10{clip-path:url(#clip-path);}</style><clipPath id="clip-path"><polyline class="cls-1" points="55.29 56.15 55.29 49.14 55.29 47.2 54.98 47.02 53.21 46.03 52.91 45.85 52.01 45.35 53.52 55.13 53.75 55.26 54.98 55.97 55.29 56.15"/></clipPath></defs><g id="Layer_2" data-name="Layer 2"><g id="Layer_2-2" data-name="Layer 2"><polyline class="cls-2" points="0 14.16 0 44.16 31.48 62.47 31.48 32.47 0 14.16"/><polyline class="cls-3" points="1.53 16.82 1.53 42.9 1.84 43.08 6.22 45.62 6.53 45.8 10.9 48.34 11.21 48.52 15.58 51.07 15.89 51.25 18.05 52.5 20.27 53.79 20.57 53.97 24.95 56.52 25.26 56.69 29.63 59.24 29.94 59.42 29.95 33.35 29.63 33.16 25.26 30.62 24.95 30.44 20.57 27.89 20.27 27.71 15.89 25.17 15.58 24.99 13.62 23.85 11.21 22.45 10.9 22.27 6.53 19.73 6.22 19.55 1.84 17 1.53 16.82 1.53 16.82"/><path class="cls-4" d="M29.64,59.24h0L25.27,56.7V44.44L29.64,47V59.24M25,56.52h0L20.58,54V41.72L25,44.27V56.52M20.28,53.8h0L18,52.5,16,39l4.32,2.5V53.8"/><polygon class="cls-5" points="1.53 16.82 1.53 42.9 1.84 43.08 1.84 17 1.53 16.82 1.53 16.82"/><polygon class="cls-5" points="6.23 19.55 6.23 45.63 6.54 45.81 6.54 19.73 6.23 19.55 6.23 19.55"/><polygon class="cls-5" points="10.91 22.28 10.91 48.35 11.22 48.53 11.22 22.45 10.91 22.28 10.91 22.28"/><polygon class="cls-5" points="15.59 25 15.59 51.07 15.9 51.25 15.9 25.18 15.59 25 15.59 25"/><polyline class="cls-5" points="20.28 27.72 20.28 53.8 20.58 53.98 20.58 27.9 20.28 27.72"/><polyline class="cls-5" points="24.96 30.45 24.96 56.52 25.27 56.7 25.27 30.62 24.96 30.45"/><polyline class="cls-5" points="29.64 33.17 29.64 59.24 29.95 59.42 29.95 33.35 29.64 33.17"/><polyline class="cls-5" points="31.48 32.47 31.48 62.47 34.79 60.56 35.24 60.3 38.28 58.55 38.74 58.28 56 48.31 56 18.31 31.48 32.47"/><polyline class="cls-6" points="0 14.16 31.48 32.47 56 18.31 24.49 0 0 14.16"/><polyline class="cls-2" points="52.94 18.3 24.49 1.77 3.06 14.16 31.49 30.69 52.94 18.3"/><polygon class="cls-5" points="24.49 1.77 24.49 3.6 51.36 19.22 52.94 18.3 24.49 1.77 24.49 1.77"/><polygon class="cls-7" points="3.06 14.16 4.64 15.08 24.49 3.6 24.49 1.77 3.06 14.16 3.06 14.16"/><polyline class="cls-2" points="8.8 13.69 8.8 34.88 33.9 49.46 33.9 28.27 8.8 13.69"/><polygon class="cls-6" points="8.8 13.69 33.9 28.27 46.42 21.03 21.32 6.45 8.8 13.69 8.8 13.69"/><polygon class="cls-2" points="43.36 21.03 21.32 8.22 11.86 13.69 33.9 26.5 43.36 21.03 43.36 21.03"/><polygon class="cls-5" points="21.32 8.22 21.32 10.23 41.63 22.03 43.36 21.03 21.32 8.22 21.32 8.22"/><polygon class="cls-7" points="11.86 13.69 13.59 14.7 21.32 10.23 21.32 8.22 11.86 13.69 11.86 13.69"/><polyline class="cls-5" points="47.21 40.77 47.21 53.26 55.29 57.95 55.29 45.47 47.21 40.77"/><polyline class="cls-5" points="48.75 43.44 48.75 52.38 53.75 55.29 53.75 46.35 53.41 46.15 48.75 43.44"/><polyline class="cls-5" points="55.29 45.47 55.29 57.95 69.54 49.88 69.54 37.4 55.29 45.47"/><polyline class="cls-3" points="55.29 47.2 55.29 56.15 55.6 55.98 57.36 54.98 57.67 54.81 59.43 53.82 59.74 53.65 61.5 52.65 61.8 52.48 63.56 51.49 63.87 51.32 65.63 50.33 65.94 50.15 67.7 49.16 68.01 48.99 68.01 40.03 67.7 40.2 65.94 41.19 65.63 41.37 63.87 42.36 63.56 42.53 61.8 43.52 61.5 43.7 59.74 44.69 59.43 44.86 57.67 45.86 57.36 46.03 55.6 47.02 55.29 47.2 55.29 47.2"/><polygon class="cls-6" points="47.21 40.77 55.29 45.47 69.45 37.45 69.54 37.4 56 29.59 56 35.76 48.72 39.91 47.21 40.77 47.21 40.77"/><polygon class="cls-5" points="56 32.43 65.52 37.91 66.45 37.39 56 31.36 56 32.43 56 32.43"/><polygon class="cls-2" points="49.65 40.45 55.29 43.7 65.52 37.91 56 32.43 56 36.83 49.65 40.45 49.65 40.45"/><polygon class="cls-5" points="53.78 38.09 53.78 28.23 49.82 30.51 49.83 40.35 53.78 38.09 53.78 38.09"/><polygon class="cls-8" points="53.32 38.35 50.28 40.09 50.28 30.78 53.32 29.02 53.32 38.35 53.32 38.35"/><polygon class="cls-3" points="50.61 30.96 52.99 29.59 52.99 34.49 50.61 35.87 50.61 30.96 50.61 30.96"/><polygon class="cls-5" points="34.78 50.84 34.79 60.56 35.24 60.3 38.28 58.55 38.74 58.28 38.73 48.55 34.78 50.84 34.78 50.84"/><polygon class="cls-8" points="35.24 51.1 35.24 60.3 38.28 58.55 38.27 49.35 35.24 51.1 35.24 51.1"/><polygon class="cls-3" points="35.57 51.29 37.95 49.91 37.95 54.82 35.57 56.2 35.57 51.29 35.57 51.29"/><polygon class="cls-5" points="38.27 48.81 38.27 58.54 38.73 58.27 41.76 56.52 42.23 56.25 42.22 46.53 38.27 48.81 38.27 48.81"/><polygon class="cls-8" points="38.73 49.08 38.73 58.27 41.76 56.52 41.76 47.32 38.73 49.08 38.73 49.08"/><polygon class="cls-3" points="39.05 49.27 41.44 47.89 41.44 52.79 39.05 54.17 39.05 49.27 39.05 49.27"/><polyline class="cls-3" points="10.34 16.35 10.34 34 10.65 34.18 14.22 36.26 14.53 36.43 18.09 38.51 18.4 38.69 21.14 40.28 21.97 40.76 22.28 40.94 25.84 43.01 26.15 43.19 29.72 45.27 30.02 45.45 33.59 47.52 33.9 47.7 33.91 30.06 33.59 29.88 30.02 27.8 29.72 27.62 26.15 25.55 25.84 25.37 22.28 23.3 21.97 23.12 18.4 21.04 18.14 20.89 18.09 20.86 14.53 18.79 14.22 18.61 10.65 16.54 10.35 16.36 10.34 16.35"/><polyline class="cls-4" points="33.9 47.7 33.91 30.06 33.59 29.88 30.02 27.8 29.72 27.62 26.15 25.55 25.84 25.37 22.28 23.3 21.97 23.12 18.4 21.04 18.14 20.89 21.14 40.28 21.97 40.76 22.28 40.94 25.84 43.01 26.15 43.19 29.72 45.27 30.02 45.45 33.59 47.52 33.9 47.7 33.9 47.7"/><polygon class="cls-5" points="10.35 16.36 10.35 34 10.65 34.18 10.65 16.54 10.35 16.36 10.35 16.36"/><polygon class="cls-5" points="14.22 18.61 14.22 36.25 14.53 36.43 14.53 18.79 14.22 18.61 14.22 18.61"/><polygon class="cls-5" points="18.09 20.86 18.09 38.51 18.4 38.69 18.4 21.04 18.09 20.86 18.09 20.86"/><polygon class="cls-5" points="21.97 23.12 21.97 40.76 22.28 40.94 22.28 23.3 21.97 23.12 21.97 23.12"/><polygon class="cls-5" points="25.84 25.37 25.84 43.01 26.15 43.19 26.15 25.55 25.84 25.37 25.84 25.37"/><polygon class="cls-5" points="29.72 27.62 29.72 45.27 30.02 45.45 30.02 27.8 29.72 27.62 29.72 27.62"/><polygon class="cls-5" points="33.59 29.88 33.59 47.52 33.9 47.7 33.9 30.05 33.59 29.88 33.59 29.88"/><polygon class="cls-7" points="33.9 28.27 33.9 49.46 46.42 42.22 46.42 21.03 33.9 28.27 33.9 28.27"/><polygon class="cls-7" points="35.43 29.15 35.43 46.8 44.89 41.34 44.89 23.69 35.43 29.15 35.43 29.15"/><polygon class="cls-3" points="33.89 30.17 33.89 47.77 34.2 47.59 37.77 45.47 38.08 45.29 41.65 43.18 41.95 42.99 44.89 41.26 44.89 23.69 41.95 25.42 41.65 25.6 38.08 27.7 37.77 27.88 34.2 29.98 33.9 30.17 33.89 30.17 33.89 30.17"/><polygon class="cls-9" points="41.65 25.6 41.65 43.18 41.95 42.99 41.95 25.42 41.65 25.6 41.65 25.6"/><polygon class="cls-7" points="41.7 25.61 41.7 43.19 42.01 43.01 42.01 25.43 41.7 25.61 41.7 25.61"/><polygon class="cls-7" points="44.58 23.87 44.58 41.45 44.89 41.27 44.89 23.69 44.58 23.87 44.58 23.87"/><polygon class="cls-7" points="37.77 27.88 37.77 45.47 38.08 45.29 38.08 27.7 37.77 27.88 37.77 27.88"/><polygon class="cls-7" points="33.9 30.17 33.9 47.77 34.2 47.59 34.2 29.98 33.9 30.17 33.9 30.17"/><polygon class="cls-5" points="54.43 26.43 54.43 20.67 52.14 21.99 52.14 27.75 54.43 26.43 54.43 26.43"/><polygon class="cls-3" points="54.03 26.19 54.03 21.36 52.54 22.22 52.54 27.05 54.03 26.19 54.03 26.19"/><polygon class="cls-5" points="50.22 28.85 50.22 23.09 47.93 24.42 47.93 30.18 50.22 28.85 50.22 28.85"/><polygon class="cls-3" points="49.82 28.62 49.82 23.79 48.33 24.65 48.33 29.48 49.82 28.62 49.82 28.62"/><polyline class="cls-3" points="48.75 43.51 48.75 52.38 49.05 52.55 50.83 53.57 51.13 53.75 52.91 54.77 53.21 54.95 53.52 55.13 54.98 55.97 55.29 56.15 55.29 47.2 54.98 47.02 53.21 46.03 52.91 45.85 52.01 45.35 51.13 44.86 50.83 44.68 49.05 43.69 48.75 43.51"/><g class="cls-10"><rect class="cls-4" x="52.01" y="45.35" width="3.28" height="10.8"/></g><polygon class="cls-5" points="54.98 47.02 54.98 55.97 55.29 56.15 55.29 47.2 54.98 47.02 54.98 47.02"/><polygon class="cls-5" points="48.75 43.51 48.75 52.38 49.05 52.55 49.05 43.69 48.75 43.51 48.75 43.51"/></g></g></svg>