<svg xmlns="http://www.w3.org/2000/svg" viewBox="0 0 171.18 119.68"><defs><style>.cls-1{fill:#5e546d;}.cls-2{fill:#f26e6b;}.cls-3{fill:#fff;}.cls-4{fill:#a1bd69;}.cls-5{fill:#cde081;}.cls-6{fill:#393156;}.cls-7{fill:#524960;}.cls-8{fill:#c5adae;}.cls-9{fill:#e3d3cb;}.cls-10{fill:#fff9e8;}.cls-11{fill:#b89e9b;}</style></defs><g id="Layer_2" data-name="Layer 2"><g id="Layer_2-2" data-name="Layer 2"><path class="cls-1" d="M54.83,119.68c-14,0-27.34-3.21-37.44-9C6.18,104.16,0,95.17,0,85.32S6.18,66.47,17.39,60L78.9,24.49c10.1-5.84,23.4-9,37.44-9s27.34,3.21,37.45,9C165,31,171.18,40,171.18,49.81S165,68.65,153.79,75.12L92.28,110.64c-10.11,5.83-23.4,9-37.45,9Z"/><path class="cls-1" d="M150.58,69.58l-61.5,35.51C70.16,116,39.5,116,20.59,105.09s-18.91-28.62,0-39.54L82.1,30c18.91-10.92,49.57-10.92,68.48,0s18.92,28.62,0,39.54Z"/><path class="cls-2" d="M87.87,104.4c-18.21,10.51-47.86,10.51-66.08,0s-18.22-27.64,0-38.16L83.3,30.73c18.22-10.52,47.86-10.52,66.08,0s18.22,27.63,0,38.15L87.87,104.4Z"/><path class="cls-3" d="M81.07,100.46c-14.47,8.36-38,8.36-52.47,0s-14.46-21.93,0-30.29L90.11,34.66c14.47-8.35,38-8.35,52.47,0S157,56.6,142.58,65L81.07,100.46Z"/><path class="cls-4" d="M141.78,35.12c.61.36,1.2.73,1.77,1.1,7.93,5.29,10.47,12.36,7.6,18.79-1.5,3.37-4.48,6.57-9,9.24l-.41.24L80.26,100l-.43.25a47.31,47.31,0,0,1-16,5.17c-11.23,1.66-23.59.16-32.77-4.52q-.84-.44-1.65-.9c-.54-.31-1.06-.63-1.55-1C19.74,93.75,17.14,86.62,20,80.13c1.49-3.37,4.48-6.57,9-9.24l.43-.25L90.91,35.12l.42-.24a47.19,47.19,0,0,1,16-5.17c11.14-1.65,23.38-.19,32.54,4.39.65.33,1.29.67,1.91,1Z"/><path class="cls-5" d="M139.87,34.1l3.68,2.12c7.93,5.29,10.47,12.36,7.6,18.79l-43.82-25.3c11.14-1.65,23.38-.19,32.54,4.39Z"/><path class="cls-5" d="M91.33,34.88l50.86,29.37-.41.24-12.05,7L78.86,42.08l12-7,.42-.24Z"/><polygon class="cls-5" points="66.38 49.29 117.25 78.65 104.78 85.85 53.91 56.48 66.38 49.29 66.38 49.29"/><path class="cls-5" d="M41.43,63.69,92.3,93.06l-12,6.94-.43.25L29,70.89l.43-.25,12-7Z"/><path class="cls-5" d="M20,80.13l43.8,25.29c-11.23,1.66-23.59.16-32.77-4.52l-3.2-1.85C19.74,93.75,17.14,86.62,20,80.13Z"/><polygon class="cls-6" points="82.45 24.11 76.14 20.58 76.14 26.28 82.36 29.87 82.45 24.11 82.45 24.11"/><polygon class="cls-7" points="82.75 23.94 82.76 29.64 82.36 29.87 82.36 24.17 82.75 23.94 82.75 23.94"/><polygon class="cls-1" points="82.63 30.04 22.79 64.63 16.36 60.92 76.2 26.33 82.63 30.04 82.63 30.04"/><polygon class="cls-8" points="21.73 63.13 21.73 62.48 20.94 62.03 20.94 61.38 20.15 60.93 20.15 60.28 19.37 59.82 19.37 59.17 18.58 58.72 18.58 58.07 17.8 57.61 17.8 56.96 16.29 56.1 16.29 60.87 22.51 64.46 22.51 63.59 21.73 63.13 21.73 63.13"/><polygon class="cls-9" points="16.29 56.1 76.14 21.53 77.64 22.4 17.8 56.96 16.29 56.1 16.29 56.1"/><polygon class="cls-9" points="18.58 58.07 17.8 57.61 77.64 23.05 78.43 23.5 18.58 58.07 18.58 58.07"/><polygon class="cls-10" points="77.64 22.4 77.64 23.05 17.8 57.61 17.8 56.96 77.64 22.4 77.64 22.4"/><polygon class="cls-1" points="16.29 55.17 76.14 20.58 76.67 20.88 16.82 55.48 16.29 55.17 16.29 55.17"/><polygon class="cls-7" points="76.67 20.88 76.66 21.82 16.81 56.38 16.82 55.48 76.67 20.88 76.67 20.88"/><polygon class="cls-9" points="19.37 59.17 18.58 58.72 78.43 24.15 79.22 24.61 19.37 59.17 19.37 59.17"/><polygon class="cls-10" points="78.43 23.5 78.43 24.15 18.58 58.72 18.58 58.07 78.43 23.5 78.43 23.5"/><polygon class="cls-9" points="20.15 60.28 19.37 59.82 79.22 25.26 80 25.71 20.15 60.28 20.15 60.28"/><polygon class="cls-10" points="79.22 24.61 79.22 25.26 19.37 59.82 19.37 59.17 79.22 24.61 79.22 24.61"/><polygon class="cls-9" points="20.94 61.38 20.15 60.93 80 26.36 80.79 26.82 20.94 61.38 20.94 61.38"/><polygon class="cls-10" points="80 25.71 80 26.36 20.15 60.93 20.15 60.28 80 25.71 80 25.71"/><polygon class="cls-9" points="21.73 62.48 20.94 62.03 80.79 27.47 81.58 27.92 21.73 62.48 21.73 62.48"/><polygon class="cls-10" points="80.79 26.82 80.79 27.47 20.94 62.03 20.94 61.38 80.79 26.82 80.79 26.82"/><polygon class="cls-9" points="22.51 63.59 21.73 63.13 81.58 28.57 82.36 29.03 22.51 63.59 22.51 63.59"/><polygon class="cls-10" points="81.58 27.92 81.58 28.57 21.73 63.13 21.73 62.48 81.58 27.92 81.58 27.92"/><polygon class="cls-10" points="82.36 29.03 82.36 29.87 22.51 64.46 22.51 63.59 82.36 29.03 82.36 29.03"/><polygon class="cls-6" points="22.2 58.93 15.89 55.4 15.89 61.1 22.11 64.69 22.2 58.93 22.2 58.93"/><polygon class="cls-1" points="22.51 58.76 16.29 55.17 15.89 55.4 22.11 58.99 22.51 58.76 22.51 58.76"/><polygon class="cls-7" points="22.51 58.76 22.51 64.46 22.11 64.69 22.11 58.99 22.51 58.76 22.51 58.76"/><path class="cls-10" d="M151.87,8.37V30.14a.55.55,0,0,1-.31.44,1.72,1.72,0,0,1-1.53,0,.57.57,0,0,1-.32-.44V8.37Z"/><path class="cls-8" d="M150,8.37V30.58a.57.57,0,0,1-.32-.44V8.37Z"/><polygon class="cls-8" points="157.49 23.61 142.06 14.7 142.06 0.56 157.48 9.47 157.49 23.61 157.49 23.61"/><polygon class="cls-7" points="142.46 14.47 142.46 1.26 157.08 9.7 157.09 22.92 142.46 14.47 142.46 14.47"/><polygon class="cls-9" points="158.47 8.91 157.7 9.34 157.48 9.47 142.06 0.56 143.04 0 158.47 8.91 158.47 8.91"/><polygon class="cls-10" points="158.47 23.04 157.49 23.61 157.48 9.47 157.7 9.34 158.47 8.91 158.47 23.04 158.47 23.04"/><path class="cls-3" d="M87.34,92.4l-22.45,13L20.15,79.54l22.45-13L87.34,92.4ZM19.1,79.54,64.89,106,88.39,92.4,42.6,66,19.1,79.54Z"/><path class="cls-3" d="M51.4,97.58l8.76-5L42.39,82.27l-8.76,5.06L51.4,97.58Zm9.81-5L51.4,98.19,32.58,87.33l9.81-5.67L61.21,92.53Z"/><path class="cls-3" d="M42.17,98.42,47,95.64,37,89.87l-4.82,2.78,10,5.77ZM48,95.64,42.17,99l-11-6.38L37,89.27l11,6.37Z"/><path class="cls-3" d="M59.63,75.8c-.29,0-.58.06-.86.11l.61.35a9,9,0,0,1,.91-.08A14,14,0,0,1,68,77.73c2.11,1.22,3,2.87,2.68,4.47a2.55,2.55,0,0,1-.15.52l.61.35a1.91,1.91,0,0,0,.19-.5c.55-1.81-.39-3.75-2.81-5.14a15.37,15.37,0,0,0-8.92-1.63Z"/><path class="cls-3" d="M60.76,81.21a.38.38,0,0,0,0,.72,1.37,1.37,0,0,0,1.23,0c.34-.19.34-.51,0-.71a1.4,1.4,0,0,0-1.23,0Z"/><path class="cls-3" d="M151,55.64l-22.46,13L83.82,42.78l22.46-13L151,55.64ZM82.77,42.78l45.79,26.43,23.51-13.57L106.28,29.21,82.77,42.78Z"/><path class="cls-3" d="M128.77,52.91l8.76-5L119.77,37.6,111,42.66l17.77,10.25Zm9.81-5-9.81,5.66L110,42.66,119.77,37l18.81,10.87Z"/><path class="cls-3" d="M134.17,45.31,139,42.53l-10-5.77-4.81,2.78,10,5.77ZM140,42.53l-5.86,3.38-11-6.37L129,36.15l11,6.38Z"/><path class="cls-3" d="M100.45,53a4.44,4.44,0,0,1,.15-.52l-.61-.36a3,3,0,0,0-.19.5c-.55,1.81.39,3.75,2.82,5.15a15.34,15.34,0,0,0,8.91,1.62,8.62,8.62,0,0,0,.87-.11l-.62-.35c-.3,0-.6.07-.9.08a14,14,0,0,1-7.74-1.55c-2.11-1.21-3-2.87-2.69-4.46Z"/><path class="cls-3" d="M109.18,53.26c-.34.19-.34.51,0,.71a1.4,1.4,0,0,0,1.23,0c.34-.2.34-.52,0-.71a1.34,1.34,0,0,0-1.23,0Z"/><path class="cls-3" d="M78.69,63.89C75,66,75,69.45,78.69,71.57a14.72,14.72,0,0,0,13.31,0c3.66-2.12,3.66-5.56,0-7.68a14.72,14.72,0,0,0-13.31,0Zm13.83,8a15.87,15.87,0,0,1-14.36,0c-4-2.28-4-6,0-8.28a15.87,15.87,0,0,1,14.36,0c4,2.28,4,6,0,8.28Z"/><path class="cls-3" d="M86,68.08a1.34,1.34,0,0,1-1.23,0c-.34-.19-.34-.51,0-.71a1.4,1.4,0,0,1,1.23,0c.34.2.34.52,0,.71Z"/><polygon class="cls-3" points="109.15 81.17 108.62 81.47 61.54 54.29 62.06 53.99 109.15 81.17 109.15 81.17"/><polygon class="cls-11" points="22.98 95.11 7.55 86.2 7.55 72.06 22.98 80.96 22.98 95.11 22.98 95.11"/><polygon class="cls-8" points="23.2 80.82 22.98 95.11 22.98 80.96 7.55 72.06 23.2 80.82 23.2 80.82"/><polygon class="cls-9" points="23.96 80.4 23.2 80.84 22.98 80.96 7.55 72.06 8.54 71.5 23.96 80.4 23.96 80.4"/><polygon class="cls-10" points="23.97 94.54 22.98 95.11 22.98 80.96 23.2 80.84 23.96 80.4 23.97 94.54 23.97 94.54"/><path class="cls-9" d="M16.84,79.87v21.76a.52.52,0,0,1-.32.44,1.53,1.53,0,0,1-.76.19,1.59,1.59,0,0,1-.76-.19.54.54,0,0,1-.32-.44V79.87Z"/><path class="cls-8" d="M15,79.87v22.2a.54.54,0,0,1-.32-.44V79.87Z"/><path class="cls-9" d="M16.52,79.43a.46.46,0,0,1,0,.88,1.58,1.58,0,0,1-.76.18,1.55,1.55,0,0,1-.76-.18.46.46,0,0,1,0-.88,1.55,1.55,0,0,1,.76-.18,1.58,1.58,0,0,1,.76.18Z"/><path class="cls-8" d="M14.68,79.93V91.48a.54.54,0,0,0,.32.44,1.55,1.55,0,0,0,.76.18,1.58,1.58,0,0,0,.76-.18.54.54,0,0,0,.32-.44V79.93Z"/><path class="cls-8" d="M16.52,79.43a.46.46,0,0,1,0,.88,1.58,1.58,0,0,1-.76.18,1.55,1.55,0,0,1-.76-.18.46.46,0,0,1,0-.88,1.55,1.55,0,0,1,.76-.18,1.58,1.58,0,0,1,.76.18Z"/></g></g></svg>