<svg xmlns="http://www.w3.org/2000/svg" xmlns:xlink="http://www.w3.org/1999/xlink" viewBox="0 0 59.67 40.48"><defs><style>.cls-1,.cls-10{fill:none;}.cls-2{fill:#009245;}.cls-3{fill:#96ca4b;}.cls-4{fill:#603813;}.cls-5{clip-path:url(#clip-path);}.cls-6{clip-path:url(#clip-path-2);}.cls-7{fill:#006837;}.cls-8{clip-path:url(#clip-path-3);}.cls-9{clip-path:url(#clip-path-4);}.cls-10{stroke:#603813;stroke-linecap:round;stroke-miterlimit:10;stroke-width:0.5px;}.cls-11{clip-path:url(#clip-path-5);}.cls-12{clip-path:url(#clip-path-6);}.cls-13{fill:#00823e;}.cls-14{fill:#00bc55;}.cls-15{fill:#009b46;}.cls-16{clip-path:url(#clip-path-7);}.cls-17{clip-path:url(#clip-path-8);}</style><clipPath id="clip-path" transform="translate(0 1.75)"><path class="cls-1" d="M24.25,31.67h0a8.27,8.27,0,0,1-4.65,0h0a1.15,1.15,0,0,1-.91-1V25.48c0-1.44,1.47-2.6,3.29-2.6h0c1.82,0,3.3,1.16,3.3,2.59v5.05A1.28,1.28,0,0,1,24.25,31.67Z"/></clipPath><clipPath id="clip-path-2" transform="translate(0 1.75)"><path class="cls-2" d="M21.91,29.92h0a8.36,8.36,0,0,1-4.65,0h0a1.17,1.17,0,0,1-.92-1V23.72c0-1.43,1.47-2.6,3.29-2.6h0c1.82,0,3.29,1.16,3.3,2.6v5A1.29,1.29,0,0,1,21.91,29.92Z"/></clipPath><clipPath id="clip-path-3" transform="translate(0 1.75)"><path class="cls-1" d="M51.25,9.67h0a8.27,8.27,0,0,1-4.65,0h0a1.15,1.15,0,0,1-.91-1V3.48C45.68,2,47.15.88,49,.88h0c1.82,0,3.3,1.16,3.3,2.59v5A1.28,1.28,0,0,1,51.25,9.67Z"/></clipPath><clipPath id="clip-path-4" transform="translate(0 1.75)"><path class="cls-2" d="M48.91,7.92h0a8.36,8.36,0,0,1-4.65,0h0a1.17,1.17,0,0,1-.92-1V1.72c0-1.43,1.47-2.6,3.29-2.6h0c1.82,0,3.29,1.16,3.3,2.6v5A1.29,1.29,0,0,1,48.91,7.92Z"/></clipPath><clipPath id="clip-path-5" transform="translate(0 1.75)"><path class="cls-1" d="M15.66,24.81h0a8.62,8.62,0,0,1-4.83,0h0a1.2,1.2,0,0,1-.95-1.08V18.37c0-1.49,1.52-2.69,3.41-2.7h0c1.89,0,3.43,1.21,3.43,2.7v5.24A1.33,1.33,0,0,1,15.66,24.81Z"/></clipPath><clipPath id="clip-path-6" transform="translate(0 1.75)"><path class="cls-2" d="M13.23,23h0a8.66,8.66,0,0,1-4.84,0h0a1.19,1.19,0,0,1-.94-1.09V16.55c0-1.49,1.53-2.7,3.42-2.7h0c1.89,0,3.42,1.21,3.42,2.7v5.24A1.35,1.35,0,0,1,13.23,23Z"/></clipPath><clipPath id="clip-path-7" transform="translate(0 1.75)"><path class="cls-1" d="M40.66,18.81h0a8.62,8.62,0,0,1-4.83,0h0a1.2,1.2,0,0,1-.95-1.08V12.37c0-1.49,1.52-2.69,3.41-2.7h0c1.89,0,3.43,1.21,3.43,2.7v5.24A1.33,1.33,0,0,1,40.66,18.81Z"/></clipPath><clipPath id="clip-path-8" transform="translate(0 1.75)"><path class="cls-2" d="M38.23,17h0a8.66,8.66,0,0,1-4.84,0h0a1.19,1.19,0,0,1-.94-1.09V10.55c0-1.49,1.53-2.7,3.42-2.7h0c1.89,0,3.42,1.21,3.42,2.7v5.24A1.35,1.35,0,0,1,38.23,17Z"/></clipPath></defs><g id="Layer_2" data-name="Layer 2"><g id="Layer_2-2" data-name="Layer 2"><path class="cls-3" d="M2.75,23.68c-3.67,2.11-3.67,5.54,0,7.66l10,5.8a14.7,14.7,0,0,0,13.27,0L56.92,19.32c3.66-2.11,3.66-5.54,0-7.66L46.87,5.86a14.62,14.62,0,0,0-13.26,0L2.75,23.68" transform="translate(0 1.75)"/><rect class="cls-4" x="19.81" y="31.12" width="1.41" height="5.8" rx="0.41"/><path class="cls-2" d="M22.79,30.79h0a8.27,8.27,0,0,1-4.65,0h0a1.17,1.17,0,0,1-.92-1.05V24.6c0-1.44,1.47-2.6,3.29-2.6h0c1.82,0,3.29,1.16,3.29,2.59v5.05A1.27,1.27,0,0,1,22.79,30.79Z" transform="translate(0 1.75)"/><g class="cls-5"><path class="cls-2" d="M21.91,29.92h0a8.36,8.36,0,0,1-4.65,0h0a1.17,1.17,0,0,1-.92-1V23.72c0-1.43,1.47-2.6,3.29-2.6h0c1.82,0,3.29,1.16,3.3,2.6v5A1.29,1.29,0,0,1,21.91,29.92Z" transform="translate(0 1.75)"/><g class="cls-6"><path class="cls-2" d="M20.45,29h0a8.3,8.3,0,0,1-4.66,0h0a1.15,1.15,0,0,1-.91-1V22.84c0-1.43,1.48-2.59,3.3-2.59h0c1.81,0,3.29,1.16,3.29,2.59v5.05A1.26,1.26,0,0,1,20.45,29Z" transform="translate(0 1.75)"/></g><path class="cls-7" d="M22.79,30.79h0a8.27,8.27,0,0,1-4.65,0h0a1.17,1.17,0,0,1-.92-1.05V24.6c0-1.44,1.47-2.6,3.29-2.6h0c1.82,0,3.29,1.16,3.29,2.59v5.05A1.27,1.27,0,0,1,22.79,30.79Z" transform="translate(0 1.75)"/></g><rect class="cls-4" x="46.81" y="9.12" width="1.41" height="5.8" rx="0.41"/><path class="cls-2" d="M49.79,8.79h0a8.27,8.27,0,0,1-4.65,0h0a1.17,1.17,0,0,1-.92-1V2.6c0-1.44,1.47-2.6,3.29-2.6h0c1.82,0,3.29,1.16,3.29,2.59V7.64A1.27,1.27,0,0,1,49.79,8.79Z" transform="translate(0 1.75)"/><g class="cls-8"><path class="cls-2" d="M48.91,7.92h0a8.36,8.36,0,0,1-4.65,0h0a1.17,1.17,0,0,1-.92-1V1.72c0-1.43,1.47-2.6,3.29-2.6h0c1.82,0,3.29,1.16,3.3,2.6v5A1.29,1.29,0,0,1,48.91,7.92Z" transform="translate(0 1.75)"/><g class="cls-9"><path class="cls-2" d="M47.45,7h0a8.3,8.3,0,0,1-4.66,0h0a1.15,1.15,0,0,1-.91-1V.84c0-1.43,1.48-2.59,3.3-2.59h0C47-1.76,48.46-.59,48.46.84V5.89A1.26,1.26,0,0,1,47.45,7Z" transform="translate(0 1.75)"/></g><path class="cls-7" d="M49.79,8.79h0a8.27,8.27,0,0,1-4.65,0h0a1.17,1.17,0,0,1-.92-1V2.6c0-1.44,1.47-2.6,3.29-2.6h0c1.82,0,3.29,1.16,3.29,2.59V7.64A1.27,1.27,0,0,1,49.79,8.79Z" transform="translate(0 1.75)"/></g><rect class="cls-4" x="25.78" y="12.2" width="1.08" height="7.59" rx="0.31"/><path class="cls-7" d="M23,13.27l3.3-9.33,3.31,9.32A7.1,7.1,0,0,1,23,13.27Z" transform="translate(0 1.75)"/><path class="cls-2" d="M25.23,14,27,5.9l-.69-2L23,13.27A7.92,7.92,0,0,0,25.23,14Z" transform="translate(0 1.75)"/><line class="cls-10" x1="11.4" y1="25.49" x2="11.4" y2="31.87"/><path class="cls-10" d="M8.66,24.5S8.06,26.93,11.1,26" transform="translate(0 1.75)"/><path class="cls-10" d="M14.9,24s-.44,2.66-3.35,1.22" transform="translate(0 1.75)"/><path class="cls-2" d="M14.14,23.9h0a8.62,8.62,0,0,1-4.83,0h0a1.2,1.2,0,0,1-1-1.08V17.46c0-1.49,1.53-2.69,3.42-2.7h0c1.89,0,3.42,1.21,3.43,2.7V22.7A1.33,1.33,0,0,1,14.14,23.9Z" transform="translate(0 1.75)"/><g class="cls-11"><path class="cls-2" d="M13.23,23h0a8.66,8.66,0,0,1-4.84,0h0a1.19,1.19,0,0,1-.94-1.09V16.55c0-1.49,1.53-2.7,3.42-2.7h0c1.89,0,3.42,1.21,3.42,2.7v5.24A1.35,1.35,0,0,1,13.23,23Z" transform="translate(0 1.75)"/><g class="cls-12"><path class="cls-2" d="M11.71,22.08h0a8.66,8.66,0,0,1-4.84,0h0a1.2,1.2,0,0,1-1-1.09V15.64c0-1.49,1.53-2.7,3.42-2.7h0c1.89,0,3.42,1.21,3.42,2.69v5.25A1.35,1.35,0,0,1,11.71,22.08Z" transform="translate(0 1.75)"/></g><path class="cls-7" d="M14.14,23.9h0a8.62,8.62,0,0,1-4.83,0h0a1.2,1.2,0,0,1-1-1.08V17.46c0-1.49,1.53-2.69,3.42-2.7h0c1.89,0,3.42,1.21,3.43,2.7V22.7A1.33,1.33,0,0,1,14.14,23.9Z" transform="translate(0 1.75)"/></g><path class="cls-13" d="M8.64,20.7a2.17,2.17,0,0,0-2.26,2.08v1.74h0c.16.59,1.1,1,2.23,1s2.08-.45,2.23-1h0V22.78A2.17,2.17,0,0,0,8.64,20.7Z" transform="translate(0 1.75)"/><path class="cls-14" d="M7.45,24.87h0V23.13A2.18,2.18,0,0,1,9.68,21H9.9a2.32,2.32,0,0,0-1.26-.35,2.17,2.17,0,0,0-2.26,2.08v1.74h0c.13.48.77.86,1.62,1A1.21,1.21,0,0,1,7.45,24.87Z" transform="translate(0 1.75)"/><path class="cls-7" d="M14.74,21.65a1.31,1.31,0,0,0-1.36,1.26V24h0c.1.35.67.63,1.35.63S16,24.32,16.1,24h0V22.91A1.31,1.31,0,0,0,14.74,21.65Z" transform="translate(0 1.75)"/><path class="cls-15" d="M14,24.18h0V23.12a1.32,1.32,0,0,1,1.36-1.26h.14a1.42,1.42,0,0,0-.77-.22,1.31,1.31,0,0,0-1.36,1.26V24h0c.08.29.47.52,1,.6A.72.72,0,0,1,14,24.18Z" transform="translate(0 1.75)"/><line class="cls-10" x1="36.4" y1="19.49" x2="36.4" y2="25.87"/><path class="cls-10" d="M33.66,18.5s-.6,2.43,2.44,1.51" transform="translate(0 1.75)"/><path class="cls-10" d="M39.9,18s-.44,2.66-3.35,1.22" transform="translate(0 1.75)"/><path class="cls-2" d="M39.14,17.9h0a8.62,8.62,0,0,1-4.83,0h0a1.2,1.2,0,0,1-1-1.08V11.46c0-1.49,1.53-2.69,3.42-2.7h0c1.89,0,3.42,1.21,3.43,2.7V16.7A1.33,1.33,0,0,1,39.14,17.9Z" transform="translate(0 1.75)"/><g class="cls-16"><path class="cls-2" d="M38.23,17h0a8.66,8.66,0,0,1-4.84,0h0a1.19,1.19,0,0,1-.94-1.09V10.55c0-1.49,1.53-2.7,3.42-2.7h0c1.89,0,3.42,1.21,3.42,2.7v5.24A1.35,1.35,0,0,1,38.23,17Z" transform="translate(0 1.75)"/><g class="cls-17"><path class="cls-2" d="M36.71,16.08h0a8.66,8.66,0,0,1-4.84,0h0A1.2,1.2,0,0,1,30.92,15V9.64c0-1.49,1.53-2.7,3.42-2.7h0c1.89,0,3.42,1.21,3.42,2.69v5.25A1.35,1.35,0,0,1,36.71,16.08Z" transform="translate(0 1.75)"/></g><path class="cls-7" d="M39.14,17.9h0a8.62,8.62,0,0,1-4.83,0h0a1.2,1.2,0,0,1-1-1.08V11.46c0-1.49,1.53-2.69,3.42-2.7h0c1.89,0,3.42,1.21,3.43,2.7V16.7A1.33,1.33,0,0,1,39.14,17.9Z" transform="translate(0 1.75)"/></g><path class="cls-13" d="M33.64,14.7a2.17,2.17,0,0,0-2.26,2.08v1.74h0c.16.59,1.1,1,2.23,1s2.08-.45,2.23-1h0V16.78A2.17,2.17,0,0,0,33.64,14.7Z" transform="translate(0 1.75)"/><path class="cls-14" d="M32.45,18.87h0V17.13A2.18,2.18,0,0,1,34.68,15h.22a2.32,2.32,0,0,0-1.26-.35,2.17,2.17,0,0,0-2.26,2.08v1.74h0c.13.48.77.86,1.62,1A1.21,1.21,0,0,1,32.45,18.87Z" transform="translate(0 1.75)"/><path class="cls-7" d="M39.74,15.65a1.31,1.31,0,0,0-1.36,1.26V18h0c.1.35.67.63,1.35.63S41,18.32,41.1,18h0V16.91A1.31,1.31,0,0,0,39.74,15.65Z" transform="translate(0 1.75)"/><path class="cls-15" d="M39,18.18h0V17.12a1.32,1.32,0,0,1,1.36-1.26h.14a1.42,1.42,0,0,0-.77-.22,1.31,1.31,0,0,0-1.36,1.26V18h0c.08.29.47.52,1,.6A.72.72,0,0,1,39,18.18Z" transform="translate(0 1.75)"/></g></g></svg>