<svg xmlns="http://www.w3.org/2000/svg" viewBox="0 0 59.43 54.22"><defs><style>.cls-1{fill:#ef3e51;}.cls-2{fill:#f26e6b;}.cls-3{fill:#792545;}.cls-4{fill:#393156;}.cls-5{fill:#5e546d;}.cls-6{fill:#4c6db4;}.cls-7{fill:#524960;}.cls-8{fill:#6380c0;}.cls-9{fill:#8faddb;}.cls-10{fill:#c5adae;}.cls-11{fill:#fff9e8;}</style></defs><g id="Layer_2" data-name="Layer 2"><g id="Layer_2-2" data-name="Layer 2"><polygon class="cls-1" points="2.64 34.3 2.52 34.36 2.42 34.43 2.3 34.5 2.19 34.56 2.19 33.29 2.19 32.02 2.19 30.74 2.19 29.47 2.3 29.4 2.42 29.34 2.52 29.27 2.64 29.2 2.64 30.48 2.64 31.75 2.64 33.02 2.64 34.3 2.64 34.3"/><polygon class="cls-2" points="2.64 29.2 1.91 28.78 1.18 28.36 0.45 27.94 0.33 28 0.22 28.07 0.11 28.14 0 28.21 0.73 28.63 1.46 29.05 2.19 29.47 2.64 29.2 2.64 29.2"/><polyline class="cls-3" points="0 28.26 0 29.54 0 30.81 0 32.09 0 33.36 0 33.36 0.73 33.78 1.46 34.2 2.19 34.62 2.19 29.53"/><path class="cls-4" d="M3.22,34.26l-1.79-1a.4.4,0,0,1-.2-.34V30.16a.37.37,0,0,1,.2-.34.35.35,0,0,1,.39,0l1.5.86-.12.2L1.7,30H1.55l-.08.14v2.72l.08.14,1.79,1-.12.21Z"/><polyline class="cls-3" points="24.79 44.54 28.96 46.95 28.96 42.78 24.79 40.37 24.79 44.54"/><polygon class="cls-3" points="53.36 27.96 57.53 30.36 57.53 26.2 53.36 23.79 53.36 27.96 53.36 27.96"/><path class="cls-4" d="M26.22,46.64l1.18-1.7-2-1.16c-.75-.55-1.94-.5-3.28.27C19.88,45.37,18,48.29,18,50.57a2.32,2.32,0,0,0,1,2.11l2.14,1.26,1.21-1.75a9,9,0,0,0,3.85-5.55Z"/><path class="cls-5" d="M28.44,47.07c0,2.28-1.85,5.19-4.13,6.51s-4.13.54-4.13-1.75,1.85-5.19,4.13-6.51,4.13-.54,4.13,1.75Z"/><path class="cls-4" d="M22.25,53c-.25,0-.89,0-.89-1.2a7.37,7.37,0,0,1,3.54-5.48,3.15,3.15,0,0,1,1.47-.48c.24,0,.88,0,.88,1.2a7.39,7.39,0,0,1-3.53,5.48,3.15,3.15,0,0,1-1.47.48Z"/><path class="cls-4" d="M54.77,30.18,56,28.48l-2-1.15c-.76-.55-1.94-.5-3.28.27-2.28,1.32-4.13,4.23-4.13,6.52a2.27,2.27,0,0,0,1,2.1l2.14,1.27,1.21-1.75a9,9,0,0,0,3.85-5.56Z"/><path class="cls-5" d="M57,30.61c0,2.28-1.85,5.2-4.13,6.52s-4.13.53-4.13-1.75,1.85-5.2,4.13-6.52S57,28.33,57,30.61Z"/><path class="cls-4" d="M50.79,36.58c-.24,0-.88,0-.88-1.2a7.39,7.39,0,0,1,3.54-5.49,3.15,3.15,0,0,1,1.47-.48c.24,0,.88,0,.88,1.2a7.39,7.39,0,0,1-3.54,5.49,3.08,3.08,0,0,1-1.47.48Z"/><path class="cls-1" d="M59.43,8.11V29a.59.59,0,0,1-.34.47l-1.56.9c-.07-2.17-1.89-2.89-4.13-1.6a8.63,8.63,0,0,0-4.12,6.37l-14.23,8.3L29,47c0-2.25-1.86-3-4.13-1.71a8.58,8.58,0,0,0-4.13,6.48l-2.94,1.69a1.65,1.65,0,0,1-.81.2,1.69,1.69,0,0,1-.82-.2L9.68,49.69,3.23,46a.62.62,0,0,1-.33-.4v-.13A.66.66,0,0,1,3.23,45l14.53-8.39V32.54L57.86,8.37l1.57-.26"/><path class="cls-3" d="M17.76,35V50.55a1.65,1.65,0,0,1-.81.2,1.69,1.69,0,0,1-.82-.2L9.68,46.83,3.23,43.1a.62.62,0,0,1-.33-.4V27.18a.62.62,0,0,0,.33.4l6.45,3.73L16.13,35a1.69,1.69,0,0,0,.82.2,1.65,1.65,0,0,0,.81-.2Z"/><path class="cls-4" d="M16.28,43.41a.38.38,0,0,1-.57.33L3.38,36.63a.38.38,0,0,1-.18-.33V28.57a.38.38,0,0,1,.57-.33l12.32,7.1a.37.37,0,0,1,.19.33v7.74Z"/><path class="cls-6" d="M15.9,43.62l-.1,0L3.47,36.47l-.1-.17V28.57a.21.21,0,0,1,.21-.21l.1,0L16,35.49l.1.18v7.74a.2.2,0,0,1-.2.21Z"/><path class="cls-7" d="M18.5,43.41a.38.38,0,0,0,.57.33L58.79,20.62A.36.36,0,0,0,59,20.3V12.57a.39.39,0,0,0-.57-.34L18.69,35.34a.37.37,0,0,0-.19.33v7.74"/><polyline class="cls-8" points="24.26 32.3 24.26 40.52 18.98 43.59 18.88 43.61 18.69 43.49 18.69 35.59 18.78 35.49 24.26 32.3"/><polyline class="cls-8" points="30.03 28.95 30.03 37.16 24.46 40.4 24.46 32.18 30.03 28.95"/><polyline class="cls-8" points="35.8 25.59 35.8 33.8 30.23 37.04 30.23 28.83 35.8 25.59"/><polyline class="cls-8" points="41.57 22.23 41.57 30.44 38.37 32.3 36 33.68 36 25.47 39.77 23.28 41.57 22.23"/><polygon class="cls-8" points="47.34 18.87 47.34 27.08 41.77 30.32 41.77 22.11 47.34 18.87 47.34 18.87"/><polygon class="cls-8" points="53.11 15.52 53.11 23.72 47.54 26.96 47.54 18.75 53.11 15.52 53.11 15.52"/><path class="cls-8" d="M58.8,12.57V20.3l-.1.16L53.31,23.6V15.4l5.18-3,.1,0a.21.21,0,0,1,.21.21Z"/><path class="cls-4" d="M17.76,50.55v2.86a1.65,1.65,0,0,1-.81.2,1.69,1.69,0,0,1-.82-.2L9.68,49.69,3.23,46a.62.62,0,0,1-.33-.4V42.7a.62.62,0,0,0,.33.4l6.45,3.73,6.45,3.72a1.69,1.69,0,0,0,.82.2,1.65,1.65,0,0,0,.81-.2Z"/><path class="cls-4" d="M17.76,32.43V35a1.65,1.65,0,0,1-.81.2,1.69,1.69,0,0,1-.82-.2L9.68,31.31,3.23,27.58a.62.62,0,0,1-.33-.4V24.56l14.86,7.87Z"/><path class="cls-2" d="M59.09,8.58l-17.29,10-24,14a1.64,1.64,0,0,1-.81.19,1.68,1.68,0,0,1-.82-.19L9.68,28.81,3.23,25.09a.49.49,0,0,1,0-.94l17.29-10,24-14A1.64,1.64,0,0,1,45.37,0a1.68,1.68,0,0,1,.82.19l6.45,3.73,6.45,3.72a.59.59,0,0,1,.34.47.59.59,0,0,1-.34.47Z"/><path class="cls-5" d="M16.3,20.91l5.62,3.24a1,1,0,0,0,.92,0l3.64-2.1c.26-.15.26-.39,0-.53l-5.62-3.25a1.06,1.06,0,0,0-.92,0L16.3,20.38c-.26.14-.26.38,0,.53Z"/><path class="cls-2" d="M22.1,24.05a.61.61,0,0,0,.56,0l3.64-2.11c.16-.08.16-.23,0-.32l-5.62-3.24a.61.61,0,0,0-.56,0l-3.64,2.1c-.16.09-.16.23,0,.32l5.62,3.25Z"/><path class="cls-5" d="M38.18,8l5.62,3.25a1.06,1.06,0,0,0,.92,0l3.65-2.11a.28.28,0,0,0,0-.53L42.75,5.37a1,1,0,0,0-.92,0l-3.65,2.1a.28.28,0,0,0,0,.53Z"/><path class="cls-2" d="M44,11.14a.61.61,0,0,0,.56,0L48.19,9a.18.18,0,0,0,0-.33L42.57,5.47a.61.61,0,0,0-.56,0l-3.65,2.1a.18.18,0,0,0,0,.33L44,11.14Z"/><polyline class="cls-9" points="18.88 43.61 18.69 43.49 18.69 35.59 18.78 35.49 24.26 32.3 24.26 40.52 18.98 43.59 18.88 43.61"/><polyline class="cls-9" points="24.46 40.4 24.46 32.18 30.03 28.95 30.03 37.16 24.46 40.4"/><polyline class="cls-9" points="30.23 37.04 30.23 28.83 35.8 25.59 35.8 33.8 30.23 37.04"/><polyline class="cls-9" points="36 33.68 36 25.47 39.77 23.28 38.37 32.3 36 33.68"/><polygon class="cls-5" points="11.53 50.2 6.46 47.27 6.46 45.59 11.53 48.51 11.53 50.2 11.53 50.2"/><polygon class="cls-1" points="21.6 43.44 21.49 43.5 21.38 43.57 21.27 43.64 21.15 43.7 21.15 42.43 21.15 41.16 21.15 39.88 21.15 38.61 21.27 38.54 21.38 38.48 21.49 38.41 21.6 38.34 21.6 39.62 21.6 40.89 21.6 42.16 21.6 43.44 21.6 43.44"/><polygon class="cls-3" points="18.96 42.44 19.69 42.86 20.42 43.28 21.15 43.71 21.15 38.61 20.42 38.19 19.69 37.77 18.96 37.35 18.96 38.62 18.96 39.89 18.96 41.17 18.96 42.44 18.96 42.44"/><polygon class="cls-2" points="21.6 38.34 20.87 37.92 20.14 37.5 19.41 37.08 19.3 37.14 19.18 37.21 19.07 37.28 18.96 37.35 19.69 37.77 20.42 38.19 21.15 38.61 21.6 38.34 21.6 38.34"/><path class="cls-4" d="M19.74,42.06l-.2-.05L18,41.13l.12-.2,1.52.87h.16l.07-.13V38.94l-.07-.14-1.8-1,.12-.21,1.79,1a.4.4,0,0,1,.2.34v2.73a.38.38,0,0,1-.2.34l-.19.05Z"/><path class="cls-5" d="M15.07,52.41a1.07,1.07,0,0,1-.53-.16,2,2,0,0,1-1-1.57.59.59,0,0,1,.58-.66,1.18,1.18,0,0,1,.53.16,2.08,2.08,0,0,1,1,1.58.73.73,0,0,1-.16.48.56.56,0,0,1-.42.17Z"/><path class="cls-10" d="M13.66,50.68a2,2,0,0,0,.94,1.48c.52.29.94.12.94-.4a1.94,1.94,0,0,0-.94-1.48c-.52-.3-.94-.12-.94.4Z"/><path class="cls-11" d="M15.07,52.11c.23,0,.28-.19.28-.35a1.75,1.75,0,0,0-.85-1.31.73.73,0,0,0-.37-.12c-.23,0-.27.19-.27.35A1.75,1.75,0,0,0,14.7,52a.73.73,0,0,0,.37.12Z"/><path class="cls-5" d="M4.84,46.44a1.07,1.07,0,0,1-.53-.16,2,2,0,0,1-1-1.57.59.59,0,0,1,.58-.66,1.18,1.18,0,0,1,.53.16,2.08,2.08,0,0,1,1,1.58.68.68,0,0,1-.16.48.56.56,0,0,1-.42.17Z"/><path class="cls-10" d="M3.43,44.71a2,2,0,0,0,.94,1.48c.52.29.94.12.94-.4a1.94,1.94,0,0,0-.94-1.48c-.52-.3-.94-.12-.94.4Z"/><path class="cls-11" d="M4.84,46.14c.23,0,.28-.19.28-.35a1.75,1.75,0,0,0-.85-1.31.73.73,0,0,0-.37-.12c-.23,0-.27.19-.27.35A1.75,1.75,0,0,0,4.47,46a.73.73,0,0,0,.37.12Z"/></g></g></svg>