<svg xmlns="http://www.w3.org/2000/svg" viewBox="0 0 77.79 76.2"><defs><style>.cls-1{fill:#c0c7ce;}.cls-2{fill:#5f9ab4;}.cls-3{fill:#939598;}.cls-4{fill:#d7e4e8;}.cls-5{fill:#b5c2ce;}.cls-6{fill:#27aae1;}.cls-7{fill:#8dbbd3;}.cls-8{fill:#6d6e71;}.cls-9{fill:#a7a9ac;}.cls-10{fill:#d1d3d4;}.cls-11{fill:#bcbec0;}.cls-12{fill:#7e7f82;}.cls-13{fill:#58595b;}</style></defs><g id="Layer_2" data-name="Layer 2"><g id="Layer_2-2" data-name="Layer 2"><polygon class="cls-1" points="61.23 35.78 51.64 30.27 51.8 50.74 61.36 56.31 61.23 35.78 61.23 35.78"/><polygon class="cls-2" points="61.23 35.78 61.36 56.31 75.27 48.28 75.14 27.75 61.23 35.78 61.23 35.78"/><polygon class="cls-3" points="51.64 30.27 61.24 35.83 75.15 27.8 75.15 25.54 65.54 19.98 51.64 28.01 51.64 30.27 51.64 30.27"/><polygon class="cls-1" points="51.64 28.01 61.24 33.57 75.15 25.54 65.54 19.98 51.64 28.01 51.64 28.01"/><polygon class="cls-4" points="0 12.06 30.61 29.74 30.64 73.89 0.05 56.23 0 12.06 0 12.06"/><polygon class="cls-3" points="30.64 73.89 30.64 76.2 0.05 58.56 0.05 56.23 30.64 73.89 30.64 73.89"/><polygon class="cls-3" points="30.61 27.59 0 9.91 0 12.06 30.61 29.74 30.61 27.59 30.61 27.59"/><polygon class="cls-3" points="30.61 27.59 30.61 29.73 61.41 11.95 61.41 9.8 30.61 27.59 30.61 27.59"/><polygon class="cls-5" points="61.41 11.95 30.61 29.74 30.64 73.89 61.37 56.31 61.41 11.95 61.41 11.95"/><polygon class="cls-3" points="30.64 73.89 30.64 76.2 75.27 50.61 75.27 48.28 30.64 73.89 30.64 73.89"/><polygon class="cls-6" points="36.82 28.45 36.82 37.8 45.27 32.9 45.27 32.89 37.11 37.62 37.11 28.28 36.82 28.45 36.82 28.45"/><polygon class="cls-7" points="36.83 28.19 36.83 37.54 45.27 32.63 45.27 23.3 36.83 28.19 36.83 28.19"/><polygon class="cls-8" points="37.09 28.26 37.09 28.27 45.24 23.55 45.24 32.28 45.74 32.58 45.74 23.25 37.09 28.26 37.09 28.26"/><polygon class="cls-8" points="36.83 37.03 36.83 37.66 45.67 32.51 45.24 32.26 36.83 37.03 36.83 37.03"/><polygon class="cls-9" points="37.11 28.26 37.11 28.26 45.27 23.54 45.27 32.33 45.77 32.58 45.77 23.25 37.11 28.26 37.11 28.26"/><polygon class="cls-10" points="36.82 37.09 36.82 37.72 45.7 32.53 45.27 32.28 36.82 37.09 36.82 37.09"/><polygon class="cls-9" points="41.19 25.84 41.19 34.62 41.7 34.87 41.7 25.54 41.19 25.84 41.19 25.84"/><polygon class="cls-11" points="42.04 25.11 42.04 34.67 41.7 34.87 41.7 25.54 42.04 25.11 42.04 25.11"/><path class="cls-12" d="M37.19,28.32l8.51-4.93v9.14l-8.51,5V28.32Zm-.37-.19v10l9.25-5.37v-10l-9.25,5.35Z"/><polygon class="cls-6" points="36.82 43.74 36.82 53.08 45.27 48.18 45.27 48.18 37.11 52.91 37.11 43.57 36.82 43.74 36.82 43.74"/><polygon class="cls-7" points="36.83 43.47 36.83 52.82 45.27 47.91 45.27 38.59 36.83 43.47 36.83 43.47"/><polygon class="cls-8" points="37.09 43.54 37.09 43.55 45.24 38.83 45.24 47.56 45.74 47.86 45.74 38.53 37.09 43.54 37.09 43.54"/><polygon class="cls-8" points="36.83 52.32 36.83 52.94 45.67 47.8 45.24 47.55 36.83 52.32 36.83 52.32"/><polygon class="cls-9" points="37.11 43.54 37.11 43.55 45.27 38.83 45.27 47.61 45.77 47.86 45.77 38.53 37.11 43.54 37.11 43.54"/><polygon class="cls-10" points="36.82 52.38 36.82 53 45.7 47.82 45.27 47.56 36.82 52.38 36.82 52.38"/><polygon class="cls-9" points="41.19 41.12 41.19 49.91 41.7 50.16 41.7 40.83 41.19 41.12 41.19 41.12"/><polygon class="cls-11" points="42.04 40.4 42.04 49.95 41.7 50.16 41.7 40.83 42.04 40.4 42.04 40.4"/><path class="cls-12" d="M37.19,43.6l8.51-4.93v9.15l-8.51,5V43.6Zm-.37-.19v10L46.07,48v-10l-9.25,5.34Z"/><polygon class="cls-6" points="36.83 59 36.83 68.35 45.27 63.45 45.27 63.44 37.12 68.17 37.12 58.83 36.83 59 36.83 59"/><polygon class="cls-7" points="36.83 58.74 36.83 68.09 45.27 63.18 45.27 53.85 36.83 58.74 36.83 58.74"/><polygon class="cls-8" points="37.09 58.81 37.09 58.82 45.24 54.1 45.24 62.83 45.75 63.13 45.75 53.8 37.09 58.81 37.09 58.81"/><polygon class="cls-8" points="36.83 67.58 36.83 68.21 45.67 63.07 45.24 62.82 36.83 67.58 36.83 67.58"/><polygon class="cls-9" points="37.12 58.8 37.12 58.81 45.27 54.09 45.27 62.87 45.77 63.13 45.77 53.8 37.12 58.8 37.12 58.8"/><polygon class="cls-10" points="36.82 67.64 36.82 68.27 45.7 63.08 45.27 62.83 36.82 67.64 36.82 67.64"/><polygon class="cls-9" points="41.19 56.39 41.19 65.17 41.7 65.42 41.7 56.09 41.19 56.39 41.19 56.39"/><polygon class="cls-11" points="42.04 55.66 42.04 65.22 41.7 65.42 41.7 56.09 42.04 55.66 42.04 55.66"/><path class="cls-12" d="M37.19,58.87l8.51-4.93v9.14l-8.51,5V58.87Zm-.37-.19v10l9.25-5.37v-10l-9.25,5.35Z"/><polygon class="cls-7" points="51.24 19.73 51.24 29.21 54.4 27.31 54.4 17.85 51.24 19.73 51.24 19.73"/><polygon class="cls-8" points="54.36 18.1 54.36 26.95 54.88 27.26 54.88 17.8 54.36 18.1 54.36 18.1"/><polygon class="cls-8" points="51.24 28.76 51.24 29.3 54.8 27.19 54.36 26.94 51.24 28.76 51.24 28.76"/><polygon class="cls-9" points="54.39 18.1 54.39 27 54.91 27.25 54.91 17.8 54.39 18.1 54.39 18.1"/><polygon class="cls-10" points="51.24 28.79 51.24 29.35 54.83 27.21 54.39 26.96 51.24 28.79 51.24 28.79"/><path class="cls-12" d="M51.24,20l3.59-2.08v9.27L51.24,29.3V20ZM50.78,20V30l4.42-2.56v-10L50.78,20Z"/><polygon class="cls-7" points="51.23 35.02 51.23 44.5 54.39 42.61 54.39 33.15 51.23 35.02 51.23 35.02"/><polygon class="cls-8" points="54.35 33.4 54.35 42.24 54.86 42.55 54.86 33.09 54.35 33.4 54.35 33.4"/><polygon class="cls-8" points="51.23 44.06 51.23 44.59 54.79 42.49 54.35 42.23 51.23 44.06 51.23 44.06"/><polygon class="cls-9" points="54.38 33.39 54.38 42.3 54.89 42.55 54.89 33.09 54.38 33.39 54.38 33.39"/><polygon class="cls-10" points="51.23 44.08 51.23 44.64 54.82 42.51 54.38 42.25 51.23 44.08 51.23 44.08"/><path class="cls-12" d="M51.22,35.31l3.6-2.08v9.28l-3.6,2.08V35.31Zm-.45-.06v10l4.42-2.55v-10l-4.42,2.57Z"/><polygon class="cls-7" points="51.23 50.31 51.23 59.78 54.39 57.89 54.39 48.43 51.23 50.31 51.23 50.31"/><polygon class="cls-8" points="54.35 48.68 54.35 57.53 54.86 57.84 54.86 48.38 54.35 48.68 54.35 48.68"/><polygon class="cls-8" points="51.23 59.34 51.23 59.88 54.79 57.77 54.35 57.52 51.23 59.34 51.23 59.34"/><polygon class="cls-9" points="54.38 48.67 54.38 57.58 54.89 57.83 54.89 48.37 54.38 48.67 54.38 48.67"/><polygon class="cls-10" points="51.23 59.36 51.23 59.92 54.82 57.79 54.38 57.53 51.23 59.36 51.23 59.36"/><path class="cls-12" d="M51.22,50.6l3.6-2.08v9.27l-3.6,2.09V50.6Zm-.45-.07v10L55.19,58V48l-4.42,2.57Z"/><polygon class="cls-6" points="24.53 28.53 24.53 37.88 16.09 32.98 16.09 32.97 24.24 37.7 24.24 28.36 24.53 28.53 24.53 28.53"/><polygon class="cls-7" points="24.52 28.27 24.52 37.62 16.08 32.71 16.08 23.38 24.52 28.27 24.52 28.27"/><polygon class="cls-8" points="24.27 28.34 24.27 28.34 16.12 23.63 16.12 32.36 15.61 32.66 15.61 23.33 24.27 28.34 24.27 28.34"/><polygon class="cls-8" points="24.52 37.11 24.52 37.74 15.69 32.59 16.12 32.34 24.52 37.11 24.52 37.11"/><polygon class="cls-9" points="24.24 28.34 24.24 28.34 16.09 23.62 16.09 32.4 15.58 32.66 15.58 23.33 24.24 28.34 24.24 28.34"/><polygon class="cls-10" points="24.53 37.17 24.53 37.8 15.66 32.61 16.09 32.36 24.53 37.17 24.53 37.17"/><polygon class="cls-9" points="20.16 25.92 20.16 34.7 19.66 34.95 19.66 25.62 20.16 25.92 20.16 25.92"/><polygon class="cls-11" points="19.32 25.2 19.32 34.75 19.66 34.95 19.66 25.62 19.32 25.2 19.32 25.2"/><path class="cls-12" d="M24.17,37.58l-8.51-5V23.47l8.51,4.92v9.19ZM15.29,22.86v10l9.24,5.37v-10l-9.24-5.35Z"/><polygon class="cls-6" points="24.53 43.82 24.53 53.16 16.09 48.26 16.09 48.26 24.24 52.99 24.24 43.65 24.53 43.82 24.53 43.82"/><polygon class="cls-7" points="24.52 43.55 24.52 52.9 16.08 47.99 16.08 38.66 24.52 43.55 24.52 43.55"/><polygon class="cls-8" points="24.27 43.62 24.27 43.63 16.12 38.91 16.12 47.64 15.61 47.94 15.61 38.61 24.27 43.62 24.27 43.62"/><polygon class="cls-8" points="24.52 52.4 24.52 53.02 15.69 47.88 16.12 47.63 24.52 52.4 24.52 52.4"/><polygon class="cls-9" points="24.24 43.62 24.24 43.63 16.09 38.91 16.09 47.69 15.58 47.94 15.58 38.61 24.24 43.62 24.24 43.62"/><polygon class="cls-10" points="24.53 52.45 24.53 53.08 15.66 47.9 16.09 47.64 24.53 52.45 24.53 52.45"/><polygon class="cls-9" points="20.16 41.2 20.16 49.98 19.66 50.23 19.66 40.91 20.16 41.2 20.16 41.2"/><polygon class="cls-11" points="19.32 40.48 19.32 50.04 19.66 50.23 19.66 40.91 19.32 40.48 19.32 40.48"/><path class="cls-12" d="M24.17,52.87l-8.51-5V38.75l8.51,4.93v9.19ZM15.29,38.15v10l9.24,5.36v-10l-9.24-5.34Z"/><polygon class="cls-6" points="24.53 59.08 24.53 68.43 16.09 63.53 16.09 63.52 24.24 68.25 24.24 58.91 24.53 59.08 24.53 59.08"/><polygon class="cls-7" points="24.52 58.82 24.52 68.17 16.08 63.26 16.08 53.93 24.52 58.82 24.52 58.82"/><polygon class="cls-8" points="24.27 58.89 24.27 58.9 16.12 54.18 16.12 62.91 15.61 63.21 15.61 53.88 24.27 58.89 24.27 58.89"/><polygon class="cls-8" points="24.52 67.66 24.52 68.29 15.68 63.14 16.12 62.9 24.52 67.66 24.52 67.66"/><polygon class="cls-9" points="24.24 58.89 24.24 58.89 16.09 54.17 16.09 62.95 15.58 63.21 15.58 53.88 24.24 58.89 24.24 58.89"/><polygon class="cls-10" points="24.53 67.72 24.53 68.34 15.65 63.16 16.09 62.91 24.53 67.72 24.53 67.72"/><polygon class="cls-9" points="20.16 56.47 20.16 65.25 19.65 65.5 19.65 56.17 20.16 56.47 20.16 56.47"/><polygon class="cls-11" points="19.32 55.74 19.32 65.3 19.65 65.5 19.65 56.17 19.32 55.74 19.32 55.74"/><path class="cls-12" d="M24.17,68.13l-8.52-5V54L24.17,59v9.18ZM15.29,53.41v10l9.24,5.37v-10l-9.24-5.35Z"/><polygon class="cls-7" points="10.11 19.81 10.11 29.29 6.96 27.39 6.96 17.93 10.11 19.81 10.11 19.81"/><polygon class="cls-8" points="6.99 18.18 6.99 27.03 6.48 27.34 6.48 17.88 6.99 18.18 6.99 18.18"/><polygon class="cls-8" points="10.11 28.84 10.11 29.38 6.55 27.27 6.99 27.02 10.11 28.84 10.11 28.84"/><polygon class="cls-9" points="6.96 18.18 6.96 27.08 6.45 27.33 6.45 17.87 6.96 18.18 6.96 18.18"/><polygon class="cls-10" points="10.11 28.86 10.11 29.43 6.52 27.29 6.96 27.04 10.11 28.86 10.11 28.86"/><path class="cls-12" d="M10.11,29.38,6.52,27.29V18l3.59,2.08v9.28Zm-4-11.92v10l4.42,2.56V20L6.15,17.46Z"/><polygon class="cls-7" points="10.13 35.1 10.13 44.58 6.97 42.69 6.97 33.22 10.13 35.1 10.13 35.1"/><polygon class="cls-8" points="7.01 33.48 7.01 42.33 6.49 42.63 6.49 33.17 7.01 33.48 7.01 33.48"/><polygon class="cls-8" points="10.13 44.14 10.13 44.67 6.57 42.57 7.01 42.31 10.13 44.14 10.13 44.14"/><polygon class="cls-9" points="6.98 33.47 6.98 42.38 6.46 42.63 6.46 33.17 6.98 33.47 6.98 33.47"/><polygon class="cls-10" points="10.13 44.16 10.13 44.72 6.54 42.58 6.98 42.33 10.13 44.16 10.13 44.16"/><path class="cls-12" d="M10.13,44.67,6.54,42.58V33.31l3.59,2.08v9.28Zm-4-11.91v10l4.42,2.55v-10L6.17,32.76Z"/><polygon class="cls-7" points="10.13 50.39 10.13 59.86 6.97 57.97 6.97 48.51 10.13 50.39 10.13 50.39"/><polygon class="cls-8" points="7.01 48.76 7.01 57.61 6.49 57.91 6.49 48.46 7.01 48.76 7.01 48.76"/><polygon class="cls-8" points="10.13 59.42 10.13 59.96 6.57 57.85 7.01 57.6 10.13 59.42 10.13 59.42"/><polygon class="cls-9" points="6.98 48.76 6.98 57.66 6.46 57.91 6.46 48.45 6.98 48.76 6.98 48.76"/><polygon class="cls-10" points="10.13 59.44 10.13 60 6.54 57.87 6.98 57.61 10.13 59.44 10.13 59.44"/><path class="cls-12" d="M10.13,60,6.54,57.87V48.59l3.59,2.08V60ZM6.17,48v10l4.42,2.55v-10L6.17,48Z"/><polygon class="cls-1" points="44.3 0 61.41 9.8 30.61 27.59 0 9.91 16.98 0.03 30.61 7.87 44.3 0 44.3 0"/><polygon class="cls-3" points="66.71 56.89 63.5 55.05 63.5 57.36 66.71 59.19 66.71 56.89 66.71 56.89"/><polygon class="cls-1" points="66.71 56.89 63.5 55.04 73.34 49.39 76.54 51.23 66.71 56.89 66.71 56.89"/><polygon class="cls-3" points="66.71 59.19 66.71 56.89 76.54 51.23 76.54 53.53 66.71 59.19 66.71 59.19"/><polygon class="cls-3" points="64.07 54.72 64.07 39.43 73.04 34.25 73.05 49.8 72.51 50.11 72.3 49.99 64.07 54.72 64.07 54.72"/><polygon class="cls-10" points="64.07 39.43 72.3 34.67 72.3 49.99 64.07 54.72 64.07 39.43 64.07 39.43"/><polygon class="cls-13" points="72.51 50.11 72.51 34.55 72.3 34.68 72.29 49.98 72.51 50.11 72.51 50.11"/><path class="cls-13" d="M70.77,44.32c0,.26.17.37.39.24a.94.94,0,0,0,.39-.72c0-.26-.18-.36-.39-.23a.9.9,0,0,0-.39.71Z"/><path class="cls-8" d="M70.82,44.36c0,.26.17.37.39.23a.93.93,0,0,0,.39-.71c0-.26-.18-.36-.39-.23a.89.89,0,0,0-.39.71Z"/><polygon class="cls-13" points="63.86 39.55 64.61 39.11 64.62 54.66 64.07 54.98 63.86 54.85 63.86 39.55 63.86 39.55"/><polygon class="cls-3" points="64.07 39.43 64.61 39.11 64.62 54.66 64.07 54.98 64.07 39.43 64.07 39.43"/><polygon class="cls-3" points="62.49 39.3 62.49 38.65 70.25 34.18 77.79 36.88 77.79 37.54 68.6 42.83 62.49 39.3 62.49 39.3"/><polygon class="cls-1" points="62.49 38.65 71.67 33.34 77.79 36.88 68.6 42.18 62.49 38.65 62.49 38.65"/></g></g></svg>