<svg xmlns="http://www.w3.org/2000/svg" viewBox="0 0 52.47 85.84"><defs><style>.cls-1{fill:#a7a9ac;}.cls-2{fill:#a16845;}.cls-3{fill:#c78d69;}.cls-4{fill:#d5d8e6;}.cls-5{fill:#6d6e71;}.cls-6{fill:#c0c7ce;}.cls-7{fill:#27aae1;}.cls-8{fill:#b5d4de;}.cls-9{fill:#d1d3d4;}.cls-10{fill:#bcbec0;}.cls-11{fill:#e3dbca;}.cls-12{fill:#939598;}</style></defs><g id="Layer_2" data-name="Layer 2"><g id="Layer_2-2" data-name="Layer 2"><polygon class="cls-1" points="0 10.08 0 12.73 17.56 22.9 17.56 20.26 0 10.08 0 10.08"/><polygon class="cls-2" points="52.4 22.59 34.85 32.93 34.89 83.21 52.43 73.23 52.4 22.59 52.4 22.59"/><polygon class="cls-3" points="0 12.73 34.85 32.93 34.89 83.21 0.06 63.09 0 12.73 0 12.73"/><polygon class="cls-1" points="52.47 73.08 34.89 83.21 34.89 85.84 52.47 75.62 52.47 73.08 52.47 73.08"/><polygon class="cls-1" points="34.89 83.2 34.89 85.83 0.06 65.75 0.06 63.09 34.89 83.2 34.89 83.2"/><polygon class="cls-1" points="34.85 30.28 52.38 20.09 52.4 22.59 34.85 32.92 34.85 30.28 34.85 30.28"/><polygon class="cls-1" points="17.3 20.1 17.3 22.75 34.85 32.93 34.85 30.28 17.3 20.1 17.3 20.1"/><polygon class="cls-4" points="34.85 30.48 0 10.08 17.46 0 52.38 20.09 34.85 30.48 34.85 30.48"/><polygon class="cls-5" points="21.14 20.19 22.73 21.12 34.77 28.24 46.89 21.06 48.49 20.12 34.78 12.34 21.14 20.19 21.14 20.19"/><polygon class="cls-6" points="22.73 21.12 34.77 28.24 46.89 21.06 34.78 14.19 22.73 21.12 22.73 21.12"/><polygon class="cls-5" points="4.03 10.31 5.62 11.25 17.66 18.36 29.78 11.19 31.38 10.24 17.67 2.47 4.03 10.31 4.03 10.31"/><polygon class="cls-6" points="5.62 11.25 17.66 18.36 29.78 11.19 17.67 4.32 5.62 11.25 5.62 11.25"/><polygon class="cls-7" points="25.96 33.07 25.96 41.15 18.66 36.91 18.66 36.91 25.7 40.99 25.7 32.93 25.96 33.07 25.96 33.07"/><polygon class="cls-8" points="25.95 32.84 25.95 40.92 18.66 36.68 18.66 28.62 25.95 32.84 25.95 32.84"/><polygon class="cls-5" points="25.73 32.9 25.73 32.91 18.69 28.84 18.69 36.38 18.25 36.63 18.25 28.58 25.73 32.9 25.73 32.9"/><polygon class="cls-5" points="25.95 40.49 25.95 41.02 18.32 36.58 18.69 36.36 25.95 40.49 25.95 40.49"/><polygon class="cls-1" points="25.7 32.9 25.7 32.91 18.66 28.83 18.66 36.42 18.23 36.63 18.23 28.57 25.7 32.9 25.7 32.9"/><polygon class="cls-9" points="25.96 40.53 25.96 41.08 18.29 36.6 18.66 36.38 25.96 40.53 25.96 40.53"/><polygon class="cls-1" points="22.18 30.82 22.18 38.4 21.75 38.62 21.75 30.56 22.18 30.82 22.18 30.82"/><polygon class="cls-10" points="21.45 30.19 21.45 38.45 21.75 38.62 21.75 30.56 21.45 30.19 21.45 30.19"/><path class="cls-11" d="M25.64,40.89,18.29,36.6V28.7L25.64,33v7.94ZM18,28.18v8.6l8,4.63V32.8l-8-4.62Z"/><polygon class="cls-7" points="25.96 46.27 25.96 54.35 18.66 50.11 18.66 50.11 25.7 54.2 25.7 46.13 25.96 46.27 25.96 46.27"/><polygon class="cls-8" points="25.95 46.05 25.95 54.12 18.66 49.88 18.66 41.83 25.95 46.05 25.95 46.05"/><polygon class="cls-5" points="25.73 46.11 25.73 46.11 18.69 42.04 18.69 49.58 18.25 49.84 18.25 41.78 25.73 46.11 25.73 46.11"/><polygon class="cls-5" points="25.95 53.69 25.95 54.23 18.32 49.78 18.69 49.57 25.95 53.69 25.95 53.69"/><polygon class="cls-1" points="25.7 46.11 25.7 46.11 18.66 42.03 18.66 49.62 18.23 49.84 18.23 41.78 25.7 46.11 25.7 46.11"/><polygon class="cls-9" points="25.96 53.74 25.96 54.28 18.29 49.8 18.66 49.58 25.96 53.74 25.96 53.74"/><polygon class="cls-1" points="22.18 44.02 22.18 51.6 21.75 51.82 21.75 43.76 22.18 44.02 22.18 44.02"/><polygon class="cls-10" points="21.45 43.39 21.45 51.65 21.75 51.82 21.75 43.76 21.45 43.39 21.45 43.39"/><path class="cls-11" d="M25.64,54.1l-7.35-4.3V41.9l7.35,4.26V54.1ZM18,41.38V50l8,4.64V46l-8-4.62Z"/><polygon class="cls-7" points="25.96 59.47 25.96 67.54 18.66 63.3 18.66 63.3 25.7 67.39 25.7 59.32 25.96 59.47 25.96 59.47"/><polygon class="cls-8" points="25.95 59.23 25.95 67.31 18.66 63.07 18.66 55.02 25.95 59.23 25.95 59.23"/><polygon class="cls-5" points="25.73 59.29 25.73 59.3 18.69 55.23 18.69 62.77 18.25 63.03 18.25 54.97 25.73 59.29 25.73 59.29"/><polygon class="cls-5" points="25.95 66.88 25.95 67.42 18.32 62.97 18.69 62.76 25.95 66.88 25.95 66.88"/><polygon class="cls-1" points="25.7 59.29 25.7 59.3 18.66 55.22 18.66 62.81 18.23 63.03 18.23 54.97 25.7 59.29 25.7 59.29"/><polygon class="cls-9" points="25.96 66.92 25.96 67.47 18.29 62.99 18.66 62.77 25.96 66.92 25.96 66.92"/><polygon class="cls-1" points="22.18 57.2 22.18 64.79 21.75 65.01 21.75 56.95 22.18 57.2 22.18 57.2"/><polygon class="cls-10" points="21.45 56.58 21.45 64.83 21.75 65.01 21.75 56.95 21.45 56.58 21.45 56.58"/><path class="cls-11" d="M25.64,67.28,18.29,63v-7.9l7.35,4.25v7.94ZM18,54.56v8.61l8,4.64V59.19l-8-4.63Z"/><polygon class="cls-8" points="13.5 25.54 13.5 33.72 10.78 32.09 10.78 23.92 13.5 25.54 13.5 25.54"/><polygon class="cls-5" points="10.81 24.13 10.81 31.77 10.36 32.04 10.36 23.87 10.81 24.13 10.81 24.13"/><polygon class="cls-5" points="13.5 33.34 13.5 33.8 10.43 31.98 10.81 31.76 13.5 33.34 13.5 33.34"/><polygon class="cls-1" points="10.78 24.13 10.78 31.82 10.34 32.03 10.34 23.86 10.78 24.13 10.78 24.13"/><polygon class="cls-9" points="13.5 33.36 13.5 33.85 10.4 32 10.78 31.78 13.5 33.36 13.5 33.36"/><path class="cls-11" d="M13.5,33.8,10.4,32V24l3.1,1.8v8ZM10.08,23.51v8.67l3.82,2.21V25.73l-3.82-2.22Z"/><polygon class="cls-8" points="13.52 38.75 13.52 46.94 10.79 45.3 10.79 37.13 13.52 38.75 13.52 38.75"/><polygon class="cls-5" points="10.82 37.34 10.82 44.99 10.38 45.25 10.38 37.08 10.82 37.34 10.82 37.34"/><polygon class="cls-5" points="13.52 46.55 13.52 47.02 10.44 45.2 10.82 44.98 13.52 46.55 13.52 46.55"/><polygon class="cls-1" points="10.79 37.34 10.79 45.03 10.35 45.25 10.35 37.08 10.79 37.34 10.79 37.34"/><polygon class="cls-9" points="13.52 46.57 13.52 47.06 10.42 45.21 10.79 44.99 13.52 46.57 13.52 46.57"/><path class="cls-11" d="M13.52,47l-3.1-1.81v-8l3.1,1.8v8Zm-3.43-10.3V45.4l3.81,2.2V38.94l-3.82-2.22Z"/><polygon class="cls-8" points="13.52 51.95 13.52 60.14 10.79 58.5 10.79 50.33 13.52 51.95 13.52 51.95"/><polygon class="cls-5" points="10.82 50.55 10.82 58.19 10.38 58.45 10.38 50.28 10.82 50.55 10.82 50.55"/><polygon class="cls-5" points="13.52 59.75 13.52 60.22 10.44 58.4 10.82 58.18 13.52 59.75 13.52 59.75"/><polygon class="cls-1" points="10.79 50.54 10.79 58.23 10.35 58.45 10.35 50.28 10.79 50.54 10.79 50.54"/><polygon class="cls-9" points="13.52 59.77 13.52 60.26 10.42 58.41 10.79 58.2 13.52 59.77 13.52 59.77"/><path class="cls-11" d="M13.52,60.22l-3.1-1.81v-8l3.1,1.79v8Zm-3.43-10.3V58.6l3.81,2.2V52.15l-3.82-2.23Z"/><polygon class="cls-12" points="5.7 58.23 9.12 56.26 9.12 59.42 5.7 61.4 5.7 58.23 5.7 58.23"/><polygon class="cls-1" points="9.12 56.26 8.27 55.76 5.62 57.31 5.7 58.23 9.12 56.26 9.12 56.26"/><polygon class="cls-12" points="13.47 61.85 16.14 60.31 16.15 64.86 13.47 66.42 13.47 61.85 13.47 61.85"/><polygon class="cls-6" points="13.47 61.85 5.62 57.31 5.62 61.89 13.47 66.42 13.47 61.85 13.47 61.85"/><polygon class="cls-1" points="5.62 57.31 6.35 56.88 14.2 61.42 13.47 61.85 5.62 57.31 5.62 57.31"/><polygon class="cls-1" points="16.14 60.31 15.3 59.82 12.62 61.36 13.47 61.85 16.14 60.31 16.14 60.31"/><polygon class="cls-12" points="5.71 45.03 9.13 43.05 9.13 46.21 5.71 48.2 5.71 45.03 5.71 45.03"/><polygon class="cls-1" points="9.13 43.05 8.28 42.56 5.63 44.11 5.71 45.03 9.13 43.05 9.13 43.05"/><polygon class="cls-12" points="13.48 48.65 16.15 47.1 16.16 51.67 13.48 53.22 13.48 48.65 13.48 48.65"/><polygon class="cls-6" points="13.48 48.65 5.63 44.11 5.63 48.69 13.48 53.22 13.48 48.65 13.48 48.65"/><polygon class="cls-1" points="5.63 44.11 6.36 43.67 14.21 48.21 13.48 48.65 5.63 44.11 5.63 44.11"/><polygon class="cls-1" points="16.15 47.1 15.31 46.61 12.63 48.16 13.48 48.65 16.15 47.1 16.15 47.1"/><polygon class="cls-12" points="5.71 31.83 9.13 29.84 9.13 33.01 5.71 34.99 5.71 31.83 5.71 31.83"/><polygon class="cls-1" points="9.13 29.84 8.28 29.35 5.63 30.9 5.71 31.83 9.13 29.84 9.13 29.84"/><polygon class="cls-12" points="13.48 35.44 16.15 33.9 16.16 38.47 13.48 40.02 13.48 35.44 13.48 35.44"/><polygon class="cls-6" points="13.48 35.44 5.63 30.9 5.63 35.48 13.48 40.02 13.48 35.44 13.48 35.44"/><polygon class="cls-1" points="5.63 30.9 6.36 30.47 14.21 35.01 13.48 35.44 5.63 30.9 5.63 30.9"/><polygon class="cls-1" points="16.15 33.9 15.31 33.41 12.63 34.95 13.48 35.44 16.15 33.9 16.15 33.9"/><polygon class="cls-7" points="39.9 35.24 39.9 43.31 47.2 39.08 47.2 39.08 40.16 43.16 40.16 35.09 39.9 35.24 39.9 35.24"/><polygon class="cls-8" points="39.91 35.01 39.91 43.09 47.2 38.85 47.2 30.79 39.91 35.01 39.91 35.01"/><polygon class="cls-5" points="40.13 35.07 40.13 35.08 47.17 31 47.17 38.54 47.61 38.8 47.61 30.75 40.13 35.07 40.13 35.07"/><polygon class="cls-5" points="39.91 42.65 39.91 43.19 47.55 38.75 47.17 38.53 39.91 42.65 39.91 42.65"/><polygon class="cls-1" points="40.16 35.07 40.16 35.07 47.2 31 47.2 38.58 47.63 38.8 47.63 30.74 40.16 35.07 40.16 35.07"/><polygon class="cls-9" points="39.9 42.7 39.9 43.24 47.57 38.76 47.2 38.54 39.9 42.7 39.9 42.7"/><polygon class="cls-1" points="43.67 32.98 43.67 40.57 44.12 40.78 44.12 32.72 43.67 32.98 43.67 32.98"/><polygon class="cls-10" points="44.41 32.35 44.41 40.61 44.12 40.78 44.12 32.72 44.41 32.35 44.41 32.35"/><path class="cls-11" d="M40.22,35.12l7.35-4.26v7.9l-7.35,4.3V35.12ZM39.9,35v8.62l8-4.64v-8.6L39.9,35Z"/><polygon class="cls-7" points="39.9 48.44 39.9 56.52 47.2 52.28 47.2 52.28 40.16 56.37 40.16 48.29 39.9 48.44 39.9 48.44"/><polygon class="cls-8" points="39.91 48.21 39.91 56.29 47.2 52.05 47.2 43.99 39.91 48.21 39.91 48.21"/><polygon class="cls-5" points="40.13 48.27 40.13 48.28 47.17 44.21 47.17 51.75 47.61 52.01 47.61 43.95 40.13 48.27 40.13 48.27"/><polygon class="cls-5" points="39.91 55.85 39.91 56.4 47.55 51.95 47.17 51.73 39.91 55.85 39.91 55.85"/><polygon class="cls-1" points="40.16 48.27 40.16 48.27 47.2 44.2 47.2 51.78 47.63 52 47.63 43.94 40.16 48.27 40.16 48.27"/><polygon class="cls-9" points="39.9 55.9 39.9 56.44 47.57 51.96 47.2 51.75 39.9 55.9 39.9 55.9"/><path class="cls-11" d="M40.22,48.32l7.35-4.25V52l-7.35,4.3V48.32Zm-.32-.16v8.62l8-4.64v-8.6l-8,4.62Z"/><polygon class="cls-7" points="39.9 61.63 39.9 69.7 47.2 65.47 47.2 65.47 40.16 69.55 40.16 61.48 39.9 61.63 39.9 61.63"/><polygon class="cls-8" points="39.91 61.4 39.91 69.48 47.2 65.24 47.2 57.18 39.91 61.4 39.91 61.4"/><polygon class="cls-5" points="40.13 61.46 40.13 61.47 47.17 57.39 47.17 64.93 47.61 65.19 47.61 57.13 40.13 61.46 40.13 61.46"/><polygon class="cls-5" points="39.91 69.04 39.91 69.58 47.55 65.14 47.17 64.92 39.91 69.04 39.91 69.04"/><polygon class="cls-1" points="40.16 61.46 40.16 61.46 47.2 57.39 47.2 64.97 47.63 65.19 47.63 57.13 40.16 61.46 40.16 61.46"/><polygon class="cls-9" points="39.9 69.09 39.9 69.63 47.57 65.15 47.2 64.94 39.9 69.09 39.9 69.09"/><path class="cls-11" d="M40.22,61.51l7.35-4.26v7.9l-7.35,4.3V61.51Zm-.32-.16V70l8-4.64v-8.6l-8,4.62Z"/></g></g></svg>