<svg xmlns="http://www.w3.org/2000/svg" viewBox="0 0 38.05 69.15"><defs><style>.cls-1{fill:#1d2021;}.cls-2{fill:#f6ca88;}.cls-3{fill:#e3a546;}.cls-4{fill:#a7a9ac;}.cls-5{fill:#939598;}.cls-6{fill:#c0c7ce;}.cls-7{fill:#e4dbcc;}.cls-8{fill:#6d6e71;}.cls-9{fill:#8dbbd3;}.cls-10{fill:#d1d3d4;}.cls-11{fill:#bcbec0;}.cls-12{fill:#e3dbca;}</style></defs><g id="Layer_2" data-name="Layer 2"><g id="Layer_2-2" data-name="Layer 2"><polygon class="cls-1" points="34.53 50.24 34.46 50.2 34.46 40.46 34.53 40.51 34.53 50.24 34.53 50.24"/><polygon class="cls-2" points="38.04 54.03 15.9 66.81 15.88 24.2 38.04 11.41 38.04 54.03 38.04 54.03"/><polygon class="cls-3" points="15.9 66.81 0.06 57.69 0.06 15.05 15.88 24.19 15.9 66.81 15.9 66.81"/><polygon class="cls-4" points="38.04 56.38 15.9 69.15 15.88 66.79 38.04 54 38.04 56.38 38.04 56.38"/><polygon class="cls-5" points="15.9 69.15 0.06 60.03 0.06 57.65 15.88 66.79 15.9 69.15 15.9 69.15"/><polygon class="cls-6" points="38.04 11.4 15.88 24.19 0.06 15.05 22.19 2.27 38.04 11.4 38.04 11.4"/><polygon class="cls-5" points="38.05 10.57 15.97 23.32 0.06 14.15 0.06 12.78 22.27 1.4 38.04 9.13 38.05 10.57 38.05 10.57"/><polygon class="cls-7" points="38.04 9.13 15.88 21.92 0.06 12.78 22.19 0 38.04 9.13 38.04 9.13"/><polygon class="cls-5" points="15.89 40.98 15.89 41.97 0.01 32.77 0.01 31.83 15.89 40.98 15.89 40.98"/><polygon class="cls-8" points="38.04 28.18 38.04 27.9 15.89 40.75 0.24 31.69 0.01 31.83 15.89 40.99 15.89 41.97 38.04 28.18 38.04 28.18"/><polygon class="cls-4" points="15.88 40.99 15.89 41.97 38.05 29.17 38.04 28.18 15.88 40.99 15.88 40.99"/><polygon class="cls-5" points="15.88 53.32 15.88 54.3 0 45.1 0 44.16 15.88 53.32 15.88 53.32"/><polygon class="cls-8" points="38.03 40.52 38.03 40.23 15.88 53.08 0.24 44.02 0 44.16 15.88 53.32 15.88 54.3 38.03 40.52 38.03 40.52"/><polygon class="cls-4" points="15.87 53.32 15.88 54.3 38.04 41.5 38.03 40.52 15.87 53.32 15.87 53.32"/><polygon class="cls-5" points="15.89 28.11 15.89 29.09 0.01 19.9 0.01 18.95 15.89 28.11 15.89 28.11"/><polygon class="cls-8" points="38.04 15.31 38.04 15.03 15.89 27.88 0.24 18.82 0.01 18.95 15.89 28.12 15.89 29.09 38.04 15.31 38.04 15.31"/><polygon class="cls-4" points="15.88 28.12 15.89 29.09 38.05 16.3 38.04 15.31 15.88 28.12 15.88 28.12"/><polygon class="cls-9" points="12.67 29.66 12.67 35.81 3.86 30.7 3.86 24.57 12.67 29.66 12.67 29.66"/><polygon class="cls-8" points="3.9 24.82 3.9 30.58 3.37 30.9 3.37 24.51 3.9 24.82 3.9 24.82"/><polygon class="cls-8" points="12.55 35.49 12.55 36.14 3.45 30.83 3.9 30.57 12.55 35.49 12.55 35.49"/><polygon class="cls-4" points="12.38 29.73 12.38 29.74 3.87 24.82 3.87 30.63 3.34 30.89 3.34 24.51 12.38 29.73 12.38 29.73"/><polygon class="cls-10" points="12.68 35.61 12.68 36.26 3.42 30.85 3.87 30.59 12.68 35.61 12.68 35.61"/><polygon class="cls-4" points="8.12 27.22 8.12 33.03 7.59 33.29 7.59 26.9 8.12 27.22 8.12 27.22"/><polygon class="cls-11" points="7.24 26.46 7.24 33.08 7.59 33.29 7.59 26.9 7.24 26.46 7.24 26.46"/><path class="cls-12" d="M12.3,29.8V36L3.42,30.85V24.66L12.3,29.8Zm.38-.2L3,24v7l9.64,5.6V29.6Z"/><polygon class="cls-9" points="12.64 42.67 12.64 48.82 3.83 43.7 3.83 37.58 12.64 42.67 12.64 42.67"/><polygon class="cls-8" points="3.87 37.83 3.87 43.59 3.34 43.9 3.34 37.52 3.87 37.83 3.87 37.83"/><polygon class="cls-8" points="12.52 48.49 12.52 49.14 3.41 43.84 3.87 43.58 12.52 48.49 12.52 48.49"/><polygon class="cls-4" points="12.34 42.74 12.34 42.75 3.84 37.83 3.84 43.64 3.31 43.9 3.31 37.52 12.34 42.74 12.34 42.74"/><polygon class="cls-10" points="12.65 48.61 12.65 49.27 3.38 43.85 3.84 43.59 12.65 48.61 12.65 48.61"/><polygon class="cls-4" points="8.09 40.22 8.09 46.03 7.56 46.3 7.56 39.91 8.09 40.22 8.09 40.22"/><polygon class="cls-11" points="7.2 39.46 7.2 46.09 7.56 46.3 7.56 39.91 7.2 39.46 7.2 39.46"/><path class="cls-12" d="M12.26,42.8V49L3.38,43.85V37.66l8.88,5.14Zm.39-.19L3,37v7l9.65,5.6V42.61Z"/><polygon class="cls-9" points="12.64 55.04 12.64 61.19 3.83 56.07 3.83 49.94 12.64 55.04 12.64 55.04"/><polygon class="cls-8" points="3.86 50.2 3.86 55.96 3.33 56.27 3.33 49.89 3.86 50.2 3.86 50.2"/><polygon class="cls-8" points="12.52 60.86 12.52 61.51 3.41 56.21 3.86 55.95 12.52 60.86 12.52 60.86"/><polygon class="cls-4" points="12.34 55.11 12.34 55.12 3.83 50.2 3.83 56.01 3.3 56.27 3.3 49.88 12.34 55.11 12.34 55.11"/><polygon class="cls-10" points="12.64 60.98 12.64 61.63 3.38 56.23 3.83 55.96 12.64 60.98 12.64 60.98"/><polygon class="cls-4" points="8.09 52.59 8.09 58.4 7.55 58.67 7.55 52.28 8.09 52.59 8.09 52.59"/><polygon class="cls-11" points="7.2 51.83 7.2 58.46 7.55 58.67 7.55 52.28 7.2 51.83 7.2 51.83"/><path class="cls-12" d="M12.26,55.17v6.24L3.38,56.23V50l8.88,5.14Zm.38-.19L3,49.4v7l9.64,5.61V55Z"/><polygon class="cls-9" points="16.72 31.03 16.72 37.17 25.53 32.06 25.53 25.93 16.72 31.03 16.72 31.03"/><polygon class="cls-8" points="25.49 26.18 25.49 31.95 26.02 32.26 26.02 25.87 25.49 26.18 25.49 26.18"/><polygon class="cls-8" points="16.84 36.84 16.84 37.5 25.94 32.19 25.49 31.93 16.84 36.84 16.84 36.84"/><polygon class="cls-4" points="17.02 31.09 17.02 31.1 25.52 26.18 25.52 32 26.05 32.26 26.05 25.87 17.02 31.09 17.02 31.09"/><polygon class="cls-10" points="16.71 36.97 16.71 37.62 25.97 32.21 25.52 31.95 16.71 36.97 16.71 36.97"/><polygon class="cls-4" points="21.27 28.58 21.27 34.39 21.8 34.65 21.8 28.27 21.27 28.58 21.27 28.58"/><polygon class="cls-11" points="22.15 27.82 22.15 34.44 21.8 34.65 21.8 28.27 22.15 27.82 22.15 27.82"/><path class="cls-12" d="M17.09,37.4V31.16L26,26v6.19L17.09,37.4Zm9.26-12L16.71,31V38l9.64-5.6v-7Z"/><polygon class="cls-9" points="27.59 24.74 27.59 30.89 36.4 25.77 36.4 19.64 27.59 24.74 27.59 24.74"/><polygon class="cls-8" points="36.36 19.9 36.36 25.66 36.89 25.97 36.89 19.59 36.36 19.9 36.36 19.9"/><polygon class="cls-8" points="27.71 30.56 27.71 31.21 36.82 25.9 36.36 25.64 27.71 30.56 27.71 30.56"/><polygon class="cls-4" points="27.89 24.81 27.89 24.81 36.4 19.89 36.4 25.71 36.92 25.97 36.92 19.58 27.89 24.81 27.89 24.81"/><polygon class="cls-10" points="27.58 30.68 27.58 31.33 36.85 25.92 36.4 25.66 27.58 30.68 27.58 30.68"/><polygon class="cls-4" points="32.14 22.29 32.14 28.1 32.67 28.36 32.67 21.98 32.14 22.29 32.14 22.29"/><polygon class="cls-11" points="33.03 21.53 33.03 28.16 32.67 28.36 32.67 21.98 33.03 21.53 33.03 21.53"/><path class="cls-12" d="M28,31.11V24.87l8.88-5.14v6.19L28,31.11Zm9.26-12-9.64,5.58v7.06l9.64-5.6v-7Z"/><polygon class="cls-9" points="16.66 44.06 16.66 50.21 25.47 45.1 25.47 38.97 16.66 44.06 16.66 44.06"/><polygon class="cls-8" points="25.43 39.22 25.43 44.98 25.96 45.3 25.96 38.91 25.43 39.22 25.43 39.22"/><polygon class="cls-8" points="16.78 49.89 16.78 50.53 25.88 45.23 25.43 44.97 16.78 49.89 16.78 49.89"/><polygon class="cls-4" points="16.96 44.13 16.96 44.14 25.46 39.22 25.46 45.03 25.99 45.3 25.99 38.91 16.96 44.13 16.96 44.13"/><polygon class="cls-10" points="16.65 50.01 16.65 50.66 25.91 45.25 25.46 44.99 16.65 50.01 16.65 50.01"/><polygon class="cls-4" points="21.21 41.62 21.21 47.43 21.74 47.69 21.74 41.3 21.21 41.62 21.21 41.62"/><polygon class="cls-11" points="22.09 40.86 22.09 47.48 21.74 47.69 21.74 41.3 22.09 40.86 22.09 40.86"/><path class="cls-12" d="M17,50.44V44.2l8.88-5.14v6.19L17,50.44Zm9.26-12L16.65,44v7.07l9.64-5.6v-7Z"/><polygon class="cls-9" points="27.66 37.74 27.66 43.89 36.47 38.77 36.47 32.65 27.66 37.74 27.66 37.74"/><polygon class="cls-8" points="36.43 32.9 36.43 38.66 36.96 38.98 36.96 32.59 36.43 32.9 36.43 32.9"/><polygon class="cls-8" points="27.78 43.56 27.78 44.21 36.88 38.91 36.43 38.65 27.78 43.56 27.78 43.56"/><polygon class="cls-4" points="27.96 37.81 27.96 37.82 36.46 32.9 36.46 38.71 36.99 38.97 36.99 32.59 27.96 37.81 27.96 37.81"/><polygon class="cls-10" points="27.65 43.69 27.65 44.34 36.91 38.93 36.46 38.67 27.65 43.69 27.65 43.69"/><polygon class="cls-4" points="32.21 35.29 32.21 41.11 32.74 41.37 32.74 34.98 32.21 35.29 32.21 35.29"/><polygon class="cls-11" points="33.09 34.53 33.09 41.16 32.74 41.37 32.74 34.98 33.09 34.53 33.09 34.53"/><path class="cls-12" d="M28,44.11V37.87l8.88-5.14v6.2L28,44.11Zm9.26-12-9.64,5.58v7.07l9.64-5.6v-7Z"/><polygon class="cls-9" points="16.66 56.43 16.66 62.58 25.47 57.46 25.47 51.33 16.66 56.43 16.66 56.43"/><polygon class="cls-8" points="25.43 51.59 25.43 57.35 25.96 57.66 25.96 51.28 25.43 51.59 25.43 51.59"/><polygon class="cls-8" points="16.78 62.25 16.78 62.9 25.89 57.59 25.43 57.34 16.78 62.25 16.78 62.25"/><polygon class="cls-4" points="16.96 56.5 16.96 56.51 25.47 51.58 25.47 57.4 26 57.66 26 51.27 16.96 56.5 16.96 56.5"/><polygon class="cls-10" points="16.66 62.38 16.66 63.02 25.92 57.61 25.47 57.35 16.66 62.38 16.66 62.38"/><polygon class="cls-4" points="21.21 53.98 21.21 59.8 21.74 60.06 21.74 53.67 21.21 53.98 21.21 53.98"/><polygon class="cls-11" points="22.1 53.22 22.1 59.85 21.74 60.06 21.74 53.67 22.1 53.22 22.1 53.22"/><path class="cls-12" d="M17,62.8V56.56l8.88-5.14v6.19L17,62.8Zm9.26-12-9.64,5.58v7.06l9.64-5.6v-7Z"/><polygon class="cls-9" points="27.67 50.11 27.67 56.25 36.48 51.14 36.48 45.01 27.67 50.11 27.67 50.11"/><polygon class="cls-8" points="36.44 45.26 36.44 51.03 36.97 51.34 36.97 44.95 36.44 45.26 36.44 45.26"/><polygon class="cls-8" points="27.79 55.93 27.79 56.58 36.89 51.27 36.44 51.01 27.79 55.93 27.79 55.93"/><polygon class="cls-4" points="27.96 50.18 27.96 50.19 36.47 45.26 36.47 51.08 37 51.34 37 44.95 27.96 50.18 27.96 50.18"/><polygon class="cls-10" points="27.66 56.05 27.66 56.7 36.92 51.29 36.47 51.03 27.66 56.05 27.66 56.05"/><polygon class="cls-4" points="32.22 47.66 32.22 53.47 32.74 53.73 32.74 47.35 32.22 47.66 32.22 47.66"/><polygon class="cls-11" points="33.1 46.9 33.1 53.52 32.74 53.73 32.74 47.35 33.1 46.9 33.1 46.9"/><path class="cls-12" d="M28,56.48V50.24l8.88-5.14v6.19L28,56.48Zm9.26-12-9.64,5.58v7.06l9.64-5.6v-7Z"/></g></g></svg>