<svg xmlns="http://www.w3.org/2000/svg" viewBox="0 0 37.42 67.49"><defs><style>.cls-1{fill:#939598;}.cls-2{fill:#b5c2ce;}.cls-3{fill:#d7e4e8;}.cls-4{fill:#5b95ab;}.cls-5{fill:#d4cab8;}.cls-6{fill:#66a6c0;}.cls-7{fill:#b5d4de;}.cls-8{fill:#6d6e71;}.cls-9{fill:#58595b;}.cls-10{fill:#c7dee6;}.cls-11{fill:#909193;}.cls-12{fill:#88c2db;}.cls-13{fill:#808182;}.cls-14{fill:#c0c7ce;}</style></defs><g id="Layer_2" data-name="Layer 2"><g id="Layer_2-2" data-name="Layer 2"><polygon class="cls-1" points="0 14.56 0 58.23 16.05 67.49 16.05 23.82 0 14.56 0 14.56"/><polyline class="cls-1" points="35.27 12.74 16.05 24.06 16.05 67.49 35.3 56.38 35.27 12.74"/><polygon class="cls-1" points="19.26 2.44 0 13.55 16.05 22.82 35.3 11.7 19.26 2.44 19.26 2.44"/><polygon class="cls-2" points="0 11.69 0 55.49 16.05 64.76 16.04 20.93 0 11.69 0 11.69"/><polyline class="cls-3" points="35.27 10.01 16.04 20.93 16.05 64.76 35.3 53.64 35.27 10.01"/><polygon class="cls-4" points="16.04 25.39 16.04 33.51 18.16 34.73 18.16 26.61 16.04 25.39 16.04 25.39"/><polygon class="cls-5" points="35.3 14.27 35.3 22.39 37.42 23.61 37.42 15.49 35.3 14.27 35.3 14.27"/><polyline class="cls-6" points="37.42 15.49 18.16 26.61 18.16 34.73 37.42 23.61 37.42 15.49"/><polyline class="cls-7" points="28.25 22.14 32.96 19.41 32.96 24.99 28.25 27.71 28.25 22.14"/><polyline class="cls-8" points="33.12 19.36 33.11 25.11 33.12 25.11 33.11 25.11 33.11 25.12 33.11 25.11 28.11 27.99 28.11 27.59 28.25 27.51 32.82 24.87 32.82 19.32 33.12 19.16 33.12 19.36"/><polyline class="cls-9" points="33.26 25.23 28.11 28.2 28.11 22.03 28.24 21.95 28.25 27.51 28.25 27.71 32.96 24.99 32.96 19.21 33.09 19.14 33.26 19.24 33.26 25.23"/><polyline class="cls-9" points="33.26 19.24 32.96 19.41 28.25 22.14 28.11 22.03 28.11 22.03 28.11 22.02 32.96 19.21 33.09 19.14 33.26 19.24"/><polyline class="cls-10" points="28.29 25.91 31.7 20.15 28.29 22.12 28.29 22.12 28.29 25.91"/><polyline class="cls-10" points="29.53 26.77 32.82 24.87 32.82 21.51 29.53 26.77"/><polyline class="cls-11" points="29.52 26.77 32.82 24.87 29.53 26.77 29.52 26.77"/><polyline class="cls-7" points="23.27 25.02 27.99 22.29 27.99 27.87 23.28 30.59 23.27 25.02"/><polyline class="cls-8" points="28.14 22.23 28.14 27.98 28.14 27.99 28.14 27.99 28.14 27.99 28.14 27.99 23.14 30.87 23.14 30.46 23.28 30.38 27.84 27.75 27.84 22.2 28.14 22.03 28.14 22.23"/><polyline class="cls-9" points="28.28 28.11 23.14 31.07 23.14 24.9 23.27 24.82 23.28 30.38 23.28 30.59 27.99 27.87 27.99 22.09 28.12 22.02 28.29 22.12 28.28 28.11"/><polyline class="cls-9" points="28.29 22.12 27.99 22.29 23.27 25.02 23.14 24.9 23.14 24.9 23.14 24.9 27.99 22.09 28.12 22.02 28.29 22.12"/><polyline class="cls-10" points="23.28 28.85 26.72 23.02 23.27 25.02 23.28 28.85"/><polyline class="cls-10" points="24.56 29.65 27.84 27.75 27.84 24.39 24.56 29.65"/><polyline class="cls-11" points="24.55 29.65 27.84 27.75 24.56 29.65 24.55 29.65"/><polygon class="cls-12" points="18.16 26.61 16.04 25.39 35.3 14.27 37.42 15.49 18.16 26.61 18.16 26.61"/><polygon class="cls-4" points="16.04 38.39 16.04 46.5 18.16 47.72 18.16 39.6 16.04 38.39 16.04 38.39"/><polygon class="cls-5" points="35.29 27.27 35.29 35.38 37.42 36.6 37.42 28.48 35.29 27.27 35.29 27.27"/><polyline class="cls-6" points="37.42 28.48 18.16 39.6 18.16 47.72 37.42 36.6 37.42 28.48"/><polyline class="cls-7" points="28.24 35.13 32.96 32.41 32.96 37.98 28.24 40.7 28.24 35.13"/><polyline class="cls-8" points="33.11 32.35 33.1 38.1 33.11 38.1 33.1 38.11 33.1 38.11 33.1 38.11 28.1 40.98 28.1 40.58 28.24 40.5 32.81 37.87 32.81 32.31 33.11 32.15 33.11 32.35"/><polyline class="cls-9" points="33.25 38.23 28.11 41.19 28.1 35.02 28.24 34.94 28.24 40.5 28.24 40.7 32.96 37.98 32.96 32.21 33.08 32.14 33.26 32.24 33.25 38.23"/><polyline class="cls-9" points="33.26 32.24 32.96 32.41 28.24 35.13 28.1 35.02 28.1 35.02 28.1 35.02 32.96 32.21 33.08 32.14 33.26 32.24"/><polyline class="cls-10" points="28.28 38.91 31.69 33.14 28.28 35.11 28.28 38.91"/><polyline class="cls-10" points="29.52 39.76 32.81 37.87 32.81 34.51 29.52 39.76"/><polyline class="cls-11" points="29.52 39.77 32.81 37.87 29.52 39.76 29.52 39.77"/><polyline class="cls-7" points="23.27 38.01 27.98 35.28 27.98 40.86 23.27 43.58 23.27 38.01"/><polyline class="cls-8" points="28.14 35.23 28.13 40.98 28.14 40.98 28.13 40.98 28.13 40.98 28.13 40.98 23.13 43.86 23.13 43.45 23.27 43.37 27.84 40.74 27.84 35.19 28.14 35.02 28.14 35.23"/><polyline class="cls-9" points="28.27 41.1 23.13 44.07 23.13 37.9 23.27 37.82 23.27 43.37 23.27 43.58 27.98 40.86 27.98 35.08 28.11 35.01 28.28 35.11 28.27 41.1"/><polyline class="cls-9" points="28.28 35.11 27.98 35.28 23.27 38.01 23.13 37.9 23.13 37.9 23.13 37.89 27.98 35.08 28.11 35.01 28.28 35.11"/><polyline class="cls-10" points="23.27 41.84 26.72 36.02 23.27 38.01 23.27 41.84"/><polyline class="cls-10" points="24.55 42.64 27.84 40.74 27.84 37.38 24.55 42.64"/><polyline class="cls-11" points="24.54 42.64 27.84 40.74 24.55 42.64 24.54 42.64"/><polygon class="cls-12" points="18.16 39.6 16.04 38.39 35.29 27.27 37.42 28.48 18.16 39.6 18.16 39.6"/><polygon class="cls-4" points="16.04 51.34 16.04 59.45 18.16 60.67 18.16 52.55 16.04 51.34 16.04 51.34"/><polygon class="cls-5" points="35.3 40.21 35.3 48.33 37.42 49.55 37.42 41.43 35.3 40.21 35.3 40.21"/><polyline class="cls-6" points="37.42 41.43 18.16 52.55 18.16 60.67 37.42 49.55 37.42 41.43"/><polyline class="cls-7" points="28.25 48.09 32.96 45.36 32.96 50.93 28.25 53.65 28.25 48.09"/><polyline class="cls-8" points="33.12 45.3 33.11 51.05 33.12 51.05 33.11 51.05 33.11 51.06 33.11 51.06 28.11 53.93 28.11 53.53 28.25 53.45 32.82 50.81 32.82 45.26 33.12 45.1 33.12 45.3"/><polyline class="cls-9" points="33.26 51.17 28.11 54.14 28.11 47.97 28.24 47.89 28.25 53.45 28.25 53.65 32.96 50.93 32.96 45.16 33.09 45.09 33.26 45.18 33.26 51.17"/><polyline class="cls-9" points="33.26 45.18 32.96 45.36 28.25 48.09 28.11 47.97 28.11 47.97 28.11 47.97 32.96 45.16 33.09 45.09 33.26 45.18"/><polyline class="cls-10" points="28.29 51.85 31.69 46.09 28.29 48.06 28.29 51.85"/><polyline class="cls-13" points="28.29 48.06 31.69 46.09 31.7 46.09 28.29 48.06"/><polyline class="cls-10" points="29.52 52.71 32.82 50.81 32.82 47.45 29.52 52.71"/><polyline class="cls-11" points="29.52 52.72 32.82 50.81 29.52 52.71 29.52 52.72"/><polyline class="cls-7" points="23.27 50.96 27.99 48.23 27.99 53.81 23.28 56.52 23.27 50.96"/><polyline class="cls-8" points="28.14 48.17 28.14 53.92 28.14 53.93 28.14 53.93 28.14 53.93 28.14 53.93 23.14 56.81 23.14 56.4 23.28 56.32 27.84 53.69 27.84 48.14 28.14 47.97 28.14 48.17"/><polyline class="cls-9" points="28.28 54.05 23.14 57.02 23.14 50.84 23.27 50.76 23.28 56.32 23.28 56.52 27.99 53.81 27.99 48.03 28.12 47.96 28.29 48.06 28.28 54.05"/><polyline class="cls-9" points="28.29 48.06 27.99 48.23 23.27 50.96 23.14 50.84 23.14 50.84 23.14 50.84 27.99 48.03 28.12 47.96 28.29 48.06"/><polyline class="cls-10" points="23.28 54.79 26.72 48.97 23.27 50.96 23.28 54.79"/><polyline class="cls-10" points="24.56 55.58 27.84 53.69 27.84 50.33 24.56 55.58"/><polyline class="cls-11" points="24.55 55.59 27.84 53.69 24.56 55.58 24.55 55.59"/><polygon class="cls-12" points="18.16 52.55 16.04 51.34 35.3 40.21 37.42 41.43 18.16 52.55 18.16 52.55"/><polygon class="cls-14" points="2.38 9.69 2.38 12.35 20.8 1.72 19.14 0 2.38 9.69 2.38 9.69"/><polygon class="cls-14" points="2.37 9.7 0 11 16.19 20.33 18.49 19 2.37 9.7 2.37 9.7"/><polygon class="cls-14" points="16.19 17.67 16.19 20.33 35.27 9.33 32.3 8.36 16.19 17.67 16.19 17.67"/><polygon class="cls-14" points="30.69 9.32 19.18 2.67 19.18 0.02 35.29 9.32 30.69 9.32 30.69 9.32"/><polygon class="cls-1" points="16.19 20.33 35.27 9.33 35.29 11.84 16.19 22.99 16.19 20.33 16.19 20.33"/><polygon class="cls-1" points="0 11 0 13.66 16.19 22.99 16.19 20.33 0 11 0 11"/><polygon class="cls-1" points="16.25 16.6 31.34 7.89 31.36 9.88 16.25 18.7 16.25 16.6 16.25 16.6"/><polygon class="cls-1" points="3.5 9.23 3.5 11.34 16.25 18.7 16.25 16.6 3.5 9.23 3.5 9.23"/><polygon class="cls-12" points="5.33 8.19 5.33 10.29 19.9 1.88 18.59 0.52 5.33 8.19 5.33 8.19"/><polygon class="cls-12" points="5.32 8.19 3.5 9.23 16.25 16.6 18.07 15.54 5.32 8.19 5.32 8.19"/><polygon class="cls-12" points="16.25 14.49 16.25 16.6 31.34 7.89 28.99 7.13 16.25 14.49 16.25 14.49"/><polygon class="cls-12" points="27.72 7.89 18.61 2.63 18.61 0.53 31.36 7.89 27.72 7.89 27.72 7.89"/><polygon class="cls-14" points="18.61 2.63 27.72 7.89 16.25 14.49 7.19 9.27 18.61 2.63 18.61 2.63"/></g></g></svg>