<svg xmlns="http://www.w3.org/2000/svg" viewBox="0 0 119 68.53"><defs><style>.cls-1{fill:#a1bd69;}.cls-2{fill:#6380c0;}.cls-3{fill:#fff;}.cls-4{fill:#dfd9ce;}.cls-5{fill:#e3e3e3;}.cls-6{fill:#beb19f;}</style></defs><g id="Layer_2" data-name="Layer 2"><g id="Layer_2-2" data-name="Layer 2"><polygon class="cls-1" points="71.4 68.53 0 27.48 47.59 0 119 41.05 71.4 68.53 71.4 68.53"/><polygon class="cls-2" points="71.53 64.25 6.99 27.2 47.47 3.83 112.01 40.88 71.53 64.25 71.53 64.25"/><path class="cls-3" d="M111.81,40.88,47.47,4,7.19,27.2,71.53,64.13l40.28-23.25ZM71.53,64.37,6.79,27.2,47.41,3.74l.06,0,64.74,37.17L71.59,64.34l-.06,0Z"/><polygon class="cls-3" points="77.44 60.99 77.54 60.82 12.95 23.7 12.85 23.87 77.44 60.99 77.44 60.99"/><polygon class="cls-3" points="52.19 30.27 52.29 30.09 27.03 15.57 26.93 15.75 52.19 30.27 52.19 30.27"/><polygon class="cls-3" points="91.56 52.89 91.66 52.72 64.38 37.03 64.28 37.21 91.56 52.89 91.56 52.89"/><polygon class="cls-3" points="106.33 44.25 106.44 44.08 41.84 6.96 41.74 7.14 106.33 44.25 106.33 44.25"/><polygon class="cls-3" points="66.93 61.67 107.4 38.3 107.3 38.13 66.83 61.49 66.93 61.67 66.93 61.67"/><polygon class="cls-3" points="44.4 48.75 84.87 25.38 84.77 25.2 44.29 48.57 44.4 48.75 44.4 48.75"/><polygon class="cls-3" points="32.31 41.8 72.79 18.43 72.69 18.25 32.21 41.62 32.31 41.8 32.31 41.8"/><polygon class="cls-3" points="11.23 29.63 51.7 6.26 51.6 6.09 11.13 29.46 11.23 29.63 11.23 29.63"/><polygon class="cls-4" points="81.01 10.56 81.47 10.56 81.47 21.68 81.01 21.68 81.01 10.56 81.01 10.56"/><path class="cls-4" d="M81,21.68c0,.07.1.13.23.13s.24-.06.24-.13-.11-.14-.24-.14-.23.06-.23.14Z"/><path class="cls-5" d="M81,10.56c0,.08.1.14.23.14s.24-.06.24-.14-.11-.13-.24-.13-.23.06-.23.13Z"/><polygon class="cls-6" points="37.35 38.05 37.39 38.04 81.05 12.83 81.08 12.72 80.97 12.69 37.31 37.9 37.28 38.01 37.35 38.05 37.35 38.05"/><polygon class="cls-6" points="37.35 39.14 37.39 39.13 81.05 13.92 81.08 13.81 80.97 13.79 37.31 39 37.28 39.1 37.35 39.14 37.35 39.14"/><polygon class="cls-6" points="37.35 40.23 37.39 40.22 81.05 15.01 81.08 14.91 80.97 14.88 37.31 40.09 37.28 40.19 37.35 40.23 37.35 40.23"/><polygon class="cls-6" points="37.35 41.33 37.39 41.31 81.05 16.11 81.08 16 80.97 15.97 37.31 41.18 37.28 41.29 37.35 41.33 37.35 41.33"/><polygon class="cls-6" points="37.35 42.42 37.39 42.41 81.05 17.2 81.08 17.09 80.97 17.06 37.31 42.27 37.28 42.38 37.35 42.42 37.35 42.42"/><polygon class="cls-6" points="37.35 43.51 37.39 43.5 81.05 18.29 81.08 18.18 80.97 18.16 37.31 43.37 37.28 43.47 37.35 43.51 37.35 43.51"/><polygon class="cls-6" points="37.35 44.6 37.39 44.59 81.05 19.38 81.08 19.28 80.97 19.25 37.31 44.46 37.28 44.56 37.35 44.6 37.35 44.6"/><polygon class="cls-6" points="37.35 45.69 37.39 45.68 81.05 20.48 81.08 20.37 80.97 20.34 37.31 45.55 37.28 45.66 37.35 45.69 37.35 45.69"/><polygon class="cls-4" points="37.66 46.68 81.32 21.47 81.17 21.21 37.51 46.41 37.66 46.68 37.66 46.68"/><polygon class="cls-4" points="37.22 35.91 37.69 35.91 37.69 47.02 37.22 47.02 37.22 35.91 37.22 35.91"/><path class="cls-4" d="M37.22,47c0,.08.1.14.23.14s.24-.06.24-.14-.11-.13-.24-.13-.23.06-.23.13Z"/><path class="cls-5" d="M37.22,35.91c0,.08.1.14.23.14s.24-.06.24-.14-.11-.14-.24-.14-.23.06-.23.14Z"/><polygon class="cls-6" points="79.99 22.04 80.06 21.97 80.06 12.28 79.99 12.2 79.91 12.28 79.91 21.97 79.99 22.04 79.99 22.04"/><polygon class="cls-6" points="78.75 22.79 78.82 22.72 78.82 13.03 78.75 12.95 78.67 13.03 78.67 22.72 78.75 22.79 78.75 22.79"/><polygon class="cls-6" points="77.5 23.51 77.58 23.43 77.58 13.74 77.5 13.67 77.43 13.74 77.43 23.43 77.5 23.51 77.5 23.51"/><polygon class="cls-6" points="76.26 24.26 76.34 24.18 76.34 14.49 76.26 14.41 76.19 14.49 76.19 24.18 76.26 24.26 76.26 24.26"/><polygon class="cls-6" points="75.02 24.95 75.1 24.88 75.1 15.19 75.02 15.11 74.94 15.19 74.94 24.88 75.02 24.95 75.02 24.95"/><polygon class="cls-6" points="73.78 25.7 73.86 25.62 73.86 15.94 73.78 15.86 73.7 15.94 73.7 25.62 73.78 25.7 73.78 25.7"/><polygon class="cls-6" points="72.54 26.41 72.61 26.34 72.61 16.65 72.54 16.57 72.46 16.65 72.46 26.34 72.54 26.41 72.54 26.41"/><polygon class="cls-6" points="71.3 27.16 71.37 27.09 71.37 17.4 71.3 17.32 71.22 17.4 71.22 27.09 71.3 27.16 71.3 27.16"/><polygon class="cls-6" points="70.07 27.76 70.15 27.68 70.15 18 70.07 17.92 70 18 70 27.68 70.07 27.76 70.07 27.76"/><polygon class="cls-6" points="68.83 28.51 68.91 28.43 68.91 18.75 68.83 18.67 68.75 18.75 68.75 28.43 68.83 28.51 68.83 28.51"/><polygon class="cls-6" points="67.59 29.23 67.67 29.15 67.67 19.46 67.59 19.38 67.51 19.46 67.51 29.15 67.59 29.23 67.59 29.23"/><polygon class="cls-6" points="66.35 29.97 66.43 29.9 66.43 20.21 66.35 20.13 66.27 20.21 66.27 29.9 66.35 29.97 66.35 29.97"/><polygon class="cls-6" points="65.11 30.67 65.19 30.59 65.19 20.91 65.11 20.83 65.03 20.91 65.03 30.59 65.11 30.67 65.11 30.67"/><polygon class="cls-6" points="63.87 31.42 63.94 31.34 63.94 21.66 63.87 21.58 63.79 21.66 63.79 31.34 63.87 31.42 63.87 31.42"/><polygon class="cls-6" points="62.62 32.13 62.7 32.05 62.7 22.37 62.62 22.29 62.55 22.37 62.55 32.05 62.62 32.13 62.62 32.13"/><polygon class="cls-6" points="61.38 32.88 61.46 32.8 61.46 23.12 61.38 23.04 61.3 23.12 61.3 32.8 61.38 32.88 61.38 32.88"/><polygon class="cls-6" points="60.17 33.56 60.25 33.48 60.25 23.8 60.17 23.72 60.09 23.8 60.09 33.48 60.17 33.56 60.17 33.56"/><polygon class="cls-6" points="58.93 34.31 59.01 34.23 59.01 24.55 58.93 24.47 58.85 24.55 58.85 34.23 58.93 34.31 58.93 34.31"/><polygon class="cls-6" points="57.69 35.02 57.77 34.95 57.77 25.26 57.69 25.18 57.61 25.26 57.61 34.95 57.69 35.02 57.69 35.02"/><polygon class="cls-6" points="56.45 35.77 56.52 35.7 56.52 26.01 56.45 25.93 56.37 26.01 56.37 35.7 56.45 35.77 56.45 35.77"/><polygon class="cls-6" points="55.22 36.34 55.29 36.27 55.29 26.58 55.22 26.5 55.14 26.58 55.14 36.27 55.22 36.34 55.22 36.34"/><polygon class="cls-6" points="53.97 37.05 54.05 36.97 54.05 27.33 53.97 27.25 53.9 27.33 53.9 36.97 53.97 37.05 53.97 37.05"/><polygon class="cls-6" points="52.73 37.78 52.81 37.7 52.81 28.05 52.73 27.97 52.65 28.05 52.65 37.7 52.73 37.78 52.73 37.78"/><polygon class="cls-6" points="51.53 38.56 51.61 38.48 51.61 28.79 51.53 28.72 51.45 28.79 51.45 38.48 51.53 38.56 51.53 38.56"/><polygon class="cls-6" points="50.29 39.26 50.37 39.18 50.37 29.54 50.29 29.46 50.21 29.54 50.21 39.18 50.29 39.26 50.29 39.26"/><polygon class="cls-6" points="49.05 39.99 49.13 39.91 49.13 30.26 49.05 30.18 48.97 30.26 48.97 39.91 49.05 39.99 49.05 39.99"/><polygon class="cls-6" points="47.81 40.67 47.88 40.59 47.88 30.91 47.81 30.83 47.73 30.91 47.73 40.59 47.81 40.67 47.81 40.67"/><polygon class="cls-6" points="46.56 41.37 46.64 41.3 46.64 31.65 46.56 31.58 46.49 31.65 46.49 41.3 46.56 41.37 46.56 41.37"/><polygon class="cls-6" points="45.32 42.1 45.4 42.02 45.4 32.37 45.32 32.29 45.25 32.37 45.25 42.02 45.32 42.1 45.32 42.1"/><polygon class="cls-6" points="44.08 42.76 44.16 42.68 44.16 33 44.08 32.92 44 33 44 42.68 44.08 42.76 44.08 42.76"/><polygon class="cls-6" points="42.84 43.47 42.92 43.39 42.92 33.75 42.84 33.67 42.76 33.75 42.76 43.39 42.84 43.47 42.84 43.47"/><polygon class="cls-6" points="41.6 44.19 41.67 44.12 41.67 34.46 41.6 34.38 41.52 34.46 41.52 44.12 41.6 44.19 41.6 44.19"/><polygon class="cls-6" points="40.36 44.9 40.43 44.82 40.43 35.18 40.36 35.1 40.28 35.18 40.28 44.82 40.36 44.9 40.36 44.9"/><polygon class="cls-6" points="39.11 45.63 39.19 45.55 39.19 35.89 39.11 35.81 39.04 35.89 39.04 45.55 39.11 45.63 39.11 45.63"/><polygon class="cls-4" points="37.66 36.85 81.32 11.64 81.17 11.38 37.51 36.58 37.66 36.85 37.66 36.85"/></g></g></svg>