<svg xmlns="http://www.w3.org/2000/svg" xmlns:xlink="http://www.w3.org/1999/xlink" viewBox="0 0 59.67 45.78"><defs><style>.cls-1,.cls-10{fill:none;}.cls-2{fill:#009245;}.cls-3{fill:#96ca4b;}.cls-4{fill:#603813;}.cls-5{clip-path:url(#clip-path);}.cls-6{clip-path:url(#clip-path-2);}.cls-7{fill:#006837;}.cls-8{clip-path:url(#clip-path-3);}.cls-9{clip-path:url(#clip-path-4);}.cls-10{stroke:#603813;stroke-linecap:round;stroke-miterlimit:10;stroke-width:0.5px;}.cls-11{clip-path:url(#clip-path-5);}.cls-12{clip-path:url(#clip-path-6);}.cls-13{fill:#00823e;}.cls-14{fill:#00bc55;}.cls-15{fill:#009b46;}</style><clipPath id="clip-path" transform="translate(0 1.82)"><path class="cls-1" d="M15.9,27.6h0a10.23,10.23,0,0,1-5.75,0h0A1.43,1.43,0,0,1,9,26.29V20c0-1.77,1.82-3.21,4.07-3.21h0c2.25,0,4.07,1.43,4.07,3.2v6.24A1.59,1.59,0,0,1,15.9,27.6Z"/></clipPath><clipPath id="clip-path-2" transform="translate(0 1.82)"><path class="cls-2" d="M13,25.43h0a10.14,10.14,0,0,1-5.75,0h0a1.42,1.42,0,0,1-1.13-1.29V17.78c0-1.77,1.82-3.21,4.07-3.21h0c2.24,0,4.06,1.43,4.07,3.2V24A1.57,1.57,0,0,1,13,25.43Z"/></clipPath><clipPath id="clip-path-3" transform="translate(0 1.82)"><path class="cls-1" d="M55.25,19.91h0a8.27,8.27,0,0,1-4.65,0h0a1.16,1.16,0,0,1-.91-1V13.71c0-1.43,1.47-2.6,3.29-2.6h0c1.82,0,3.3,1.16,3.3,2.6v5.05A1.28,1.28,0,0,1,55.25,19.91Z"/></clipPath><clipPath id="clip-path-4" transform="translate(0 1.82)"><path class="cls-2" d="M52.91,18.15h0a8.36,8.36,0,0,1-4.65,0h0a1.17,1.17,0,0,1-.92-1.05V12c0-1.44,1.47-2.6,3.29-2.6h0c1.82,0,3.29,1.16,3.3,2.59V17A1.29,1.29,0,0,1,52.91,18.15Z"/></clipPath><clipPath id="clip-path-5" transform="translate(0 1.82)"><path class="cls-1" d="M43.66,10.05h0a8.72,8.72,0,0,1-4.83,0h0a1.2,1.2,0,0,1-.95-1.09V3.61c0-1.49,1.52-2.7,3.41-2.7h0c1.89,0,3.43,1.21,3.43,2.69V8.85A1.34,1.34,0,0,1,43.66,10.05Z"/></clipPath><clipPath id="clip-path-6" transform="translate(0 1.82)"><path class="cls-2" d="M41.23,8.22h0a8.66,8.66,0,0,1-4.84,0h0a1.21,1.21,0,0,1-.94-1.09V1.79C35.44.3,37-.91,38.86-.91h0c1.89,0,3.42,1.2,3.42,2.69V7A1.33,1.33,0,0,1,41.23,8.22Z"/></clipPath></defs><g id="Layer_2" data-name="Layer 2"><g id="Layer_2-2" data-name="Layer 2"><path class="cls-3" d="M2.75,28.91c-3.67,2.12-3.67,5.55,0,7.66l10,5.8a14.64,14.64,0,0,0,13.27,0L56.92,24.55c3.66-2.11,3.66-5.54,0-7.65L46.87,11.09a14.68,14.68,0,0,0-13.26,0L2.75,28.91" transform="translate(0 1.82)"/><rect class="cls-4" x="10.41" y="26.58" width="1.74" height="7.17" rx="0.5"/><path class="cls-2" d="M14.09,26.52h0a10.32,10.32,0,0,1-5.75,0h0a1.44,1.44,0,0,1-1.13-1.29V18.86c0-1.77,1.81-3.2,4.06-3.21h0c2.25,0,4.07,1.44,4.07,3.21v6.23A1.58,1.58,0,0,1,14.09,26.52Z" transform="translate(0 1.82)"/><g class="cls-5"><path class="cls-2" d="M13,25.43h0a10.14,10.14,0,0,1-5.75,0h0a1.42,1.42,0,0,1-1.13-1.29V17.78c0-1.77,1.82-3.21,4.07-3.21h0c2.24,0,4.06,1.43,4.07,3.2V24A1.57,1.57,0,0,1,13,25.43Z" transform="translate(0 1.82)"/><g class="cls-6"><path class="cls-2" d="M11.19,24.35h0a10.32,10.32,0,0,1-5.75,0h0A1.42,1.42,0,0,1,4.32,23V16.7c0-1.78,1.82-3.21,4.07-3.21h0c2.24,0,4.07,1.43,4.07,3.2v6.24A1.58,1.58,0,0,1,11.19,24.35Z" transform="translate(0 1.82)"/></g><path class="cls-7" d="M14.09,26.52h0a10.32,10.32,0,0,1-5.75,0h0a1.44,1.44,0,0,1-1.13-1.29V18.86c0-1.77,1.81-3.2,4.06-3.21h0c2.25,0,4.07,1.44,4.07,3.21v6.23A1.58,1.58,0,0,1,14.09,26.52Z" transform="translate(0 1.82)"/></g><rect class="cls-4" x="50.81" y="19.43" width="1.41" height="5.8" rx="0.41"/><path class="cls-2" d="M53.79,19h0a8.27,8.27,0,0,1-4.65,0h0a1.16,1.16,0,0,1-.92-1V12.83c0-1.43,1.47-2.59,3.29-2.59h0c1.82,0,3.29,1.16,3.29,2.59v5A1.29,1.29,0,0,1,53.79,19Z" transform="translate(0 1.82)"/><g class="cls-8"><path class="cls-2" d="M52.91,18.15h0a8.36,8.36,0,0,1-4.65,0h0a1.17,1.17,0,0,1-.92-1.05V12c0-1.44,1.47-2.6,3.29-2.6h0c1.82,0,3.29,1.16,3.3,2.59V17A1.29,1.29,0,0,1,52.91,18.15Z" transform="translate(0 1.82)"/><g class="cls-9"><path class="cls-2" d="M51.45,17.28h0a8.39,8.39,0,0,1-4.66,0h0a1.16,1.16,0,0,1-.91-1.05V11.08c0-1.43,1.48-2.6,3.3-2.6h0c1.81,0,3.29,1.16,3.29,2.59v5.05A1.27,1.27,0,0,1,51.45,17.28Z" transform="translate(0 1.82)"/></g><path class="cls-7" d="M53.79,19h0a8.27,8.27,0,0,1-4.65,0h0a1.16,1.16,0,0,1-.92-1V12.83c0-1.43,1.47-2.59,3.29-2.59h0c1.82,0,3.29,1.16,3.29,2.59v5A1.29,1.29,0,0,1,53.79,19Z" transform="translate(0 1.82)"/></g><rect class="cls-4" x="22.78" y="32.5" width="1.08" height="7.59" rx="0.31"/><path class="cls-7" d="M20,33.5l3.3-9.33,3.31,9.33A7.12,7.12,0,0,1,20,33.5Z" transform="translate(0 1.82)"/><path class="cls-2" d="M22.23,34.21,24,26.13l-.69-2L20,33.5A8.29,8.29,0,0,0,22.23,34.21Z" transform="translate(0 1.82)"/><line class="cls-10" x1="39.4" y1="10.79" x2="39.4" y2="17.18"/><path class="cls-10" d="M36.66,9.73s-.6,2.43,2.44,1.52" transform="translate(0 1.82)"/><path class="cls-10" d="M42.9,9.27s-.44,2.66-3.35,1.22" transform="translate(0 1.82)"/><path class="cls-2" d="M42.14,9.14h0a8.72,8.72,0,0,1-4.83,0h0a1.21,1.21,0,0,1-1-1.09V2.7c0-1.49,1.53-2.7,3.42-2.7h0c1.89,0,3.42,1.2,3.43,2.69V7.94A1.34,1.34,0,0,1,42.14,9.14Z" transform="translate(0 1.82)"/><g class="cls-11"><path class="cls-2" d="M41.23,8.22h0a8.66,8.66,0,0,1-4.84,0h0a1.21,1.21,0,0,1-.94-1.09V1.79C35.44.3,37-.91,38.86-.91h0c1.89,0,3.42,1.2,3.42,2.69V7A1.33,1.33,0,0,1,41.23,8.22Z" transform="translate(0 1.82)"/><g class="cls-12"><path class="cls-2" d="M39.71,7.31h0a8.57,8.57,0,0,1-4.84,0h0a1.2,1.2,0,0,1-.95-1.08V.88c0-1.49,1.53-2.7,3.42-2.7h0c1.89,0,3.42,1.2,3.42,2.69V6.12A1.33,1.33,0,0,1,39.71,7.31Z" transform="translate(0 1.82)"/></g><path class="cls-7" d="M42.14,9.14h0a8.72,8.72,0,0,1-4.83,0h0a1.21,1.21,0,0,1-1-1.09V2.7c0-1.49,1.53-2.7,3.42-2.7h0c1.89,0,3.42,1.2,3.43,2.69V7.94A1.34,1.34,0,0,1,42.14,9.14Z" transform="translate(0 1.82)"/></g><path class="cls-13" d="M36.64,5.93A2.18,2.18,0,0,0,34.38,8V9.76h0c.16.58,1.1,1,2.23,1s2.08-.46,2.23-1.05h0V8A2.17,2.17,0,0,0,36.64,5.93Z" transform="translate(0 1.82)"/><path class="cls-14" d="M35.45,10.1h0V8.36a2.17,2.17,0,0,1,2.26-2.08h.22a2.32,2.32,0,0,0-1.26-.36A2.18,2.18,0,0,0,34.38,8V9.76h0c.13.47.77.86,1.62,1A1.19,1.19,0,0,1,35.45,10.1Z" transform="translate(0 1.82)"/><path class="cls-7" d="M42.74,6.89a1.3,1.3,0,0,0-1.36,1.26v1h0c.1.36.67.63,1.35.63S44,9.56,44.1,9.2h0v-1A1.31,1.31,0,0,0,42.74,6.89Z" transform="translate(0 1.82)"/><path class="cls-15" d="M42,9.41h0V8.36A1.31,1.31,0,0,1,43.37,7.1h.14a1.5,1.5,0,0,0-.77-.21,1.3,1.3,0,0,0-1.36,1.26v1h0c.08.29.47.52,1,.6A.69.69,0,0,1,42,9.41Z" transform="translate(0 1.82)"/></g></g></svg>