<svg xmlns="http://www.w3.org/2000/svg" xmlns:xlink="http://www.w3.org/1999/xlink" viewBox="0 0 22.09 25.87"><defs><style>.cls-1{fill:none;}.cls-2{fill:#e3d3cb;}.cls-3{fill:#c5adae;}.cls-4{fill:#fff9e8;}.cls-5{fill:#b0b3c7;}.cls-6{fill:#f26e6b;}.cls-7{fill:#ef3e51;}.cls-8{fill:#792545;}.cls-9{fill:#fff6e6;}.cls-10{fill:#524960;}.cls-11{clip-path:url(#clip-path);}</style><clipPath id="clip-path"><path class="cls-1" d="M14.37,21a1.34,1.34,0,0,0,.64-.15.46.46,0,0,0,.26-.37.47.47,0,0,0-.26-.37,1.44,1.44,0,0,0-1.28,0,.47.47,0,0,0-.26.37.46.46,0,0,0,.26.37,1.34,1.34,0,0,0,.64.15"/></clipPath></defs><g id="Layer_2" data-name="Layer 2"><g id="Layer_2-2" data-name="Layer 2"><polygon class="cls-2" points="0 18.14 0 18.49 12.88 25.87 12.88 25.52 0 18.14 0 18.14"/><polygon class="cls-3" points="12.88 25.52 12.88 25.87 22.09 20.56 22.09 20.21 12.88 25.52 12.88 25.52"/><polyline class="cls-4" points="0 18.14 12.88 25.52 17.49 22.86 22.09 20.21 9.18 12.84 4.61 15.46 0 18.14"/><path class="cls-2" d="M4.85,2.57V15.76A.31.31,0,0,0,5,16a1,1,0,0,0,.46.11A1,1,0,0,0,6,16a.33.33,0,0,0,.2-.27V2.57Z"/><path class="cls-3" d="M6,2.57V16a.33.33,0,0,0,.2-.27V2.57Z"/><polyline class="cls-2" points="8.52 0.4 8.52 13.24 21.4 20.61 21.4 7.78 8.52 0.4"/><polyline class="cls-5" points="21.4 18.14 21.4 7.78 8.52 0.4 8.52 10.77 21.4 18.14"/><polygon class="cls-3" points="21.4 7.78 21.4 20.61 22.09 20.21 22.09 7.37 21.4 7.78 21.4 7.78"/><polygon class="cls-6" points="8.52 0.4 21.4 7.78 22.09 7.37 9.18 0 8.52 0.4 8.52 0.4"/><path class="cls-2" d="M16.4,9.17V22.36a.33.33,0,0,0,.2.27,1,1,0,0,0,.46.11,1,1,0,0,0,.46-.11.31.31,0,0,0,.19-.27V9.17Z"/><path class="cls-3" d="M17.52,9.17V22.63a.31.31,0,0,0,.19-.27V9.17Z"/><polygon class="cls-7" points="0 5.31 0 5.66 12.88 13.03 12.88 12.68 0 5.31 0 5.31"/><polygon class="cls-8" points="12.88 12.68 12.88 13.03 22.09 7.72 22.09 7.37 12.88 12.68 12.88 12.68"/><polygon class="cls-6" points="0 5.31 12.88 12.68 17.49 10.03 22.09 7.37 9.18 0 4.61 2.62 0 5.31 0 5.31"/><polyline class="cls-9" points="11.54 20.5 14.18 18.97 8.31 15.58 5.67 17.11 11.54 20.5"/><path class="cls-10" d="M13.87,19c.05,0,.1,0,.1-.08V14.3h-.2V19c0,.06.05.08.1.08Z"/><path class="cls-10" d="M8.49,15.87c.06,0,.1,0,.1-.07V11.14H8.4V15.8s0,.07.09.07Z"/><path class="cls-10" d="M11.51,20.38c.05,0,.09,0,.09-.07v-2h-.19v2c0,.05,0,.07.1.07Z"/><path class="cls-10" d="M6.13,17.23s.1,0,.1-.07v-2H6v2c0,.05,0,.07.1.07Z"/><polygon class="cls-6" points="5.97 14.65 6.14 14.76 11.95 18.14 12.1 18.05 12.17 18.01 12.56 17.78 12.64 17.74 12.79 17.65 13.03 17.51 13.11 17.47 13.5 17.24 13.57 17.2 13.63 17.17 7.79 13.77 7.64 13.69 7.59 13.72 7.52 13.76 7.12 13.99 7.05 14.03 6.66 14.26 6.58 14.3 6.19 14.53 6.12 14.57 5.97 14.65 5.97 14.65"/><path class="cls-6" d="M5.63,15.24l0,.06,6,3.48,0,0,.15-.31,0-.07.1-.22L6.14,14.75,6,14.65a.65.65,0,0,0-.19.18l0,.06a.74.74,0,0,0-.11.35Z"/><path class="cls-6" d="M7.64,13.69l.15.08,5.84,3.4h.06l.05,0,.09-.14,0-.13L8,13.48l-.14-.08a.33.33,0,0,1,0,.16.3.3,0,0,1-.12.13Z"/><polygon class="cls-6" points="7.81 11.59 7.81 13.4 7.95 13.48 13.79 16.88 13.79 15.07 7.98 11.69 7.81 11.59 7.81 11.59"/><path class="cls-6" d="M7.81,11.59l.17.1,5.81,3.38.19-.26,0-.06.23-.31L8.27,11H8.21l-.07,0a.7.7,0,0,0-.21.21l0,0,0,0a.79.79,0,0,0-.08.32Z"/><polygon class="cls-7" points="5.74 14.89 11.72 18.38 11.82 18.43 11.85 18.45 11.89 18.39 11.85 18.36 11.76 18.31 5.78 14.83 5.74 14.89 5.74 14.89"/><polygon class="cls-7" points="6.12 14.57 12.1 18.05 12.27 18.15 12.34 18.11 12.17 18.01 6.19 14.53 6.12 14.57 6.12 14.57"/><polygon class="cls-7" points="6.58 14.3 12.56 17.78 12.74 17.88 12.79 17.85 12.81 17.84 12.64 17.74 6.66 14.26 6.58 14.3 6.58 14.3"/><polygon class="cls-7" points="7.05 14.03 13.03 17.51 13.21 17.61 13.28 17.57 13.11 17.47 7.12 13.99 7.05 14.03 7.05 14.03"/><polygon class="cls-7" points="7.52 13.76 13.5 17.24 13.67 17.34 13.73 17.29 13.57 17.2 7.59 13.72 7.52 13.76 7.52 13.76"/><polygon class="cls-7" points="7.81 13.31 7.81 13.39 13.79 16.87 13.94 16.96 13.96 16.88 13.79 16.79 7.81 13.31 7.81 13.31"/><polygon class="cls-7" points="7.81 12.76 7.81 12.85 13.79 16.33 13.97 16.43 13.97 16.35 13.79 16.25 7.81 12.76 7.81 12.76"/><polygon class="cls-7" points="7.81 12.22 7.81 12.31 13.79 15.79 13.97 15.89 13.97 15.8 13.79 15.7 7.81 12.22 7.81 12.22"/><polygon class="cls-7" points="7.81 11.68 7.81 11.77 13.79 15.24 13.97 15.35 13.97 15.26 13.79 15.16 7.81 11.68 7.81 11.68"/><polygon class="cls-7" points="7.89 11.27 13.88 14.76 13.98 14.81 14 14.83 14.01 14.81 14.04 14.77 13.91 14.69 7.93 11.21 7.91 11.26 7.89 11.27 7.89 11.27"/><path class="cls-8" d="M11.61,18.72l0,.06h.06l.06-.06,0-.09a.33.33,0,0,1,.05-.16l.05-.07.06-.06.32-.18.07,0,.4-.23,0,0h0l.4-.23.07,0,.35-.2,0,0,.06-.05a1.15,1.15,0,0,0,.14-.17l.07-.16,0-.08V15a.32.32,0,0,1,0-.14v0l0-.05.09-.08,0,0h0l.06-.07,0-.08,0-.06h-.09l0,0a.6.6,0,0,0-.21.21l0,0v0a.68.68,0,0,0-.09.32v1.81a.41.41,0,0,1,0,.17.43.43,0,0,1-.11.12l-.06,0-.07,0-.4.23-.07,0-.24.14-.15.09-.08,0-.39.23-.07,0-.15.08a1.07,1.07,0,0,0-.19.18l0,.06a.78.78,0,0,0-.11.35Z"/><g class="cls-11"><rect class="cls-9" x="13.47" y="19.93" width="1.8" height="1.04"/></g></g></g></svg>