<svg xmlns="http://www.w3.org/2000/svg" viewBox="0 0 48.38 70.51"><defs><style>.cls-1{fill:#f26e6b;}.cls-2{fill:#ef3e51;}.cls-3{fill:#fff9e8;}.cls-4{fill:#4abebb;}.cls-5{fill:#792545;}.cls-6{fill:#fff;}.cls-7{fill:#4c6db4;}.cls-8{fill:#ff5e29;}.cls-9{fill:#6380c0;}.cls-10{fill:#8faddb;}</style></defs><g id="Layer_2" data-name="Layer 2"><g id="Layer_2-2" data-name="Layer 2"><path class="cls-1" d="M24.2,26,6.3,15.66,24.17,5.37,42.06,15.68,24.2,26Zm0-26L0,13.92l4.65,2.69L24.2,27.89,43.71,16.63,48.37,14,24.17,0Z"/><polygon class="cls-2" points="24.17 1.9 24.17 5.37 42.06 15.68 45.06 13.95 24.17 1.9 24.17 1.9"/><polygon class="cls-3" points="6.3 15.66 24.2 25.98 42.06 15.68 24.17 5.37 6.3 15.66 6.3 15.66"/><polygon class="cls-4" points="48.38 17.02 48.38 56.55 24.19 70.5 24.19 30.98 48.38 17.02 48.38 17.02"/><polygon class="cls-3" points="48.38 53.11 48.38 56.55 24.19 70.51 24.19 67.08 48.38 53.11 48.38 53.11"/><polygon class="cls-3" points="48.38 32.57 48.38 36.01 24.19 49.97 24.19 46.53 48.38 32.57 48.38 32.57"/><polygon class="cls-5" points="48.38 13.93 48.38 17.37 24.19 31.33 24.19 27.89 48.38 13.93 48.38 13.93"/><polygon class="cls-2" points="31.46 28.8 25.23 32.39 25.23 42.47 31.46 38.88 31.46 28.8 31.46 28.8"/><polygon class="cls-6" points="25.47 42.04 31.21 38.74 31.21 29.22 25.47 32.53 25.47 42.04 25.47 42.04"/><polygon class="cls-7" points="25.84 32.74 25.84 41.41 29.72 39.17 30.84 38.53 30.84 29.86 27.96 31.52 25.84 32.74 25.84 32.74"/><polygon class="cls-2" points="39.35 24.24 33.12 27.83 33.12 37.91 39.35 34.32 39.35 24.24 39.35 24.24"/><polygon class="cls-6" points="33.36 37.49 39.1 34.18 39.1 24.67 33.36 27.97 33.36 37.49 33.36 37.49"/><polygon class="cls-7" points="33.73 28.18 33.73 36.85 37.61 34.62 38.73 33.97 38.73 25.3 35.85 26.96 33.73 28.18 33.73 28.18"/><polygon class="cls-2" points="46.95 19.85 40.72 23.44 40.72 33.53 46.95 29.94 46.95 19.85 46.95 19.85"/><polygon class="cls-6" points="40.96 33.1 46.7 29.79 46.7 20.28 40.96 23.59 40.96 33.1 40.96 33.1"/><polygon class="cls-7" points="41.33 23.8 41.33 32.47 45.21 30.23 46.34 29.58 46.34 20.91 43.45 22.57 41.33 23.8 41.33 23.8"/><path class="cls-2" d="M45.21,40.17l-2.64,1.52a3.83,3.83,0,0,0-1.85,2.91v8.24L47,49.25V40.91c0-1-.79-1.3-1.75-.74Z"/><path class="cls-6" d="M41,52.41l5.74-3.3v-8c0-.82-.66-1.1-1.48-.63l-2.56,1.48A3.51,3.51,0,0,0,41,44.59v7.82Z"/><path class="cls-7" d="M41.34,44.42v7.36l3.88-2.24,1.12-.65V41.53c0-.72-.58-1-1.3-.55l-1.51.87-.07,0-.81.46a2.7,2.7,0,0,0-1.31,2.07Z"/><path class="cls-2" d="M29.74,49.1,27.1,50.62a3.82,3.82,0,0,0-1.84,2.9v8.25l6.23-3.59V49.84c0-1-.78-1.3-1.75-.74Z"/><path class="cls-6" d="M25.51,61.34,31.24,58V50c0-.82-.66-1.1-1.48-.63L27.2,50.85a3.53,3.53,0,0,0-1.69,2.67v7.82Z"/><path class="cls-7" d="M25.87,53.35V60.7l3.88-2.23,1.13-.65V50.46c0-.72-.59-1-1.31-.55l-1.51.86-.06,0-.82.47a2.73,2.73,0,0,0-1.31,2.07Z"/><path class="cls-2" d="M37.47,44.64l-2.65,1.52A3.85,3.85,0,0,0,33,49.07v8.24l6.23-3.59V45.38c0-1-.78-1.3-1.74-.74Z"/><path class="cls-6" d="M33.23,56.88,39,53.58v-8c0-.82-.67-1.1-1.49-.63l-2.55,1.48a3.51,3.51,0,0,0-1.7,2.67v7.82Z"/><path class="cls-7" d="M33.59,48.89v7.36L37.48,54l1.12-.65V46c0-.72-.59-1-1.31-.55l-1.51.87-.06,0-.81.46a2.71,2.71,0,0,0-1.32,2.07Z"/><polyline class="cls-8" points="24.19 30.98 24.19 70.51 0 56.53 0 17.02 24.19 30.98"/><polygon class="cls-3" points="24.19 67.07 24.19 70.51 0 56.55 0 53.11 24.19 67.07 24.19 67.07"/><polygon class="cls-3" points="24.19 46.53 24.19 49.97 0 36 0 32.56 24.19 46.53 24.19 46.53"/><polyline class="cls-2" points="7.27 23.22 1.04 19.62 1.04 29.7 7.27 33.31 7.27 23.22"/><polyline class="cls-6" points="1.28 29.56 7.02 32.88 7.02 23.36 1.28 20.05 1.28 29.56"/><polyline class="cls-9" points="1.65 20.68 1.65 29.35 5.53 31.59 6.66 32.24 6.66 23.58 3.77 21.91 1.65 20.68"/><polyline class="cls-10" points="6.66 32.24 6.66 23.58 3.77 21.91 5.53 31.59 6.66 32.24"/><polyline class="cls-2" points="15.16 27.78 8.93 24.17 8.93 34.26 15.16 37.86 15.16 27.78"/><polyline class="cls-6" points="9.18 34.12 14.91 37.44 14.91 27.92 9.18 24.6 9.18 34.12"/><polyline class="cls-9" points="9.54 25.24 9.54 33.9 13.42 36.15 14.55 36.8 14.55 28.13 11.66 26.46 9.54 25.24"/><polyline class="cls-10" points="14.55 36.8 14.55 28.13 11.66 26.46 13.42 36.15 14.55 36.8"/><polyline class="cls-2" points="22.76 32.17 16.53 28.56 16.53 38.65 22.76 42.25 22.76 32.17"/><polyline class="cls-6" points="16.78 38.5 22.51 41.82 22.51 32.31 16.78 28.99 16.78 38.5"/><polyline class="cls-9" points="17.14 29.62 17.14 38.29 21.02 40.54 22.15 41.19 22.15 32.52 19.26 30.85 17.14 29.62"/><polyline class="cls-10" points="22.15 41.19 22.15 32.52 19.26 30.85 21.02 40.54 22.15 41.19"/><path class="cls-6" d="M13.36,46.05,11,44.68c-1.12-.64-2-.26-2,.85V61.72l6.34,3.67V49.13a4.05,4.05,0,0,0-2-3.08"/><path class="cls-2" d="M9.22,61.86l5.84,3.38v-16a4,4,0,0,0-2-3.07l-1.87-1.08c-1.11-.65-2-.27-2,.85V61.86"/><path class="cls-6" d="M13.38,46.78,10.9,45.35c-.72-.42-1.31-.17-1.31.55v8.72l5.1,3V48.85a2.74,2.74,0,0,0-1.31-2.07"/><path class="cls-9" d="M9.85,46.34v8.13l3.22,1.87,1.36.79V49a2.71,2.71,0,0,0-1.3-2.06l-2-1.13a1.07,1.07,0,0,0-.94-.16.69.69,0,0,0-.38.7"/><path class="cls-10" d="M14.43,57.13V49a2.71,2.71,0,0,0-1.3-2.06l-2-1.13,1.92,10.55,1.34.78"/><path class="cls-2" d="M21,50.48,18.38,49c-1-.59-1.84-.24-1.84.77V58l6.23,3.6V53.23A3.6,3.6,0,0,0,21,50.48"/><path class="cls-6" d="M16.78,57.82l5.74,3.32v-8A3.08,3.08,0,0,0,21,50.77l-2.56-1.48c-.94-.54-1.7-.22-1.7.72v7.81"/><path class="cls-9" d="M17.15,50.26v7.35L21,59.86l1.13.65V53.15a2.74,2.74,0,0,0-1.31-2.07l-1.51-.87-.07,0-.81-.47c-.72-.42-1.31-.17-1.31.56"/><path class="cls-10" d="M22.16,60.51V53.15a2.74,2.74,0,0,0-1.31-2.07l-1.51-.87L21.1,59.9l1.06.61"/><path class="cls-2" d="M5.56,41.55,2.91,40c-1-.59-1.84-.24-1.84.77V49l6.23,3.6V44.3a3.63,3.63,0,0,0-1.74-2.75"/><path class="cls-6" d="M1.32,48.9l5.74,3.32v-8a3.11,3.11,0,0,0-1.48-2.34L3,40.36c-.94-.54-1.7-.22-1.7.72V48.9"/><path class="cls-9" d="M1.69,41.33v7.35l3.88,2.25,1.12.65V44.22a2.68,2.68,0,0,0-1.31-2.06l-1.5-.88-.07,0L3,40.77c-.73-.42-1.31-.17-1.31.56"/><path class="cls-10" d="M6.69,51.58V44.22a2.68,2.68,0,0,0-1.31-2.06l-1.5-.88L5.63,51l1.06.61"/><polygon class="cls-2" points="24.19 27.89 24.19 31.33 0 17.36 0 13.92 24.19 27.89 24.19 27.89"/><polygon class="cls-2" points="4.31 38.91 20.09 48.02 20.09 43.75 4.31 34.64 4.31 38.91 4.31 38.91"/><polygon class="cls-6" points="19.93 47.76 19.93 43.82 4.47 34.9 4.47 38.84 19.93 47.76 19.93 47.76"/><polygon class="cls-3" points="19.6 47.24 19.6 43.96 4.8 35.42 4.8 38.7 19.6 47.24 19.6 47.24"/><polygon class="cls-5" points="3.3 13.93 6.3 15.66 24.17 5.37 24.17 1.9 3.3 13.93 3.3 13.93"/></g></g></svg>