<svg xmlns="http://www.w3.org/2000/svg" xmlns:xlink="http://www.w3.org/1999/xlink" viewBox="0 0 720.62 423.89"><defs><style>.cls-1{fill:none;}.cls-2{fill:#66dcdc;}.cls-3{isolation:isolate;}.cls-4{fill:#00d99f;mix-blend-mode:multiply;}.cls-5{opacity:0.2;fill:url(#New_Pattern);}.cls-6{fill:#008989;}.cls-7{fill:#00c5c5;}.cls-8{clip-path:url(#clip-path);}.cls-9{fill:#008585;}.cls-10{clip-path:url(#clip-path-2);}.cls-11{clip-path:url(#clip-path-3);}.cls-12{fill:#008a8a;}.cls-13{clip-path:url(#clip-path-4);}.cls-14{clip-path:url(#clip-path-5);}.cls-15{fill:#00b3b3;}.cls-16{fill:#00b8b8;}.cls-17{clip-path:url(#clip-path-6);}.cls-18{clip-path:url(#clip-path-7);}.cls-19{fill:#00adad;}.cls-20{clip-path:url(#clip-path-8);}.cls-21{clip-path:url(#clip-path-9);}.cls-22{fill:#00a8a8;}.cls-23{fill:#00a3a3;}.cls-24{fill:#009e9e;}.cls-25{fill:#099;}.cls-26{fill:#009494;}.cls-27{fill:#008f8f;}.cls-28{clip-path:url(#clip-path-10);}.cls-29{clip-path:url(#clip-path-11);}.cls-30{clip-path:url(#clip-path-12);}.cls-31{clip-path:url(#clip-path-13);}.cls-32{fill:#ff9c00;}</style><pattern id="New_Pattern" data-name="New Pattern" width="4" height="6" patternUnits="userSpaceOnUse" viewBox="0 0 4 6"><rect class="cls-1" width="4" height="6"/><circle class="cls-2" cx="4" cy="6" r="1"/><circle class="cls-2" cy="6" r="1"/><circle class="cls-2" cx="2" cy="3" r="1"/><circle class="cls-2" cx="4" r="1"/><circle class="cls-2" r="1"/></pattern><clipPath id="clip-path"><path class="cls-1" d="M207.28,143.91v4.41c-2-1.18-3.17-2.78-3.17-4.45v-4.41C204.11,141.13,205.26,142.73,207.28,143.91Z"/></clipPath><clipPath id="clip-path-2"><path class="cls-1" d="M0,187.77v-4.41c0,1.61,1.05,3.23,3.17,4.46v4.42C1.05,191,0,189.39,0,187.77Z"/></clipPath><clipPath id="clip-path-3"><path class="cls-1" d="M374.71,211l0,0,0-4.41h0C374.72,208.05,374.72,209.53,374.71,211Z"/></clipPath><clipPath id="clip-path-4"><path class="cls-1" d="M382.32,214.32a37.34,37.34,0,0,0-7.61-3.32c0-1.47,0-2.95,0-4.42a37.9,37.9,0,0,1,7.61,3.32C382.33,211.37,382.33,212.85,382.32,214.32Z"/></clipPath><clipPath id="clip-path-5"><path class="cls-1" d="M344.46,210.62a38.55,38.55,0,0,0-8.78,3.67c0-1.47,0-2.94,0-4.41a38.2,38.2,0,0,1,8.78-3.68C344.47,207.53,344.47,209.29,344.46,210.62Z"/></clipPath><clipPath id="clip-path-6"><path class="cls-1" d="M335.68,214.29l0,0c0-1.47,0-2.94,0-4.42l.05,0C335.69,211.35,335.69,212.82,335.68,214.29Z"/></clipPath><clipPath id="clip-path-7"><path class="cls-1" d="M335.64,214.32a23.52,23.52,0,0,0-6.3,5.17v-4.41a23.73,23.73,0,0,1,6.3-5.18C335.65,211.38,335.64,212.85,335.64,214.32Z"/></clipPath><clipPath id="clip-path-8"><path class="cls-1" d="M389.26,220.23a23,23,0,0,0-6.94-5.91c0-1.47,0-2.95,0-4.42l.05,0c0,1.47,0,2.93,0,4.39,0-1.46,0-2.92,0-4.39a23.08,23.08,0,0,1,6.89,5.88Z"/></clipPath><clipPath id="clip-path-9"><path class="cls-1" d="M515.17,219v4.42a16.59,16.59,0,0,1-15.12,0V219A16.56,16.56,0,0,0,515.17,219Z"/></clipPath><clipPath id="clip-path-10"><path class="cls-1" d="M382.48,241.63a38.31,38.31,0,0,1-8.77,3.68c0-1.47,0-2.94,0-4.41a38.33,38.33,0,0,0,8.77-3.69,23.52,23.52,0,0,0,6.3-5.17,13.14,13.14,0,0,0,3.29-8.46V228a13.13,13.13,0,0,1-3.3,8.46A23.83,23.83,0,0,1,382.48,241.63Z"/></clipPath><clipPath id="clip-path-11"><path class="cls-1" d="M720.62,238l0,4.42c0,1.6-1,3.19-3.11,4.41v-4.42C719.57,241.14,720.61,239.55,720.62,238Z"/></clipPath><clipPath id="clip-path-12"><path class="cls-1" d="M330.06,237.16a13.58,13.58,0,0,1-4-9.21v-4.42a13.61,13.61,0,0,0,4,9.21,25.16,25.16,0,0,0,5.73,4.47,39.79,39.79,0,0,0,10.13,4,54.84,54.84,0,0,0,27.73-.34h.06c0,1.47,0,2.94,0,4.41l-.06,0a54.88,54.88,0,0,1-27.74.34,39.87,39.87,0,0,1-10.12-4A25,25,0,0,1,330.06,237.16Z"/></clipPath><clipPath id="clip-path-13"><path class="cls-1" d="M338.29,302.48v-4.42c0,1.62,1.05,3.24,3.17,4.47V307C339.34,305.71,338.29,304.09,338.29,302.48Z"/></clipPath></defs><g class="cls-3"><g id="Layer_2" data-name="Layer 2"><g id="Layer_3" data-name="Layer 3"><polygon class="cls-4" points="309.62 8.73 12.62 182.73 402.62 412.73 708.62 238.73 309.62 8.73"/><polygon class="cls-5" points="298.62 0.73 1.62 174.73 391.62 404.73 697.62 230.73 298.62 0.73"/><polygon class="cls-6" points="435.84 87 435.83 91.42 312.59 19.57 312.6 15.15 435.84 87"/><polygon class="cls-6" points="451.06 95.88 451.05 100.29 435.83 91.42 435.84 87 451.06 95.88"/><polygon class="cls-6" points="385.5 134.35 385.49 138.77 370.26 129.89 370.28 125.48 385.5 134.35"/><polygon class="cls-7" points="451.06 95.88 451.05 100.29 385.49 138.77 385.5 134.35 451.06 95.88"/><polygon class="cls-6" points="355.15 134.35 355.14 138.77 297.1 104.93 297.11 100.52 355.15 134.35"/><polygon class="cls-7" points="297.11 100.52 297.1 104.93 230.04 143.91 230.05 139.49 297.11 100.52"/><polygon class="cls-6" points="370.37 143.23 370.36 147.64 355.14 138.77 355.15 134.35 370.37 143.23"/><g class="cls-3"><g class="cls-8"><g class="cls-3"><path class="cls-9" d="M207.28,143.91v4.41c-2-1.18-3.17-2.78-3.17-4.45v-4.41c0,1.67,1.15,3.27,3.17,4.45"/></g></g></g><polygon class="cls-6" points="573.74 167.4 573.73 171.81 451.05 100.29 451.06 95.88 573.74 167.4"/><polygon class="cls-6" points="450.7 172.52 450.69 176.94 448.89 175.89 448.9 171.47 450.7 172.52"/><polygon class="cls-6" points="588.97 176.27 588.95 180.69 573.73 171.81 573.74 167.4 588.97 176.27"/><polygon class="cls-6" points="426.67 176.05 426.66 180.47 370.36 147.64 370.37 143.23 426.67 176.05"/><polygon class="cls-7" points="448.9 171.47 448.89 175.89 433.77 184.76 433.78 180.35 448.9 171.47"/><polygon class="cls-7" points="370.37 143.23 370.36 147.65 303.62 186.81 303.63 182.39 370.37 143.23"/><polygon class="cls-6" points="303.63 182.39 303.62 186.81 288.4 177.93 288.41 173.52 303.63 182.39"/><polygon class="cls-6" points="273.29 182.39 273.28 186.81 207.27 148.32 207.28 143.91 273.29 182.39"/><polygon class="cls-7" points="312.6 15.15 312.59 19.57 25.9 187.8 25.91 183.39 312.6 15.15"/><polygon class="cls-6" points="441.77 185.01 441.76 189.42 433.77 184.76 433.78 180.35 441.77 185.01"/><g class="cls-3"><g class="cls-10"><g class="cls-3"><path class="cls-9" d="M3.18,187.82v4.42C1.05,191,0,189.39,0,187.77v-4.41c0,1.61,1.05,3.23,3.17,4.46"/></g></g></g><polygon class="cls-6" points="288.51 191.27 288.5 195.68 273.28 186.81 273.29 182.39 288.51 191.27"/><g class="cls-3"><g class="cls-11"><g class="cls-3"><path class="cls-12" d="M377.52,207.58V212c-.92-.36-1.87-.7-2.85-1l0-4.41c1,.3,1.92.64,2.84,1"/></g></g></g><g class="cls-3"><g class="cls-13"><g class="cls-3"><path class="cls-9" d="M389.27,215.81v4.42a23,23,0,0,0-6.94-5.91,35.68,35.68,0,0,0-4.81-2.33v-4.41a35.64,35.64,0,0,1,4.81,2.32,23.14,23.14,0,0,1,6.94,5.91"/><path class="cls-12" d="M377.52,207.58V212c-.92-.36-1.87-.7-2.85-1l0-4.41c1,.3,1.92.64,2.84,1"/></g></g></g><g class="cls-3"><g class="cls-14"><g class="cls-3"><path class="cls-15" d="M344.48,206.2l0,4.42-1.45.44v-4.41c.48-.16,1-.31,1.46-.45"/><path class="cls-16" d="M343,206.65v4.41a37.26,37.26,0,0,0-7.37,3.26l-.48.29v-4.42l.48-.29a37.24,37.24,0,0,1,7.37-3.25"/></g></g></g><g class="cls-3"><g class="cls-17"><g class="cls-3"><path class="cls-16" d="M343,206.65v4.41a37.26,37.26,0,0,0-7.37,3.26l-.48.29v-4.42l.48-.29a37.24,37.24,0,0,1,7.37-3.25"/></g></g></g><polygon class="cls-6" points="329.35 215.08 329.34 219.49 288.5 195.68 288.51 191.27 329.35 215.08"/><g class="cls-3"><g class="cls-18"><g class="cls-3"><path class="cls-16" d="M343,206.65v4.41a37.26,37.26,0,0,0-7.37,3.26l-.48.29v-4.42l.48-.29a37.24,37.24,0,0,1,7.37-3.25"/><path class="cls-15" d="M335.17,210.19v4.42a24.86,24.86,0,0,0-4.13,3.1l0-4.42a25.46,25.46,0,0,1,4.12-3.1"/><path class="cls-19" d="M331.05,213.29l0,4.42a20,20,0,0,0-1.69,1.78v-4.41a18.88,18.88,0,0,1,1.7-1.79"/></g></g></g><g class="cls-3"><g class="cls-20"><g class="cls-3"><path class="cls-9" d="M389.27,215.81v4.42a23,23,0,0,0-6.94-5.91,35.68,35.68,0,0,0-4.81-2.33v-4.41a35.64,35.64,0,0,1,4.81,2.32,23.14,23.14,0,0,1,6.94,5.91"/></g></g></g><polygon class="cls-7" points="441.77 185.01 441.76 189.42 389.26 220.23 389.27 215.81 441.77 185.01"/><polygon class="cls-7" points="588.96 176.28 588.95 180.69 515.16 223.43 515.17 219.01 588.96 176.28"/><polygon class="cls-6" points="500.05 218.98 500.04 223.4 441.76 189.42 441.77 185.01 500.05 218.98"/><g class="cls-3"><g class="cls-21"><g class="cls-3"><path class="cls-16" d="M515.17,219v4.42a12.6,12.6,0,0,1-2.3,1V220a12,12,0,0,0,2.3-1"/><path class="cls-15" d="M512.87,220v4.41a13.52,13.52,0,0,1-2,.51l0-4.41a16.28,16.28,0,0,0,2-.51"/><path class="cls-19" d="M510.84,220.54l0,4.41c-.44.09-.9.15-1.36.2v-4.42c.46,0,.92-.11,1.37-.19"/><path class="cls-22" d="M509.47,220.73v4.42l-1.19.08v-4.42c.4,0,.8,0,1.19-.08"/><path class="cls-23" d="M508.28,220.81v4.42c-.37,0-.73,0-1.1,0v-4.42h1.1"/><path class="cls-24" d="M507.18,220.81v4.42c-.35,0-.71,0-1.06-.06l0-4.41c.35,0,.7.05,1.05.05"/><path class="cls-25" d="M506.13,220.76l0,4.41c-.35,0-.7-.06-1-.11v-4.42q.53.08,1.05.12"/><path class="cls-26" d="M505.08,220.64v4.42l-1.06-.19v-4.42c.35.08.7.14,1.06.19"/><path class="cls-27" d="M504,220.45v4.42c-.38-.08-.76-.17-1.12-.28v-4.41c.36.1.74.19,1.12.27"/><path class="cls-12" d="M502.9,220.18v4.41c-.45-.13-.89-.28-1.31-.44l0-4.42a13.26,13.26,0,0,0,1.3.45"/><path class="cls-9" d="M501.6,219.73l0,4.42a12.21,12.21,0,0,1-1.54-.75V219a10.59,10.59,0,0,0,1.55.75"/></g></g></g><polygon class="cls-6" points="694.71 237.93 694.7 242.34 588.95 180.69 588.97 176.27 694.71 237.93"/><g class="cls-3"><g class="cls-28"><g class="cls-3"><path class="cls-26" d="M392.08,223.65v4.42c0,.1,0,.2,0,.3l0-4.42v-.3"/><path class="cls-25" d="M392.08,224l0,4.42a11.28,11.28,0,0,1-.21,1.91v-4.42a11.18,11.18,0,0,0,.22-1.91"/><path class="cls-24" d="M391.86,225.86v4.42a11.66,11.66,0,0,1-.54,1.87l0-4.41a11.73,11.73,0,0,0,.53-1.88"/><path class="cls-23" d="M391.33,227.74l0,4.41a12.31,12.31,0,0,1-.87,1.89v-4.41a14.54,14.54,0,0,0,.88-1.89"/><path class="cls-22" d="M390.45,229.63V234a16.32,16.32,0,0,1-1.32,2v-4.42a17,17,0,0,0,1.32-2"/><path class="cls-19" d="M389.13,231.61V236l-.35.42a18.74,18.74,0,0,1-1.69,1.79v-4.41a20.17,20.17,0,0,0,1.7-1.79l.34-.43"/><path class="cls-15" d="M387.09,233.83v4.41a25.91,25.91,0,0,1-4.12,3.1v-4.42a24.87,24.87,0,0,0,4.12-3.09"/><path class="cls-16" d="M383,236.92v4.42l-.48.29a37.07,37.07,0,0,1-7.38,3.25l0-4.41a37.26,37.26,0,0,0,7.37-3.26l.48-.29"/><path class="cls-15" d="M375.12,240.47l0,4.41c-.48.16-1,.31-1.45.45-1.51.43-3.07.79-4.65,1.08V242q2.39-.44,4.65-1.08l1.46-.44"/></g></g></g><g class="cls-3"><g class="cls-29"><g class="cls-3"><path class="cls-26" d="M720.62,238l0,4.42v-4.32a.31.31,0,0,0,0-.1"/><path class="cls-25" d="M720.61,238.05v4.41a3.38,3.38,0,0,1-.07.63v-4.42a2.62,2.62,0,0,0,.07-.62"/><path class="cls-24" d="M720.54,238.67v4.42a5.1,5.1,0,0,1-.17.61v-4.42a3.25,3.25,0,0,0,.17-.61"/><path class="cls-23" d="M720.37,239.28v4.42a4.21,4.21,0,0,1-.29.61l0-4.41a5.65,5.65,0,0,0,.28-.62"/><path class="cls-22" d="M720.09,239.9l0,4.41a4.3,4.3,0,0,1-.43.65v-4.42a5.21,5.21,0,0,0,.44-.64"/><path class="cls-19" d="M719.65,240.54V245a5.52,5.52,0,0,1-.66.72v-4.41a6.31,6.31,0,0,0,.66-.73"/><path class="cls-15" d="M719,241.27v4.41a8.77,8.77,0,0,1-1.36,1v-4.42a8.14,8.14,0,0,0,1.36-1"/><path class="cls-16" d="M717.63,242.28v4.42a.57.57,0,0,0-.13.08v-4.42l.13-.08"/></g></g></g><g class="cls-3"><g class="cls-30"><g class="cls-3"><path class="cls-15" d="M375.12,240.47l0,4.41c-.48.16-1,.31-1.45.45-1.51.43-3.07.79-4.65,1.08V242q2.39-.44,4.65-1.08l1.46-.44"/><path class="cls-19" d="M369,242v4.42c-1.39.25-2.8.45-4.23.59v-4.41c1.43-.15,2.84-.34,4.23-.6"/><path class="cls-22" d="M364.78,242.59V247c-1.21.13-2.43.21-3.66.25l0-4.42c1.22,0,2.44-.12,3.65-.24"/><path class="cls-23" d="M361.13,242.83l0,4.42c-1.12,0-2.25,0-3.37,0v-4.41c1.12,0,2.25,0,3.38,0"/><path class="cls-24" d="M357.75,242.85v4.41c-1.09,0-2.17-.08-3.25-.17v-4.42c1.08.09,2.16.15,3.25.18"/><path class="cls-25" d="M354.5,242.67v4.42c-1.08-.09-2.15-.21-3.2-.36v-4.42c1.06.15,2.13.27,3.2.36"/><path class="cls-26" d="M351.3,242.31v4.42c-1.11-.16-2.19-.35-3.27-.58v-4.41q1.62.33,3.27.57"/><path class="cls-27" d="M348,241.74v4.41c-.71-.14-1.41-.31-2.11-.48l-1.34-.37v-4.41l1.35.36c.69.18,1.39.34,2.1.49"/><path class="cls-12" d="M344.58,240.89v4.41c-1.36-.39-2.69-.84-4-1.35v-4.42c1.28.51,2.61,1,4,1.36"/><path class="cls-9" d="M340.61,239.53V244a36.23,36.23,0,0,1-4.81-2.32,25,25,0,0,1-5.73-4.47,13.6,13.6,0,0,1-4-9.28v-4.42a13.57,13.57,0,0,0,4,9.28,25.16,25.16,0,0,0,5.73,4.47,35.6,35.6,0,0,0,4.81,2.32"/></g></g></g><polygon class="cls-7" points="345.93 241.25 345.91 245.66 235.89 310.23 235.9 305.81 345.93 241.25"/><polygon class="cls-6" points="402.58 257.77 402.56 262.18 373.65 245.33 373.66 240.91 402.58 257.77"/><polygon class="cls-7" points="412.09 252.18 412.08 256.6 402.56 262.18 402.58 257.77 412.09 252.18"/><polygon class="cls-6" points="427.32 261.06 427.3 265.48 412.08 256.6 412.09 252.18 427.32 261.06"/><polygon class="cls-7" points="288.51 191.27 288.5 195.68 164.36 268.53 164.38 264.11 288.51 191.27"/><polygon class="cls-6" points="164.38 264.11 164.36 268.53 149.14 259.65 149.16 255.24 164.38 264.11"/><polygon class="cls-7" points="427.32 261.06 427.3 265.48 417.79 271.06 417.8 266.64 427.32 261.06"/><polygon class="cls-7" points="417.8 266.64 417.79 271.06 364.19 302.51 364.2 298.1 417.8 266.64"/><g class="cls-3"><g class="cls-31"><g class="cls-3"><path class="cls-9" d="M341.47,302.53V307c-2.12-1.24-3.17-2.86-3.17-4.47v-4.42c0,1.62,1.05,3.24,3.17,4.47"/></g></g></g><polygon class="cls-6" points="235.9 305.81 235.89 310.23 220.67 301.35 220.68 296.94 235.9 305.81"/><polygon class="cls-6" points="532.16 333.32 532.15 337.73 417.79 271.06 417.8 266.64 532.16 333.32"/><polygon class="cls-7" points="547.28 324.44 547.27 328.86 532.15 337.73 532.16 333.32 547.28 324.44"/><polygon class="cls-6" points="463.44 373.64 463.43 378.06 341.46 306.95 341.47 302.53 463.44 373.64"/><polygon class="cls-7" points="478.56 364.77 478.55 369.18 463.43 378.06 463.44 373.64 478.56 364.77"/><polygon class="cls-7" points="717.5 242.36 717.49 246.78 415.68 423.89 415.69 419.47 717.5 242.36"/><polygon class="cls-6" points="400.51 419.47 400.5 423.89 3.17 192.24 3.18 187.82 400.51 419.47"/><path class="cls-32" d="M717.45,233.49,320.11,1.84a16.57,16.57,0,0,0-15.17,0L3.13,179c-4.18,2.45-4.15,6.42.05,8.87L400.51,419.47a16.59,16.59,0,0,0,15.18,0L717.5,242.36C721.67,239.91,721.65,235.94,717.45,233.49ZM478.57,364.77h0L364.21,298.1l53.59-31.46h0l114.36,66.68h0Zm68.71-40.33L388.79,232c4.22-5.1,4.38-11.06.48-16.23a23.26,23.26,0,0,0-6.94-5.91,38.28,38.28,0,0,0-7.65-3.33,54.49,54.49,0,0,0-30.2-.37,38.82,38.82,0,0,0-8.83,3.7,26,26,0,0,0-5,3.8,26,26,0,0,1,5-3.8,38.82,38.82,0,0,1,8.83-3.7l-40.85-23.81,66.74-39.16-15.22-8.88-66.74,39.17h0l-58.36-34,67.06-39,58,33.84,15.22,8.88,56.3,32.82-52,30.52a37.72,37.72,0,0,1,7.65,3.33,23.14,23.14,0,0,1,6.94,5.91l52.5-30.8h0l58.28,34a16.56,16.56,0,0,0,15.12,0L589,176.28l-15.22-8.88-66.13,38.3-56.9-33.18-1.8-1.05-15.13,8.88h0l15.12-8.88,1.81,1.05a9.58,9.58,0,0,0-1.3-.91L385.5,134.35l65.56-38.47L435.84,87l-65.56,38.48h0L304.66,87.22a16.6,16.6,0,0,0-15.14,0L207.26,135c-2,1.18-3.15,2.78-3.15,4.45s1.15,3.27,3.17,4.45l66,38.48,15.22,8.88,40.84,23.81h0c-4.62,5.57-4.38,12.18.72,17.66l-109.39,64.2,15.22,8.87,110-64.56h0a54.84,54.84,0,0,0,27.73-.34h0l28.92,16.86,9.51-5.59,15.23,8.88h0l-15.23-8.88-9.51,5.59-61.16,35.89c-4.18,2.45-4.15,6.42.05,8.87l122,71.11,5.61-3.29-5.61,3.29L408,406.16,235.9,305.81l-15.22-8.87-56.3-32.83,124.13-72.84-15.22-8.88L149.15,255.24h0L25.91,183.39,312.6,15.15,435.84,87l15.22,8.88L573.74,167.4,589,176.27l105.74,61.66L547.28,324.44"/></g></g></g></svg>